<svg width="40" height="40" viewBox="0 0 40 40" fill="none" xmlns="http://www.w3.org/2000/svg">
<circle cx="20" cy="20" r="20" fill="#FDBF47"/>
<g opacity="0.8">
<path d="M12.1584 21.9306C11.4454 20.7423 11.4454 19.2577 12.1584 18.0694C12.376 17.7067 12.7364 17.4527 13.1511 17.3698L14.8442 17.0312C14.945 17.011 15.0359 16.9569 15.1018 16.8779L17.1709 14.395C18.3534 12.9759 18.9447 12.2664 19.4723 12.4574C20 12.6485 20 13.5721 20 15.4193V24.5807C20 26.4279 20 27.3515 19.4723 27.5426C18.9447 27.7336 18.3534 27.0241 17.1709 25.605L15.1018 23.1221C15.0359 23.0431 14.945 22.989 14.8442 22.9688L13.1511 22.6302C12.7364 22.5473 12.376 22.2933 12.1584 21.9306Z" fill="#623223"/>
<path fill-rule="evenodd" clip-rule="evenodd" d="M29.7071 16.2929C30.0976 16.6834 30.0976 17.3166 29.7071 17.7071L23.7071 23.7071C23.3166 24.0976 22.6834 24.0976 22.2929 23.7071C21.9024 23.3166 21.9024 22.6834 22.2929 22.2929L28.2929 16.2929C28.6834 15.9024 29.3166 15.9024 29.7071 16.2929Z" fill="#623223"/>
<path fill-rule="evenodd" clip-rule="evenodd" d="M22.2929 16.2929C22.6834 15.9024 23.3166 15.9024 23.7071 16.2929L29.7071 22.2929C30.0976 22.6834 30.0976 23.3166 29.7071 23.7071C29.3166 24.0976 28.6834 24.0976 28.2929 23.7071L22.2929 17.7071C21.9024 17.3166 21.9024 16.6834 22.2929 16.2929Z" fill="#623223"/>
</g>
</svg>
