<svg width="40" height="40" viewBox="0 0 40 40" fill="none" xmlns="http://www.w3.org/2000/svg">
<circle cx="20" cy="20" r="20" fill="#FDBF47"/>
<path d="M12.1584 21.9306C11.4454 20.7423 11.4454 19.2577 12.1584 18.0694C12.376 17.7067 12.7364 17.4527 13.1511 17.3698L14.8442 17.0312C14.945 17.011 15.0359 16.9569 15.1018 16.8779L17.1709 14.395C18.3534 12.9759 18.9447 12.2664 19.4723 12.4574C20 12.6485 20 13.5721 20 15.4193V24.5807C20 26.4279 20 27.3515 19.4723 27.5426C18.9447 27.7336 18.3534 27.0241 17.1709 25.605L15.1018 23.1221C15.0359 23.0431 14.945 22.989 14.8442 22.9688L13.1511 22.6302C12.7364 22.5473 12.376 22.2933 12.1584 21.9306Z" fill="#623223" fill-opacity="0.8"/>
<path fill-rule="evenodd" clip-rule="evenodd" d="M21.8284 15.7574C22.2189 15.3668 22.8521 15.3668 23.2426 15.7573C24.3621 16.8768 24.9938 18.3933 25 19.9764C25.0063 21.5595 24.3866 23.0809 23.276 24.2091C22.8885 24.6027 22.2554 24.6077 21.8618 24.2203C21.4682 23.8328 21.4632 23.1997 21.8507 22.8061C22.5911 22.0539 23.0042 21.0397 23 19.9842C22.9959 18.9289 22.5748 17.9179 21.8284 17.1716C21.4379 16.7811 21.4379 16.1479 21.8284 15.7574Z" fill="#623223" fill-opacity="0.8"/>
<path fill-rule="evenodd" clip-rule="evenodd" d="M25.9498 13.636C26.3403 13.2455 26.9735 13.2455 27.364 13.6361C29.043 15.3152 29.9905 17.5899 29.9999 19.9646L28.9999 19.9685L29.9999 19.9646C30.0093 22.3392 29.0797 24.6213 27.4138 26.3136C27.0264 26.7072 26.3932 26.7122 25.9996 26.3248C25.6061 25.9373 25.6011 25.3042 25.9885 24.9106C27.2842 23.5943 28.0072 21.8194 27.9999 19.9725V19.9724C27.9926 18.1255 27.2557 16.3562 25.9497 15.0502C25.5592 14.6597 25.5592 14.0265 25.9498 13.636Z" fill="#623223" fill-opacity="0.8"/>
</svg>
