<svg width="149" height="149" viewBox="0 0 149 149" fill="none" xmlns="http://www.w3.org/2000/svg">
<circle cx="74.5" cy="74.5" r="74.5" fill="white"/>
<path fill-rule="evenodd" clip-rule="evenodd" d="M74.2804 7.00035C74.3536 7.00012 74.4268 7 74.5 7C74.5732 7 74.6464 7.00012 74.7196 7.00035C76.3643 7.00559 77.6933 8.34311 77.688 9.98777C77.6828 11.6324 76.3453 12.9614 74.7006 12.9562C74.6338 12.956 74.5669 12.9559 74.5 12.9559C74.4331 12.9559 74.3662 12.956 74.2994 12.9562C72.6547 12.9614 71.3172 11.6324 71.312 9.98777C71.3067 8.34311 72.6357 7.00559 74.2804 7.00035ZM91.4109 12.145C91.9137 10.5791 93.5907 9.71732 95.1567 10.2202C95.2957 10.2648 95.4346 10.3099 95.5733 10.3554C97.1359 10.8685 97.9867 12.5512 97.4736 14.1138C96.9606 15.6764 95.2779 16.5272 93.7153 16.0141C93.589 15.9726 93.4624 15.9315 93.3357 15.8909C91.7698 15.388 90.908 13.711 91.4109 12.145ZM57.5891 12.145C58.092 13.711 57.2302 15.388 55.6643 15.8909C55.5375 15.9315 55.411 15.9726 55.2847 16.0141C53.7221 16.5272 52.0394 15.6764 51.5264 14.1138C51.0133 12.5512 51.8641 10.8685 53.4267 10.3554C53.5654 10.3099 53.7043 10.2648 53.8433 10.2202C55.4092 9.71733 57.0863 10.5791 57.5891 12.145ZM109.845 20.4293C110.808 19.0964 112.67 18.7969 114.003 19.7604C114.121 19.8457 114.239 19.9315 114.356 20.0176C115.683 20.9896 115.97 22.8531 114.998 24.1798C114.026 25.5064 112.163 25.7939 110.836 24.8218C110.729 24.7433 110.621 24.6651 110.514 24.5872C109.181 23.6237 108.881 21.7622 109.845 20.4293ZM39.1553 20.4293C40.1188 21.7622 39.8193 23.6238 38.4864 24.5872C38.3787 24.6651 38.2713 24.7433 38.1641 24.8218C36.8375 25.7939 34.974 25.5064 34.0019 24.1798C33.0298 22.8531 33.3173 20.9896 34.6439 20.0176C34.7614 19.9315 34.8792 19.8457 34.9973 19.7604C36.3302 18.7969 38.1918 19.0964 39.1553 20.4293ZM124.82 34.0019C126.147 33.0298 128.01 33.3173 128.982 34.6439C129.069 34.7614 129.154 34.8792 129.24 34.9973C130.203 36.3302 129.904 38.1918 128.571 39.1553C127.238 40.1188 125.376 39.8193 124.413 38.4864C124.335 38.3787 124.257 38.2713 124.178 38.1641C123.206 36.8375 123.494 34.974 124.82 34.0019ZM24.1798 34.0019C25.5064 34.974 25.7939 36.8375 24.8218 38.1641C24.7433 38.2713 24.6651 38.3787 24.5872 38.4864C23.6237 39.8193 21.7622 40.1188 20.4293 39.1553C19.0964 38.1918 18.7969 36.3302 19.7604 34.9973C19.8457 34.8792 19.9315 34.7614 20.0176 34.6439C20.9896 33.3173 22.8531 33.0298 24.1798 34.0019ZM134.886 51.5264C136.449 51.0133 138.131 51.8641 138.645 53.4267C138.69 53.5654 138.735 53.7043 138.78 53.8433C139.283 55.4092 138.421 57.0863 136.855 57.5891C135.289 58.092 133.612 57.2302 133.109 55.6643C133.068 55.5375 133.027 55.411 132.986 55.2847C132.473 53.7221 133.324 52.0394 134.886 51.5264ZM14.1138 51.5264C15.6764 52.0394 16.5272 53.7221 16.0141 55.2847C15.9726 55.411 15.9315 55.5376 15.8909 55.6643C15.388 57.2302 13.711 58.092 12.145 57.5891C10.5791 57.0863 9.71732 55.4093 10.2202 53.8433C10.2648 53.7043 10.3099 53.5654 10.3554 53.4267C10.8685 51.8641 12.5512 51.0133 14.1138 51.5264ZM139.012 71.312C140.657 71.3067 141.994 72.6357 142 74.2804C142 74.3536 142 74.4268 142 74.5C142 74.5732 142 74.6464 142 74.7196C141.994 76.3643 140.657 77.6933 139.012 77.688C137.368 77.6828 136.039 76.3453 136.044 74.7006C136.044 74.6338 136.044 74.5669 136.044 74.5C136.044 74.457 136.044 74.414 136.044 74.371C136.044 74.3472 136.044 74.3233 136.044 74.2994C136.039 72.6547 137.368 71.3172 139.012 71.312ZM9.98777 71.312C11.6324 71.3172 12.9614 72.6547 12.9562 74.2994C12.956 74.3662 12.9559 74.4331 12.9559 74.5C12.9559 74.5669 12.956 74.6338 12.9562 74.7006C12.9614 76.3453 11.6324 77.6828 9.98777 77.688C8.34311 77.6933 7.00559 76.3643 7.00035 74.7196C7.00012 74.6464 7 74.5732 7 74.5C7 74.4268 7.00012 74.3536 7.00035 74.2804C7.00559 72.6357 8.34311 71.3067 9.98777 71.312ZM136.855 91.4109C138.421 91.9137 139.283 93.5907 138.78 95.1567C138.735 95.2957 138.69 95.4346 138.645 95.5733C138.131 97.1359 136.449 97.9867 134.886 97.4736C133.324 96.9606 132.473 95.2779 132.986 93.7153C133.027 93.589 133.068 93.4624 133.109 93.3357C133.612 91.7698 135.289 90.908 136.855 91.4109ZM12.145 91.4109C13.711 90.908 15.388 91.7698 15.8909 93.3357C15.9315 93.4624 15.9726 93.589 16.0141 93.7153C16.5272 95.2779 15.6764 96.9606 14.1138 97.4736C12.5512 97.9867 10.8685 97.1359 10.3554 95.5733C10.3099 95.4346 10.2648 95.2957 10.2202 95.1567C9.71733 93.5908 10.5791 91.9137 12.145 91.4109ZM128.571 109.845C129.904 110.808 130.203 112.67 129.24 114.003C129.154 114.121 129.069 114.239 128.982 114.356C128.01 115.683 126.147 115.97 124.82 114.998C123.494 114.026 123.206 112.163 124.178 110.836C124.257 110.729 124.335 110.621 124.413 110.514C125.376 109.181 127.238 108.881 128.571 109.845ZM20.4293 109.845C21.7622 108.881 23.6238 109.181 24.5872 110.514C24.6651 110.621 24.7433 110.729 24.8218 110.836C25.7939 112.163 25.5064 114.026 24.1798 114.998C22.8531 115.97 20.9896 115.683 20.0176 114.356C19.9315 114.239 19.8457 114.121 19.7604 114.003C18.7969 112.67 19.0964 110.808 20.4293 109.845ZM114.998 124.82C115.97 126.147 115.683 128.01 114.356 128.982C114.239 129.069 114.121 129.154 114.003 129.24C112.67 130.203 110.808 129.904 109.845 128.571C108.881 127.238 109.181 125.376 110.514 124.413C110.621 124.335 110.729 124.257 110.836 124.178C112.163 123.206 114.026 123.494 114.998 124.82ZM34.0019 124.82C34.974 123.494 36.8375 123.206 38.1641 124.178C38.2713 124.257 38.3787 124.335 38.4864 124.413C39.8193 125.376 40.1188 127.238 39.1553 128.571C38.1918 129.904 36.3302 130.203 34.9973 129.24C34.8792 129.154 34.7614 129.069 34.6439 128.982C33.3173 128.01 33.0298 126.147 34.0019 124.82ZM51.5264 134.886C52.0394 133.324 53.7221 132.473 55.2847 132.986C55.411 133.027 55.5376 133.068 55.6643 133.109C57.2302 133.612 58.092 135.289 57.5891 136.855C57.0863 138.421 55.4093 139.283 53.8433 138.78C53.7043 138.735 53.5654 138.69 53.4267 138.645C51.8641 138.131 51.0133 136.449 51.5264 134.886ZM97.4736 134.886C97.9867 136.449 97.1359 138.131 95.5733 138.645C95.4346 138.69 95.2957 138.735 95.1567 138.78C93.5908 139.283 91.9137 138.421 91.4109 136.855C90.908 135.289 91.7698 133.612 93.3357 133.109C93.4624 133.068 93.589 133.027 93.7153 132.986C95.2779 132.473 96.9606 133.324 97.4736 134.886ZM71.312 139.012C71.3172 137.368 72.6547 136.039 74.2994 136.044C74.3662 136.044 74.4331 136.044 74.5 136.044C74.541 136.044 74.582 136.044 74.623 136.044C74.6489 136.044 74.6748 136.044 74.7006 136.044C76.3453 136.039 77.6828 137.368 77.688 139.012C77.6933 140.657 76.3643 141.994 74.7196 142C74.6464 142 74.5732 142 74.5 142C74.4268 142 74.3536 142 74.2804 142C72.6357 141.994 71.3067 140.657 71.312 139.012Z" fill="#2E2E2E" fill-opacity="0.1"/>
<path d="M44.8454 108.16C44.4321 108.16 44.1121 108.047 43.8854 107.82C43.6721 107.58 43.5654 107.253 43.5654 106.84V95.2C43.5654 94.7733 43.6787 94.4533 43.9054 94.24C44.1321 94.0133 44.4521 93.9 44.8654 93.9H49.6854C51.2321 93.9 52.4254 94.2867 53.2654 95.06C54.1054 95.8333 54.5254 96.9133 54.5254 98.3C54.5254 99.6867 54.1054 100.773 53.2654 101.56C52.4254 102.333 51.2321 102.72 49.6854 102.72H46.1254V106.84C46.1254 107.253 46.0187 107.58 45.8054 107.82C45.5921 108.047 45.2721 108.16 44.8454 108.16ZM46.1254 100.7H49.2854C50.1921 100.7 50.8787 100.5 51.3454 100.1C51.8121 99.6867 52.0454 99.0867 52.0454 98.3C52.0454 97.5133 51.8121 96.92 51.3454 96.52C50.8787 96.12 50.1921 95.92 49.2854 95.92H46.1254V100.7ZM57.8923 108.16C57.4789 108.16 57.1589 108.047 56.9323 107.82C56.7189 107.58 56.6123 107.253 56.6123 106.84V95.06C56.6123 94.6333 56.7189 94.3067 56.9323 94.08C57.1589 93.8533 57.4789 93.74 57.8923 93.74C58.3056 93.74 58.6189 93.8533 58.8323 94.08C59.0589 94.3067 59.1723 94.6333 59.1723 95.06V99.78H66.4323V95.06C66.4323 94.6333 66.5389 94.3067 66.7523 94.08C66.9789 93.8533 67.2989 93.74 67.7123 93.74C68.1256 93.74 68.4389 93.8533 68.6523 94.08C68.8789 94.3067 68.9923 94.6333 68.9923 95.06V106.84C68.9923 107.253 68.8789 107.58 68.6523 107.82C68.4389 108.047 68.1256 108.16 67.7123 108.16C67.2989 108.16 66.9789 108.047 66.7523 107.82C66.5389 107.58 66.4323 107.253 66.4323 106.84V101.92H59.1723V106.84C59.1723 107.253 59.0656 107.58 58.8523 107.82C58.6389 108.047 58.3189 108.16 57.8923 108.16ZM72.221 108.16C71.901 108.16 71.641 108.087 71.441 107.94C71.2543 107.793 71.141 107.6 71.101 107.36C71.061 107.107 71.1077 106.827 71.241 106.52L76.521 94.82C76.6943 94.4333 76.901 94.16 77.141 94C77.3943 93.8267 77.681 93.74 78.001 93.74C78.3077 93.74 78.581 93.8267 78.821 94C79.0743 94.16 79.2877 94.4333 79.461 94.82L84.761 106.52C84.9077 106.827 84.961 107.107 84.921 107.36C84.881 107.613 84.7677 107.813 84.581 107.96C84.3943 108.093 84.1477 108.16 83.841 108.16C83.4677 108.16 83.1743 108.073 82.961 107.9C82.761 107.713 82.581 107.433 82.421 107.06L81.121 104.04L82.201 104.74H73.761L74.841 104.04L73.561 107.06C73.3877 107.447 73.2077 107.727 73.021 107.9C72.8343 108.073 72.5677 108.16 72.221 108.16ZM77.961 96.68L75.161 103.34L74.641 102.7H81.321L80.821 103.34L78.001 96.68H77.961ZM91.8238 108.2C91.2372 108.2 90.6505 108.153 90.0638 108.06C89.4772 107.98 88.9238 107.853 88.4038 107.68C87.8838 107.493 87.4172 107.267 87.0038 107C86.7638 106.84 86.5972 106.647 86.5038 106.42C86.4105 106.193 86.3772 105.973 86.4038 105.76C86.4438 105.533 86.5305 105.34 86.6638 105.18C86.8105 105.007 86.9905 104.9 87.2038 104.86C87.4172 104.82 87.6505 104.88 87.9038 105.04C88.4905 105.387 89.1105 105.64 89.7638 105.8C90.4172 105.96 91.1038 106.04 91.8238 106.04C92.8772 106.04 93.6438 105.867 94.1238 105.52C94.6038 105.16 94.8438 104.7 94.8438 104.14C94.8438 103.673 94.6705 103.307 94.3238 103.04C93.9905 102.773 93.4105 102.553 92.5838 102.38L90.3838 101.92C89.1172 101.653 88.1705 101.207 87.5438 100.58C86.9305 99.94 86.6238 99.1 86.6238 98.06C86.6238 97.4067 86.7572 96.8133 87.0238 96.28C87.2905 95.7467 87.6638 95.2867 88.1438 94.9C88.6372 94.5133 89.2172 94.22 89.8838 94.02C90.5638 93.8067 91.3105 93.7 92.1238 93.7C92.9238 93.7 93.6838 93.8 94.4038 94C95.1238 94.2 95.7705 94.4933 96.3438 94.88C96.5572 95.0267 96.6972 95.2067 96.7638 95.42C96.8438 95.6333 96.8638 95.8467 96.8238 96.06C96.7838 96.26 96.6905 96.4333 96.5438 96.58C96.3972 96.7267 96.2105 96.8133 95.9838 96.84C95.7705 96.8667 95.5238 96.8 95.2438 96.64C94.7505 96.36 94.2505 96.16 93.7438 96.04C93.2372 95.92 92.6905 95.86 92.1038 95.86C91.4905 95.86 90.9638 95.9467 90.5238 96.12C90.0838 96.2933 89.7438 96.54 89.5038 96.86C89.2772 97.1667 89.1638 97.5333 89.1638 97.96C89.1638 98.44 89.3238 98.8267 89.6438 99.12C89.9638 99.4 90.5105 99.62 91.2838 99.78L93.4638 100.24C94.7838 100.52 95.7638 100.96 96.4038 101.56C97.0572 102.16 97.3838 102.96 97.3838 103.96C97.3838 104.6 97.2505 105.18 96.9838 105.7C96.7305 106.22 96.3572 106.667 95.8638 107.04C95.3838 107.413 94.8038 107.7 94.1238 107.9C93.4438 108.1 92.6772 108.2 91.8238 108.2ZM100.941 108C100.501 108 100.161 107.887 99.921 107.66C99.6943 107.42 99.581 107.08 99.581 106.64V95.26C99.581 94.82 99.6943 94.4867 99.921 94.26C100.161 94.02 100.501 93.9 100.941 93.9H108.081C108.414 93.9 108.668 93.9867 108.841 94.16C109.028 94.3333 109.121 94.58 109.121 94.9C109.121 95.2333 109.028 95.4933 108.841 95.68C108.668 95.8533 108.414 95.94 108.081 95.94H102.041V99.82H107.641C107.988 99.82 108.248 99.9067 108.421 100.08C108.594 100.253 108.681 100.507 108.681 100.84C108.681 101.173 108.594 101.427 108.421 101.6C108.248 101.773 107.988 101.86 107.641 101.86H102.041V105.96H108.081C108.414 105.96 108.668 106.047 108.841 106.22C109.028 106.393 109.121 106.647 109.121 106.98C109.121 107.313 109.028 107.567 108.841 107.74C108.668 107.913 108.414 108 108.081 108H100.941Z" fill="#2E2E2E"/>
<g filter="url(#filter0_di_13_79)">
<path d="M60.0195 79.55C55.7529 79.55 52.4862 77.9667 50.2195 74.8C47.9862 71.6 46.8695 67.0833 46.8695 61.25C46.8695 57.35 47.3695 54.0667 48.3695 51.4C49.4029 48.7 50.8862 46.6667 52.8195 45.3C54.7862 43.9 57.1862 43.2 60.0195 43.2C64.3195 43.2 67.5862 44.75 69.8195 47.85C72.0529 50.9167 73.1695 55.3833 73.1695 61.25C73.1695 65.15 72.6529 68.4667 71.6195 71.2C70.6195 73.9 69.1529 75.9667 67.2195 77.4C65.2862 78.8333 62.8862 79.55 60.0195 79.55ZM60.0195 73.25C61.9529 73.25 63.3862 72.3 64.3195 70.4C65.2529 68.4667 65.7195 65.4167 65.7195 61.25C65.7195 57.0833 65.2529 54.0833 64.3195 52.25C63.3862 50.4167 61.9529 49.5 60.0195 49.5C58.0862 49.5 56.6529 50.4167 55.7195 52.25C54.7862 54.0833 54.3195 57.0833 54.3195 61.25C54.3195 65.4167 54.7862 68.4667 55.7195 70.4C56.6529 72.3 58.0862 73.25 60.0195 73.25ZM81.9 79C80.6667 79 79.75 78.7167 79.15 78.15C78.5833 77.55 78.3 76.6833 78.3 75.55C78.3 74.8167 78.4833 74.1333 78.85 73.5C79.2167 72.8667 79.7167 72.2167 80.35 71.55L89.75 61.65C91.15 60.15 92.15 58.8167 92.75 57.65C93.3833 56.4833 93.7 55.3167 93.7 54.15C93.7 52.6833 93.2167 51.5667 92.25 50.8C91.3167 50.0333 89.95 49.65 88.15 49.65C87.1833 49.65 86.1833 49.8 85.15 50.1C84.15 50.3667 83.1 50.8167 82 51.45C81.2667 51.85 80.5833 52 79.95 51.9C79.35 51.7667 78.8333 51.4833 78.4 51.05C77.9667 50.5833 77.6833 50.0333 77.55 49.4C77.4167 48.7667 77.4833 48.1333 77.75 47.5C78.0167 46.8667 78.5167 46.3333 79.25 45.9C80.7167 45 82.3167 44.3333 84.05 43.9C85.7833 43.4333 87.5 43.2 89.2 43.2C91.8333 43.2 94.05 43.6 95.85 44.4C97.65 45.1667 99.0167 46.3 99.95 47.8C100.883 49.3 101.35 51.1333 101.35 53.3C101.35 54.7 101.133 56.0667 100.7 57.4C100.267 58.7333 99.5833 60.0833 98.65 61.45C97.75 62.7833 96.55 64.2167 95.05 65.75L86.3 74.65V72.65H99.85C100.917 72.65 101.717 72.9167 102.25 73.45C102.817 73.9833 103.1 74.7667 103.1 75.8C103.1 76.8333 102.817 77.6333 102.25 78.2C101.717 78.7333 100.917 79 99.85 79H81.9Z" fill="#F43E40"/>
</g>
<defs>
<filter id="filter0_di_13_79" x="44.8696" y="43.2002" width="58.2305" height="36.3496" filterUnits="userSpaceOnUse" color-interpolation-filters="sRGB">
<feFlood flood-opacity="0" result="BackgroundImageFix"/>
<feColorMatrix in="SourceAlpha" type="matrix" values="0 0 0 0 0 0 0 0 0 0 0 0 0 0 0 0 0 0 127 0" result="hardAlpha"/>
<feOffset dx="-2"/>
<feComposite in2="hardAlpha" operator="out"/>
<feColorMatrix type="matrix" values="0 0 0 0 1 0 0 0 0 1 0 0 0 0 1 0 0 0 0.25 0"/>
<feBlend mode="normal" in2="BackgroundImageFix" result="effect1_dropShadow_13_79"/>
<feBlend mode="normal" in="SourceGraphic" in2="effect1_dropShadow_13_79" result="shape"/>
<feColorMatrix in="SourceAlpha" type="matrix" values="0 0 0 0 0 0 0 0 0 0 0 0 0 0 0 0 0 0 127 0" result="hardAlpha"/>
<feOffset dx="1"/>
<feComposite in2="hardAlpha" operator="arithmetic" k2="-1" k3="1"/>
<feColorMatrix type="matrix" values="0 0 0 0 0 0 0 0 0 0 0 0 0 0 0 0 0 0 0.27 0"/>
<feBlend mode="normal" in2="shape" result="effect2_innerShadow_13_79"/>
</filter>
</defs>
</svg>
