<svg width="28" height="51" viewBox="0 0 28 51" fill="none" xmlns="http://www.w3.org/2000/svg">
<path d="M2.74985 51C2.42083 51.0019 2.09468 50.9388 1.79008 50.8144C1.48549 50.69 1.20845 50.5067 0.974847 50.275C0.740526 50.0426 0.554541 49.7661 0.427619 49.4614C0.300698 49.1568 0.235352 48.83 0.235352 48.5C0.235352 48.1699 0.300698 47.8432 0.427619 47.5385C0.554541 47.2339 0.740526 46.9574 0.974847 46.725L21.7248 26L0.974847 5.27498C0.741751 5.04188 0.556849 4.76515 0.430699 4.4606C0.304548 4.15604 0.239618 3.82962 0.239618 3.49998C0.239618 2.83422 0.504088 2.19573 0.974847 1.72498C1.44561 1.25422 2.08409 0.989746 2.74985 0.989746C3.4156 0.989746 4.05409 1.25422 4.52485 1.72498L27.0248 24.225C27.2592 24.4574 27.4452 24.7339 27.5721 25.0385C27.699 25.3432 27.7643 25.6699 27.7643 26C27.7643 26.33 27.699 26.6568 27.5721 26.9614C27.4452 27.2661 27.2592 27.5426 27.0248 27.775L4.52485 50.275C4.29125 50.5067 4.01421 50.69 3.70961 50.8144C3.40502 50.9388 3.07886 51.0019 2.74985 51Z" fill="#EF6400"/>
</svg>
