<svg width="18" height="18" viewBox="0 0 18 18" fill="none" xmlns="http://www.w3.org/2000/svg">
<g clip-path="url(#clip0_7_262)">
<path d="M17.0397 0.713135L10.0568 5.89944L11.3481 2.83959L17.0397 0.713135Z" fill="#E2761B"/>
<path fill-rule="evenodd" clip-rule="evenodd" d="M17.0706 0.696307C17.0789 0.711661 17.0747 0.730822 17.0607 0.741244L10.0777 5.92755C10.065 5.93699 10.0476 5.93675 10.0352 5.92698C10.0227 5.91721 10.0183 5.90032 10.0245 5.88574L11.3158 2.82589C11.3196 2.81699 11.3268 2.81004 11.3359 2.80666L17.0275 0.680203C17.0438 0.674085 17.0622 0.680952 17.0706 0.696307ZM11.3746 2.86711L10.1392 5.79452L16.8198 0.832694L11.3746 2.86711Z" fill="#E2761B"/>
<path d="M0.919386 0.713135L7.84616 5.94857L6.61801 2.83959L0.919386 0.713135ZM14.5273 12.735L12.6675 15.5843L16.6467 16.6791L17.7907 12.7981L14.5273 12.735ZM0.182495 12.7981L1.31941 16.6791L5.29862 15.5843L3.43885 12.735L0.182495 12.7981Z" fill="#E4761B"/>
<path fill-rule="evenodd" clip-rule="evenodd" d="M0.888563 0.696183C0.896948 0.680913 0.915266 0.674108 0.931588 0.680198L6.63021 2.80665C6.63952 2.81013 6.64693 2.81739 6.65058 2.82664L7.87873 5.93562C7.88451 5.95024 7.87985 5.96693 7.86733 5.97645C7.85481 5.98596 7.83748 5.98599 7.82494 5.9765L0.898162 0.741067C0.884264 0.730563 0.880177 0.711453 0.888563 0.696183ZM1.13214 0.82994L7.76753 5.84515L6.59105 2.86695L1.13214 0.82994ZM3.4381 12.6998C3.4502 12.6996 3.46156 12.7056 3.46817 12.7157L5.32794 15.5651C5.33407 15.5744 5.33534 15.5862 5.33137 15.5967C5.3274 15.6071 5.31867 15.6151 5.30787 15.6181L1.32865 16.7129C1.31019 16.718 1.29106 16.7073 1.28567 16.6889L0.148754 12.808C0.145681 12.7975 0.147673 12.7861 0.154142 12.7773C0.160611 12.7685 0.170818 12.7632 0.181749 12.763L3.4381 12.6998ZM14.4979 12.7157C14.5045 12.7056 14.5158 12.6996 14.5279 12.6998L17.7913 12.763C17.8022 12.7632 17.8124 12.7685 17.8189 12.7773C17.8254 12.7862 17.8274 12.7975 17.8243 12.808L16.6803 16.689C16.6749 16.7073 16.6558 16.718 16.6374 16.7129L12.6582 15.6181C12.6474 15.6151 12.6386 15.6071 12.6347 15.5967C12.6307 15.5862 12.632 15.5744 12.6381 15.5651L14.4979 12.7157ZM0.229011 12.8323L1.34332 16.6361L5.2429 15.5632L3.42003 12.7704L0.229011 12.8323ZM14.546 12.7704L12.7231 15.5632L16.6228 16.6361L17.744 12.8323L14.546 12.7704Z" fill="#E4761B"/>
<path d="M5.07406 7.92054L3.96521 9.59784L7.91635 9.77329L7.77599 5.5274L5.07406 7.92054ZM12.8851 7.92054L10.1481 5.47827L10.0568 9.77329L14.001 9.59784L12.8851 7.92054ZM5.29863 15.5842L7.67072 14.4262L5.62146 12.8261L5.29863 15.5842ZM10.2884 14.4262L12.6675 15.5842L12.3377 12.8261L10.2884 14.4262Z" fill="#E4761B"/>
<path fill-rule="evenodd" clip-rule="evenodd" d="M10.134 5.44615C10.1466 5.44069 10.1612 5.44303 10.1714 5.45215L12.9084 7.89441C12.9106 7.8964 12.9126 7.89867 12.9142 7.90116L14.0301 9.57846C14.0371 9.589 14.0379 9.60249 14.0322 9.61378C14.0265 9.62507 14.0151 9.63239 14.0025 9.63295L10.0583 9.80841C10.0486 9.80884 10.0392 9.80523 10.0323 9.79845C10.0253 9.79166 10.0215 9.78231 10.0217 9.7726L10.1129 5.47758C10.1132 5.46389 10.1214 5.45162 10.134 5.44615ZM10.1815 5.55522L10.0927 9.73663L13.9373 9.56561L12.8583 7.94378L10.1815 5.55522ZM7.7898 5.49522C7.80228 5.5006 7.81054 5.5127 7.81099 5.52629L7.95135 9.77219C7.95168 9.78196 7.94791 9.79143 7.94095 9.7983C7.934 9.80518 7.92449 9.80884 7.91473 9.80841L3.96359 9.63295C3.95096 9.63239 3.93961 9.62509 3.93388 9.61383C3.92814 9.60257 3.9289 9.58909 3.93587 9.57855L5.04472 7.90124C5.04641 7.89869 5.04843 7.89636 5.05072 7.89433L7.75266 5.50119C7.76284 5.49217 7.77731 5.48985 7.7898 5.49522ZM5.10071 7.9438L4.02857 9.56559L7.87996 9.73661L7.74332 5.60321L5.10071 7.9438ZM5.60787 12.7938C5.61957 12.7889 5.633 12.7907 5.64299 12.7985L7.69225 14.3986C7.70179 14.4061 7.70681 14.4179 7.70555 14.4299C7.70429 14.442 7.69692 14.4525 7.68605 14.4578L5.31396 15.6158C5.30243 15.6214 5.28874 15.6203 5.27827 15.6129C5.26781 15.6055 5.26222 15.5929 5.26371 15.5802L5.58654 12.8221C5.58802 12.8095 5.59617 12.7987 5.60787 12.7938ZM12.3511 12.7938C12.3628 12.7987 12.371 12.8094 12.3725 12.822L12.7023 15.5801C12.7038 15.5928 12.6983 15.6054 12.6878 15.6129C12.6774 15.6203 12.6637 15.6214 12.6521 15.6158L10.273 14.4578C10.2621 14.4525 10.2547 14.442 10.2535 14.43C10.2522 14.4179 10.2572 14.4061 10.2668 14.3986L12.316 12.7985C12.326 12.7907 12.3394 12.7889 12.3511 12.7938ZM5.64899 12.8923L5.34088 15.5246L7.6048 14.4194L5.64899 12.8923ZM10.3543 14.4193L12.625 15.5246L12.3102 12.8921L10.3543 14.4193Z" fill="#E4761B"/>
<path d="M12.6675 15.5842L10.2884 14.4263L10.4779 15.9773L10.4568 16.6299L12.6675 15.5842ZM5.29858 15.5842L7.50926 16.6299L7.49522 15.9773L7.67067 14.4263L5.29858 15.5842Z" fill="#D7C1B3"/>
<path fill-rule="evenodd" clip-rule="evenodd" d="M10.2681 14.3976C10.2785 14.3902 10.2922 14.389 10.3038 14.3947L12.6829 15.5526C12.695 15.5585 12.7027 15.5709 12.7026 15.5844C12.7026 15.5979 12.6948 15.6101 12.6826 15.6159L10.4719 16.6616C10.4608 16.6668 10.4479 16.6659 10.4376 16.6592C10.4274 16.6525 10.4214 16.6409 10.4218 16.6287L10.4428 15.9788L10.2536 14.4305C10.2521 14.4177 10.2576 14.4051 10.2681 14.3976ZM7.69096 14.3975C7.70143 14.4049 7.70703 14.4174 7.70559 14.4301L7.53041 15.9788L7.54439 16.6291C7.54466 16.6413 7.53861 16.6527 7.5284 16.6593C7.5182 16.6659 7.5053 16.6668 7.49431 16.6616L5.28364 15.6159C5.27144 15.6101 5.26363 15.5979 5.26355 15.5844C5.26347 15.5709 5.27112 15.5586 5.28325 15.5526L7.65533 14.3947C7.66684 14.3891 7.6805 14.3902 7.69096 14.3975ZM10.3311 14.486L10.5128 15.9729C10.513 15.9747 10.5131 15.9765 10.513 15.9783L10.4938 16.5736L12.5864 15.5837L10.3311 14.486ZM5.37965 15.5837L7.47301 16.5739L7.4602 15.9779C7.46016 15.9764 7.46023 15.9748 7.46041 15.9732L7.62867 14.4858L5.37965 15.5837Z" fill="#D7C1B3"/>
<path d="M7.54439 11.8016L5.56531 11.2191L6.96189 10.5804L7.54439 11.8016ZM10.4148 11.8016L10.9972 10.5804L12.4008 11.2191L10.4148 11.8016Z" fill="#233447"/>
<path fill-rule="evenodd" clip-rule="evenodd" d="M6.94723 10.5485C6.96466 10.5405 6.98525 10.548 6.9935 10.5653L7.57599 11.7864C7.58195 11.7989 7.58001 11.8137 7.57102 11.8243C7.56204 11.8348 7.5477 11.8391 7.53441 11.8352L5.55533 11.2527C5.54129 11.2486 5.53128 11.2361 5.53024 11.2215C5.5292 11.2069 5.53733 11.1932 5.55065 11.1871L6.94723 10.5485ZM10.9655 10.5653C10.9737 10.548 10.9943 10.5405 11.0117 10.5484L12.4153 11.1871C12.4287 11.1932 12.4368 11.2069 12.4358 11.2215C12.4347 11.2361 12.4247 11.2486 12.4107 11.2527L10.4246 11.8352C10.4113 11.8391 10.3969 11.8348 10.388 11.8243C10.379 11.8137 10.3771 11.7989 10.383 11.7864L10.9655 10.5653ZM11.014 10.6266L10.4802 11.7457L12.3004 11.2119L11.014 10.6266ZM5.66524 11.2119L7.47879 11.7457L6.94502 10.6267L5.66524 11.2119Z" fill="#233447"/>
<path d="M5.29862 15.5843L5.63548 12.735L3.43884 12.7981L5.29862 15.5843ZM12.3307 12.735L12.6675 15.5843L14.5273 12.7981L12.3307 12.735ZM14.0009 9.5979L10.0568 9.77335L10.4218 11.8016L11.0043 10.5804L12.4079 11.2191L14.0009 9.5979ZM5.5653 11.2191L6.9689 10.5804L7.54438 11.8016L7.91633 9.77335L3.96519 9.5979L5.5653 11.2191Z" fill="#CD6116"/>
<path fill-rule="evenodd" clip-rule="evenodd" d="M3.93306 9.58359C3.93892 9.57039 3.95226 9.56214 3.96668 9.56278L7.91782 9.73823C7.92796 9.73868 7.9374 9.74349 7.94372 9.75142C7.95003 9.75936 7.95261 9.76964 7.95078 9.77961L7.57883 11.8078C7.57608 11.8228 7.56396 11.8343 7.54884 11.8363C7.53373 11.8383 7.51907 11.8302 7.51257 11.8164L6.95185 10.6266L5.57977 11.2509C5.56637 11.257 5.5506 11.2541 5.54026 11.2436L3.94015 9.62248C3.93001 9.61221 3.9272 9.59678 3.93306 9.58359ZM14.0329 9.58355C14.0388 9.59672 14.036 9.61214 14.0259 9.62243L12.4328 11.2436C12.4225 11.2541 12.4067 11.257 12.3933 11.2509L11.021 10.6266L10.4534 11.8166C10.4468 11.8303 10.4321 11.8383 10.417 11.8363C10.4019 11.8342 10.3899 11.8227 10.3872 11.8077L10.0222 9.7795C10.0204 9.76954 10.023 9.75929 10.0293 9.75138C10.0357 9.74347 10.0451 9.73868 10.0552 9.73823L13.9993 9.56278C14.0137 9.56214 14.0271 9.57038 14.0329 9.58355ZM4.05295 9.63686L5.573 11.1769L6.9543 10.5484C6.97178 10.5405 6.99239 10.548 7.00058 10.5654L7.5295 11.6877L7.87449 9.80655L4.05295 9.63686ZM10.0984 9.80656L10.4369 11.688L10.9725 10.5652C10.9808 10.548 11.0013 10.5405 11.0187 10.5484L12.4 11.1769L13.9133 9.63685L10.0984 9.80656ZM5.6613 12.7112C5.66819 12.7187 5.67146 12.7289 5.67026 12.739L5.3334 15.5883C5.33167 15.6029 5.32103 15.6149 5.30673 15.6183C5.29244 15.6217 5.27752 15.6159 5.26936 15.6037L3.40959 12.8175C3.4025 12.8069 3.40174 12.7933 3.4076 12.7819C3.41346 12.7706 3.42501 12.7633 3.43777 12.763L5.6344 12.6998C5.6446 12.6995 5.65442 12.7037 5.6613 12.7112ZM12.3047 12.7112C12.3116 12.7037 12.3214 12.6995 12.3316 12.6998L14.5282 12.763C14.541 12.7633 14.5526 12.7706 14.5584 12.7819C14.5643 12.7933 14.5635 12.8069 14.5564 12.8175L12.6966 15.6037C12.6885 15.6159 12.6736 15.6217 12.6593 15.6183C12.645 15.6149 12.6343 15.6029 12.6326 15.5883L12.2957 12.739C12.2945 12.7289 12.2978 12.7187 12.3047 12.7112ZM3.50316 12.8313L5.27488 15.4855L5.59579 12.7711L3.50316 12.8313ZM12.3702 12.7711L12.6911 15.4855L14.4628 12.8313L12.3702 12.7711Z" fill="#CD6116"/>
<path d="M3.96521 9.5979L5.62146 12.8262L5.56532 11.2191L3.96521 9.5979ZM12.4079 11.2191L12.3377 12.8262L14.001 9.5979L12.4079 11.2191ZM7.91635 9.77335L7.54439 11.8016L8.00758 14.1947L8.11285 11.0436L7.91635 9.77335ZM10.0568 9.77335L9.86736 11.0366L9.95157 14.1947L10.4218 11.8016L10.0568 9.77335Z" fill="#E4751F"/>
<path fill-rule="evenodd" clip-rule="evenodd" d="M14.0215 9.5694C14.0355 9.57957 14.04 9.59848 14.0321 9.61391L12.3688 12.8422C12.3613 12.8568 12.3445 12.8643 12.3286 12.86C12.3127 12.8558 12.3019 12.8411 12.3026 12.8246L12.3728 11.2175C12.3731 11.2088 12.3767 11.2006 12.3828 11.1944L13.9759 9.57324C13.988 9.56087 14.0074 9.55924 14.0215 9.5694ZM3.94457 9.56941C3.95861 9.55925 3.97795 9.56086 3.99012 9.57318L5.59023 11.1943C5.59641 11.2006 5.60001 11.209 5.60032 11.2178L5.65647 12.8249C5.65704 12.8413 5.64614 12.8559 5.63023 12.8601C5.61432 12.8642 5.59768 12.8568 5.59018 12.8421L3.93393 9.61385C3.92602 9.59844 3.93054 9.57956 3.94457 9.56941ZM4.10064 9.78507L5.58084 12.6702L5.53066 11.2339L4.10064 9.78507ZM12.4423 11.234L12.3797 12.6679L13.8637 9.78752L12.4423 11.234ZM7.91678 9.7382C7.9339 9.73844 7.94835 9.751 7.95096 9.76792L8.14747 11.0382C8.1478 11.0403 8.14793 11.0425 8.14786 11.0447L8.04259 14.1958C8.04199 14.2137 8.02809 14.2282 8.01028 14.2296C7.99248 14.231 7.97646 14.2188 7.97307 14.2013L7.50988 11.8082C7.50905 11.8039 7.50903 11.7995 7.50982 11.7952L7.88177 9.76696C7.88486 9.75011 7.89965 9.73796 7.91678 9.7382ZM10.0563 9.7382C10.0734 9.73795 10.0883 9.75017 10.0913 9.76707L10.4563 11.7953C10.457 11.7996 10.457 11.804 10.4561 11.8083L9.98594 14.2014C9.98249 14.2189 9.9664 14.2311 9.94858 14.2296C9.93075 14.2281 9.91691 14.2134 9.91643 14.1956L9.83221 11.0375C9.83216 11.0354 9.83229 11.0334 9.83259 11.0313L10.0221 9.76808C10.0246 9.75109 10.0391 9.73845 10.0563 9.7382ZM7.58004 11.8013L7.98284 13.8825L8.07761 11.0457L7.91335 9.98383L7.58004 11.8013ZM10.0599 9.98889L9.90245 11.0387L9.97814 13.8771L10.386 11.8012L10.0599 9.98889Z" fill="#E4751F"/>
<path d="M10.4218 11.8015L9.95156 14.1946L10.2884 14.4262L12.3377 12.8261L12.4079 11.219L10.4218 11.8015ZM5.56531 11.219L5.62145 12.8261L7.67071 14.4262L8.00757 14.1946L7.54439 11.8015L5.56531 11.219Z" fill="#F6851B"/>
<path fill-rule="evenodd" clip-rule="evenodd" d="M12.4294 11.1914C12.4384 11.1984 12.4434 11.2093 12.4429 11.2206L12.3727 12.8277C12.3722 12.838 12.3673 12.8475 12.3592 12.8538L10.31 14.4539C10.2979 14.4634 10.2811 14.4639 10.2685 14.4552L9.93162 14.2236C9.92009 14.2157 9.91437 14.2017 9.91707 14.1879L10.3873 11.7948C10.3898 11.7819 10.3993 11.7716 10.4118 11.7679L12.3979 11.1854C12.4088 11.1822 12.4205 11.1844 12.4294 11.1914ZM5.54373 11.1913C5.55264 11.1844 5.56433 11.1822 5.57515 11.1854L7.55423 11.7679C7.56681 11.7716 7.57628 11.782 7.57877 11.7949L8.04196 14.188C8.04461 14.2017 8.03889 14.2157 8.02739 14.2236L7.69052 14.4552C7.67791 14.4639 7.66112 14.4634 7.64905 14.4539L5.59979 12.8538C5.59161 12.8474 5.58668 12.8378 5.58632 12.8274L5.53017 11.2203C5.52978 11.209 5.53482 11.1982 5.54373 11.1913ZM10.452 11.8292L9.99037 14.1788L10.287 14.3828L12.3033 12.8085L12.3706 11.2665L10.452 11.8292ZM5.60201 11.2665L7.51393 11.8292L7.96869 14.1788L7.67196 14.3828L5.65588 12.8086L5.60201 11.2665Z" fill="#F6851B"/>
<path d="M10.4568 16.6299L10.4779 15.9772L10.3024 15.8228H7.65663L7.49522 15.9772L7.50926 16.6299L5.29858 15.5842L6.07057 16.2158L7.63558 17.3036H10.3235L11.8955 16.2158L12.6675 15.5842L10.4568 16.6299Z" fill="#C0AD9E"/>
<path fill-rule="evenodd" clip-rule="evenodd" d="M5.26898 15.5655C5.27846 15.5506 5.29762 15.545 5.31365 15.5526L7.47301 16.574L7.4602 15.9781C7.45999 15.9682 7.46391 15.9587 7.47102 15.9519L7.63244 15.7975C7.63897 15.7913 7.64766 15.7878 7.65669 15.7878H10.3025C10.311 15.7878 10.3193 15.7909 10.3257 15.7966L10.5011 15.951C10.509 15.9579 10.5133 15.968 10.513 15.9784L10.4938 16.5737L12.6525 15.5526C12.6686 15.545 12.6877 15.5506 12.6972 15.5655C12.7067 15.5805 12.7035 15.6002 12.6898 15.6114L11.9178 16.2431C11.9171 16.2437 11.9163 16.2442 11.9155 16.2448L10.3435 17.3326C10.3376 17.3366 10.3307 17.3388 10.3235 17.3388H7.63564C7.62848 17.3388 7.62149 17.3366 7.61561 17.3325L6.0506 16.2447C6.04984 16.2442 6.04911 16.2436 6.0484 16.2431L5.27642 15.6114C5.2627 15.6002 5.25951 15.5805 5.26898 15.5655ZM5.54246 15.7384L6.09178 16.1879L7.64664 17.2686H10.3126L11.8744 16.1879L12.4237 15.7384L10.4719 16.6617C10.4608 16.6669 10.4479 16.666 10.4376 16.6593C10.4274 16.6526 10.4214 16.6411 10.4218 16.6288L10.4423 15.9927L10.2892 15.858H7.67077L7.53069 15.992L7.5444 16.6292C7.54466 16.6414 7.53861 16.6528 7.5284 16.6594C7.5182 16.666 7.5053 16.6669 7.49431 16.6617L5.54246 15.7384Z" fill="#C0AD9E"/>
<path d="M10.2884 14.4263L9.95154 14.1947H8.00755L7.67069 14.4263L7.49524 15.9773L7.65665 15.8229H10.3024L10.4779 15.9773L10.2884 14.4263Z" fill="#161616"/>
<path fill-rule="evenodd" clip-rule="evenodd" d="M7.98773 14.1657C7.99358 14.1617 8.00051 14.1595 8.00761 14.1595H9.9516C9.9587 14.1595 9.96563 14.1617 9.97148 14.1657L10.3083 14.3973C10.3166 14.403 10.3221 14.412 10.3233 14.422L10.5128 15.973C10.5145 15.9874 10.5072 16.0015 10.4943 16.0082C10.4814 16.015 10.4657 16.0132 10.4548 16.0036L10.2893 15.8579H7.67079L7.51955 16.0026C7.50888 16.0128 7.49295 16.0152 7.47971 16.0087C7.46648 16.0021 7.45877 15.9879 7.46043 15.9733L7.63588 14.4223C7.63702 14.4122 7.64249 14.4031 7.65087 14.3973L7.98773 14.1657ZM8.01851 14.2297L7.70381 14.4461L7.54105 15.8849L7.63245 15.7975C7.63898 15.7912 7.64767 15.7877 7.65671 15.7877H10.3025C10.311 15.7877 10.3193 15.7908 10.3257 15.7965L10.4319 15.89L10.2555 14.4462L9.9407 14.2297H8.01851Z" fill="#161616"/>
<path d="M17.3345 6.23631L17.9311 3.37296L17.0398 0.713135L10.2885 5.72399L12.8851 7.92063L16.5555 8.99439L17.3696 8.04695L17.0187 7.79431L17.5802 7.28199L17.1451 6.94513L17.7065 6.51703L17.3345 6.23631ZM0.0351562 3.37296L0.631687 6.23631L0.252715 6.51703L0.814155 6.94513L0.386057 7.28199L0.947497 7.79431L0.596597 8.04695L1.40367 8.99439L5.07409 7.92063L7.67075 5.72399L0.919426 0.713135L0.0351562 3.37296Z" fill="#763D16"/>
<path fill-rule="evenodd" clip-rule="evenodd" d="M0.9088 0.679605C0.919531 0.676219 0.931236 0.678185 0.940272 0.684892L7.6916 5.69575C7.7002 5.70214 7.70542 5.7121 7.70576 5.72281C7.7061 5.73352 7.70153 5.7438 7.69335 5.75072L5.09668 7.94735C5.09294 7.95052 5.08858 7.95287 5.08387 7.95424L1.41345 9.028C1.40018 9.03188 1.38586 9.0276 1.37689 9.01708L0.569819 8.06964C0.563462 8.06218 0.560516 8.0524 0.561696 8.04267C0.562875 8.03294 0.568072 8.02414 0.576027 8.01841L0.891846 7.79102L0.362338 7.30785C0.354722 7.3009 0.350548 7.29095 0.350924 7.28065C0.3513 7.27034 0.356189 7.26073 0.364291 7.25435L0.75679 6.9455L0.231372 6.54487C0.222599 6.53818 0.217483 6.52775 0.217559 6.51672C0.217636 6.50569 0.222897 6.49533 0.231762 6.48877L0.592688 6.22141L0.000737582 3.38005C-0.00052538 3.37399 -0.000161617 3.3677 0.00179193 3.36182L0.886061 0.701999C0.889611 0.69132 0.898068 0.682992 0.9088 0.679605ZM17.0502 0.679593C17.061 0.682962 17.0694 0.691263 17.073 0.70192L17.9643 3.36175C17.9663 3.36764 17.9666 3.37396 17.9654 3.38005L17.3734 6.22163L17.7276 6.48895C17.7363 6.49557 17.7415 6.5059 17.7415 6.51688C17.7416 6.52785 17.7364 6.53821 17.7277 6.54487L17.2026 6.94527L17.6016 7.25418C17.6098 7.26052 17.6148 7.27016 17.6152 7.28051C17.6156 7.29086 17.6114 7.30086 17.6038 7.30785L17.0743 7.79102L17.3901 8.01841C17.3981 8.02416 17.4033 8.03298 17.4044 8.04274C17.4056 8.0525 17.4026 8.0623 17.3962 8.06976L16.5821 9.01719C16.5731 9.02764 16.5589 9.03187 16.5456 9.028L12.8752 7.95424C12.8705 7.95287 12.8661 7.95052 12.8624 7.94735L10.2657 5.75072C10.2576 5.7438 10.253 5.73352 10.2533 5.72281C10.2537 5.7121 10.2589 5.70214 10.2675 5.69575L17.0188 0.684892C17.0278 0.678194 17.0395 0.676224 17.0502 0.679593ZM10.3449 5.72572L12.9021 7.88897L16.5436 8.95429L17.318 8.05302L16.9982 7.82272C16.9896 7.81654 16.9842 7.80682 16.9836 7.79627C16.983 7.78571 16.9872 7.77545 16.995 7.76832L17.5256 7.28413L17.1235 6.97281C17.1149 6.96613 17.1099 6.95583 17.1099 6.94493C17.1099 6.93403 17.1151 6.92377 17.1237 6.91716L17.6484 6.51711L17.3133 6.26425C17.3025 6.25607 17.2974 6.24238 17.3001 6.22909L17.8947 3.37504L17.0218 0.770061L10.3449 5.72572ZM0.937367 0.770133L0.0713707 3.37499L0.665973 6.22909C0.668765 6.24249 0.663508 6.25629 0.652507 6.26444L0.311052 6.51737L0.835366 6.91716C0.843996 6.92374 0.849096 6.93394 0.849178 6.94479C0.849261 6.95565 0.844317 6.96593 0.835789 6.97264L0.440219 7.28391L0.971084 7.76832C0.978893 7.77545 0.983074 7.78571 0.982463 7.79627C0.981852 7.80682 0.976514 7.81654 0.967934 7.82272L0.647933 8.05312L1.41557 8.95426L5.05703 7.88897L7.61423 5.72573L0.937367 0.770133Z" fill="#763D16"/>
<path d="M16.5555 8.99439L12.8851 7.92064L14.001 9.59794L12.3377 12.8262L14.5273 12.7982H17.7907L16.5555 8.99439ZM5.07405 7.92064L1.40363 8.99439L0.182495 12.7982H3.43885L5.62145 12.8262L3.9652 9.59794L5.07405 7.92064ZM10.0568 9.77339L10.2884 5.724L11.3552 2.8396H6.61801L7.67071 5.724L7.91634 9.77339L8.00056 11.0507L8.00757 14.1947H9.95156L9.9656 11.0507L10.0568 9.77339Z" fill="#F6851B"/>
<path fill-rule="evenodd" clip-rule="evenodd" d="M6.58919 2.81942C6.59576 2.81003 6.60649 2.80444 6.61794 2.80444H11.3551C11.3666 2.80444 11.3773 2.81006 11.3839 2.81948C11.3905 2.8289 11.392 2.84094 11.388 2.85171L10.3231 5.73118L10.0918 9.77533L10.0918 9.77583L10.0006 11.0519L9.98659 14.1948C9.9865 14.2141 9.97082 14.2298 9.9515 14.2298H8.00751C7.98816 14.2298 7.97246 14.2141 7.97242 14.1948L7.9654 11.0518L7.88126 9.77564L7.88125 9.77545L7.63593 5.73116L6.58498 2.85156C6.58105 2.8408 6.58262 2.8288 6.58919 2.81942ZM6.6681 2.87462L7.70361 5.7119C7.70477 5.71509 7.70547 5.71843 7.70567 5.72181L7.95129 9.77102L7.9513 9.7712L8.03551 11.0483C8.03555 11.049 8.03558 11.0498 8.03558 11.0505L8.04252 14.1596H9.91656L9.93044 11.0504C9.93045 11.0497 9.93048 11.0489 9.93053 11.0481L10.0217 9.77132L10.0218 9.77083L10.2533 5.72193C10.2535 5.71846 10.2542 5.71503 10.2554 5.71176L11.3047 2.87462H6.6681ZM5.10222 7.89974C5.11096 7.91159 5.11137 7.92764 5.10325 7.93992L4.00572 9.60011L5.65261 12.8101C5.65823 12.8211 5.6577 12.8342 5.65121 12.8446C5.64473 12.8551 5.63324 12.8614 5.62093 12.8612L3.43879 12.8332H0.182429C0.171218 12.8332 0.160683 12.8278 0.154077 12.8188C0.147472 12.8097 0.145592 12.798 0.149019 12.7874L1.37015 8.9836C1.37371 8.97252 1.38254 8.96392 1.39371 8.96065L5.06413 7.88689C5.07826 7.88276 5.09348 7.88789 5.10222 7.89974ZM12.8568 7.89978C12.8655 7.8879 12.8807 7.88275 12.8949 7.88689L16.5653 8.96065C16.5764 8.96391 16.5852 8.97246 16.5888 8.98349L17.824 12.7873C17.8275 12.7979 17.8256 12.8096 17.819 12.8187C17.8124 12.8278 17.8018 12.8332 17.7906 12.8332H14.5272L12.3381 12.8612C12.3258 12.8614 12.3143 12.8551 12.3078 12.8446C12.3013 12.8341 12.3008 12.821 12.3064 12.8101L13.9602 9.60014L12.8558 7.94001C12.8476 7.92773 12.848 7.91166 12.8568 7.89978ZM1.43128 9.02278L0.230548 12.763H3.43924L5.56356 12.7903L3.93392 9.61389C3.92813 9.60262 3.92887 9.5891 3.93586 9.57853L4.99187 7.98115L1.43128 9.02278ZM12.9676 7.98128L14.0301 9.57844C14.0372 9.58904 14.0379 9.60263 14.0321 9.61395L12.3956 12.7903L14.5268 12.763L14.5272 12.763L17.7423 12.763L16.5278 9.0228L12.9676 7.98128Z" fill="#F6851B"/>
</g>
<defs>
<clipPath id="clip0_7_262">
<rect width="18" height="18" fill="white"/>
</clipPath>
</defs>
</svg>
