<svg width="40" height="40" viewBox="0 0 40 40" fill="none" xmlns="http://www.w3.org/2000/svg">
<g clip-path="url(#clip0_45_399)">
<path fill-rule="evenodd" clip-rule="evenodd" d="M15.87 25.2249L15.8687 13.9064L26.6763 19.5852L15.87 25.2249ZM39.6 11.9451C39.6 11.9451 39.2087 9.16932 38.01 7.94696C36.4887 6.3419 34.7837 6.33434 34.0025 6.24118C28.405 5.83331 20.0087 5.83331 20.0087 5.83331H19.9913C19.9913 5.83331 11.595 5.83331 5.99751 6.24118C5.21501 6.33434 3.51125 6.3419 1.98875 7.94696C0.790004 9.16932 0.399996 11.9451 0.399996 11.9451C0.399996 11.9451 0 15.2056 0 18.4648V21.5213C0 24.7818 0.399996 28.041 0.399996 28.041C0.399996 28.041 0.790004 30.8168 1.98875 32.0392C3.51125 33.6442 5.50999 33.5939 6.39999 33.7613C9.59999 34.071 20 34.1666 20 34.1666C20 34.1666 28.405 34.1541 34.0025 33.7462C34.7837 33.6518 36.4887 33.6442 38.01 32.0392C39.2087 30.8168 39.6 28.041 39.6 28.041C39.6 28.041 40 24.7818 40 21.5213V18.4648C40 15.2056 39.6 11.9451 39.6 11.9451Z" fill="#E73A39"/>
</g>
<defs>
<clipPath id="clip0_45_399">
<rect width="40" height="40" fill="white"/>
</clipPath>
</defs>
</svg>
