<svg width="149" height="149" viewBox="0 0 149 149" fill="none" xmlns="http://www.w3.org/2000/svg">
<circle cx="74.5" cy="74.5" r="74.5" fill="white"/>
<path d="M61.6666 105C60.9148 104.996 60.1864 104.737 59.6 104.267C58.9131 103.717 58.4716 102.917 58.3717 102.043C58.2718 101.169 58.5216 100.291 59.0666 99.5999L67.0666 89.5999C67.6399 88.9926 68.4202 88.6226 69.2531 88.5631C70.0861 88.5036 70.9111 88.7589 71.5648 89.2786C72.2185 89.7982 72.6534 90.5443 72.7834 91.3692C72.9133 92.1941 72.7289 93.0378 72.2666 93.7332L64.2666 103.733C63.9562 104.126 63.5613 104.444 63.1112 104.663C62.6611 104.883 62.1673 104.998 61.6666 105ZM90.4 104.267C91.0868 103.717 91.5283 102.917 91.6282 102.043C91.7281 101.169 91.4783 100.291 90.9333 99.5999L82.9333 89.5999C82.6778 89.2155 82.3452 88.8883 81.9567 88.6392C81.5681 88.39 81.132 88.2243 80.6761 88.1524C80.2201 88.0806 79.7542 88.1042 79.3079 88.2219C78.8615 88.3395 78.4445 88.5485 78.0832 88.8357C77.7218 89.123 77.4241 89.4821 77.2088 89.8904C76.9935 90.2987 76.8653 90.7472 76.8325 91.2076C76.7996 91.668 76.8626 92.1303 77.0177 92.565C77.1728 92.9998 77.4165 93.3976 77.7333 93.7332L85.7333 103.733C86.0437 104.126 86.4387 104.444 86.8888 104.663C87.3389 104.883 87.8326 104.998 88.3333 105C89.0852 104.996 89.8135 104.737 90.4 104.267Z" fill="#EF6400"/>
<path d="M101.667 45H48.3333C47.4493 45 46.6014 45.3512 45.9763 45.9763C45.3512 46.6014 45 47.4493 45 48.3333V88.3333C45 90.1014 45.7024 91.7971 46.9526 93.0474C48.2029 94.2976 49.8986 95 51.6667 95H98.3333C100.101 95 101.797 94.2976 103.047 93.0474C104.298 91.7971 105 90.1014 105 88.3333V48.3333C105 47.4493 104.649 46.6014 104.024 45.9763C103.399 45.3512 102.551 45 101.667 45Z" fill="#FF931F"/>
<path d="M89.4 75C89.0459 75.0457 88.6874 75.0457 88.3334 75C87.6345 75.0018 86.9528 74.7839 86.3846 74.3772C85.8163 73.9704 85.3903 73.3954 85.1667 72.7333L84.1 69.4C81.7175 73.1884 78.4055 76.3043 74.4789 78.4514C70.5524 80.5984 66.1418 81.7053 61.6667 81.6667C60.7826 81.6667 59.9348 81.3155 59.3097 80.6904C58.6845 80.0652 58.3334 79.2174 58.3334 78.3333C58.3334 77.4493 58.6845 76.6014 59.3097 75.9763C59.9348 75.3512 60.7826 75 61.6667 75C65.1843 75.0263 68.6453 74.1134 71.6923 72.3555C74.7393 70.5976 77.262 68.0584 79 65H75C74.116 65 73.2681 64.6488 72.643 64.0237C72.0179 63.3986 71.6667 62.5507 71.6667 61.6667C71.6667 60.7826 72.0179 59.9348 72.643 59.3096C73.2681 58.6845 74.116 58.3333 75 58.3333H85C85.6988 58.3315 86.3805 58.5494 86.9488 58.9561C87.517 59.3629 87.9431 59.9379 88.1667 60.6L91.5 70.6C91.6675 71.0255 91.7456 71.481 91.7295 71.938C91.7135 72.395 91.6035 72.8438 91.4065 73.2565C91.2096 73.6692 90.9298 74.037 90.5846 74.3369C90.2394 74.6369 89.8362 74.8626 89.4 75ZM108.333 48.3333C108.333 47.4493 107.982 46.6014 107.357 45.9763C106.732 45.3512 105.884 45 105 45H45C44.116 45 43.2681 45.3512 42.643 45.9763C42.0179 46.6014 41.6667 47.4493 41.6667 48.3333C41.6667 49.2174 42.0179 50.0652 42.643 50.6904C43.2681 51.3155 44.116 51.6667 45 51.6667H105C105.884 51.6667 106.732 51.3155 107.357 50.6904C107.982 50.0652 108.333 49.2174 108.333 48.3333Z" fill="#F43E40"/>
<path fill-rule="evenodd" clip-rule="evenodd" d="M74.2804 7.00035C74.3536 7.00012 74.4268 7 74.5 7C74.5732 7 74.6464 7.00012 74.7196 7.00035C76.3643 7.00559 77.6933 8.34311 77.688 9.98777C77.6828 11.6324 76.3453 12.9614 74.7006 12.9562C74.6338 12.956 74.5669 12.9559 74.5 12.9559C74.4331 12.9559 74.3662 12.956 74.2994 12.9562C72.6547 12.9614 71.3172 11.6324 71.312 9.98777C71.3067 8.34311 72.6357 7.00559 74.2804 7.00035ZM91.4109 12.145C91.9137 10.5791 93.5907 9.71732 95.1567 10.2202C95.2957 10.2648 95.4346 10.3099 95.5733 10.3554C97.1359 10.8685 97.9867 12.5512 97.4736 14.1138C96.9606 15.6764 95.2779 16.5272 93.7153 16.0141C93.589 15.9726 93.4624 15.9315 93.3357 15.8909C91.7698 15.388 90.908 13.711 91.4109 12.145ZM57.5891 12.145C58.092 13.711 57.2302 15.388 55.6643 15.8909C55.5375 15.9315 55.411 15.9726 55.2847 16.0141C53.7221 16.5272 52.0394 15.6764 51.5264 14.1138C51.0133 12.5512 51.8641 10.8685 53.4267 10.3554C53.5654 10.3099 53.7043 10.2648 53.8433 10.2202C55.4092 9.71733 57.0863 10.5791 57.5891 12.145ZM109.845 20.4293C110.808 19.0964 112.67 18.7969 114.003 19.7604C114.121 19.8457 114.239 19.9315 114.356 20.0176C115.683 20.9896 115.97 22.8531 114.998 24.1798C114.026 25.5064 112.163 25.7939 110.836 24.8218C110.729 24.7433 110.621 24.6651 110.514 24.5872C109.181 23.6237 108.881 21.7622 109.845 20.4293ZM39.1553 20.4293C40.1188 21.7622 39.8193 23.6238 38.4864 24.5872C38.3787 24.6651 38.2713 24.7433 38.1641 24.8218C36.8375 25.7939 34.974 25.5064 34.0019 24.1798C33.0298 22.8531 33.3173 20.9896 34.6439 20.0176C34.7614 19.9315 34.8792 19.8457 34.9973 19.7604C36.3302 18.7969 38.1918 19.0964 39.1553 20.4293ZM124.82 34.0019C126.147 33.0298 128.01 33.3173 128.982 34.6439C129.069 34.7614 129.154 34.8792 129.24 34.9973C130.203 36.3302 129.904 38.1918 128.571 39.1553C127.238 40.1188 125.376 39.8193 124.413 38.4864C124.335 38.3787 124.257 38.2713 124.178 38.1641C123.206 36.8375 123.494 34.974 124.82 34.0019ZM24.1798 34.0019C25.5064 34.974 25.7939 36.8375 24.8218 38.1641C24.7433 38.2713 24.6651 38.3787 24.5872 38.4864C23.6237 39.8193 21.7622 40.1188 20.4293 39.1553C19.0964 38.1918 18.7969 36.3302 19.7604 34.9973C19.8457 34.8792 19.9315 34.7614 20.0176 34.6439C20.9896 33.3173 22.8531 33.0298 24.1798 34.0019ZM134.886 51.5264C136.449 51.0133 138.131 51.8641 138.645 53.4267C138.69 53.5654 138.735 53.7043 138.78 53.8433C139.283 55.4092 138.421 57.0863 136.855 57.5891C135.289 58.092 133.612 57.2302 133.109 55.6643C133.068 55.5375 133.027 55.411 132.986 55.2847C132.473 53.7221 133.324 52.0394 134.886 51.5264ZM14.1138 51.5264C15.6764 52.0394 16.5272 53.7221 16.0141 55.2847C15.9726 55.411 15.9315 55.5376 15.8909 55.6643C15.388 57.2302 13.711 58.092 12.145 57.5891C10.5791 57.0863 9.71732 55.4093 10.2202 53.8433C10.2648 53.7043 10.3099 53.5654 10.3554 53.4267C10.8685 51.8641 12.5512 51.0133 14.1138 51.5264ZM139.012 71.312C140.657 71.3067 141.994 72.6357 142 74.2804C142 74.3536 142 74.4268 142 74.5C142 74.5732 142 74.6464 142 74.7196C141.994 76.3643 140.657 77.6933 139.012 77.688C137.368 77.6828 136.039 76.3453 136.044 74.7006C136.044 74.6338 136.044 74.5669 136.044 74.5C136.044 74.457 136.044 74.414 136.044 74.371C136.044 74.3472 136.044 74.3233 136.044 74.2994C136.039 72.6547 137.368 71.3172 139.012 71.312ZM9.98777 71.312C11.6324 71.3172 12.9614 72.6547 12.9562 74.2994C12.956 74.3662 12.9559 74.4331 12.9559 74.5C12.9559 74.5669 12.956 74.6338 12.9562 74.7006C12.9614 76.3453 11.6324 77.6828 9.98777 77.688C8.34311 77.6933 7.00559 76.3643 7.00035 74.7196C7.00012 74.6464 7 74.5732 7 74.5C7 74.4268 7.00012 74.3536 7.00035 74.2804C7.00559 72.6357 8.34311 71.3067 9.98777 71.312ZM136.855 91.4109C138.421 91.9137 139.283 93.5907 138.78 95.1567C138.735 95.2957 138.69 95.4346 138.645 95.5733C138.131 97.1359 136.449 97.9867 134.886 97.4736C133.324 96.9606 132.473 95.2779 132.986 93.7153C133.027 93.589 133.068 93.4624 133.109 93.3357C133.612 91.7698 135.289 90.908 136.855 91.4109ZM12.145 91.4109C13.711 90.908 15.388 91.7698 15.8909 93.3357C15.9315 93.4624 15.9726 93.589 16.0141 93.7153C16.5272 95.2779 15.6764 96.9606 14.1138 97.4736C12.5512 97.9867 10.8685 97.1359 10.3554 95.5733C10.3099 95.4346 10.2648 95.2957 10.2202 95.1567C9.71733 93.5908 10.5791 91.9137 12.145 91.4109ZM128.571 109.845C129.904 110.808 130.203 112.67 129.24 114.003C129.154 114.121 129.069 114.239 128.982 114.356C128.01 115.683 126.147 115.97 124.82 114.998C123.494 114.026 123.206 112.163 124.178 110.836C124.257 110.729 124.335 110.621 124.413 110.514C125.376 109.181 127.238 108.881 128.571 109.845ZM20.4293 109.845C21.7622 108.881 23.6238 109.181 24.5872 110.514C24.6651 110.621 24.7433 110.729 24.8218 110.836C25.7939 112.163 25.5064 114.026 24.1798 114.998C22.8531 115.97 20.9896 115.683 20.0176 114.356C19.9315 114.239 19.8457 114.121 19.7604 114.003C18.7969 112.67 19.0964 110.808 20.4293 109.845ZM114.998 124.82C115.97 126.147 115.683 128.01 114.356 128.982C114.239 129.069 114.121 129.154 114.003 129.24C112.67 130.203 110.808 129.904 109.845 128.571C108.881 127.238 109.181 125.376 110.514 124.413C110.621 124.335 110.729 124.257 110.836 124.178C112.163 123.206 114.026 123.494 114.998 124.82ZM34.0019 124.82C34.974 123.494 36.8375 123.206 38.1641 124.178C38.2713 124.257 38.3787 124.335 38.4864 124.413C39.8193 125.376 40.1188 127.238 39.1553 128.571C38.1918 129.904 36.3302 130.203 34.9973 129.24C34.8792 129.154 34.7614 129.069 34.6439 128.982C33.3173 128.01 33.0298 126.147 34.0019 124.82ZM51.5264 134.886C52.0394 133.324 53.7221 132.473 55.2847 132.986C55.411 133.027 55.5376 133.068 55.6643 133.109C57.2302 133.612 58.092 135.289 57.5891 136.855C57.0863 138.421 55.4093 139.283 53.8433 138.78C53.7043 138.735 53.5654 138.69 53.4267 138.645C51.8641 138.131 51.0133 136.449 51.5264 134.886ZM97.4736 134.886C97.9867 136.449 97.1359 138.131 95.5733 138.645C95.4346 138.69 95.2957 138.735 95.1567 138.78C93.5908 139.283 91.9137 138.421 91.4109 136.855C90.908 135.289 91.7698 133.612 93.3357 133.109C93.4624 133.068 93.589 133.027 93.7153 132.986C95.2779 132.473 96.9606 133.324 97.4736 134.886ZM71.312 139.012C71.3172 137.368 72.6547 136.039 74.2994 136.044C74.3662 136.044 74.4331 136.044 74.5 136.044C74.541 136.044 74.582 136.044 74.623 136.044C74.6489 136.044 74.6748 136.044 74.7006 136.044C76.3453 136.039 77.6828 137.368 77.688 139.012C77.6933 140.657 76.3643 141.994 74.7196 142C74.6464 142 74.5732 142 74.5 142C74.4268 142 74.3536 142 74.2804 142C72.6357 141.994 71.3067 140.657 71.312 139.012Z" fill="#2E2E2E" fill-opacity="0.1"/>
</svg>
