<svg width="149" height="149" viewBox="0 0 149 149" fill="none" xmlns="http://www.w3.org/2000/svg">
<circle cx="74.5" cy="74.5" r="74.5" fill="white"/>
<path d="M79.3334 68.3333C79.3381 63.6104 81.0142 59.0415 84.0646 55.4359C87.1151 51.8302 91.3432 49.4204 96 48.6333V48.3333C96 46.5652 95.2976 44.8695 94.0474 43.6192C92.7972 42.369 91.1015 41.6666 89.3334 41.6666H49.3334C47.5652 41.6666 45.8696 42.369 44.6193 43.6192C43.3691 44.8695 42.6667 46.5652 42.6667 48.3333V105C42.6671 105.55 42.8038 106.092 43.0644 106.576C43.325 107.061 43.7015 107.473 44.1603 107.777C44.619 108.081 45.1459 108.266 45.6937 108.316C46.2416 108.367 46.7934 108.281 47.3 108.067L53.8 105.3L60.2667 108.067C60.678 108.241 61.12 108.331 61.5667 108.331C62.0133 108.331 62.4554 108.241 62.8667 108.067L69.3334 105.3L75.8 108.067C76.2113 108.241 76.6534 108.331 77.1 108.331C77.5467 108.331 77.9887 108.241 78.4 108.067L84.8667 105.3L91.3334 108.067C91.7548 108.246 92.2086 108.337 92.6667 108.333C93.3201 108.328 93.9577 108.131 94.5 107.767C94.9586 107.465 95.3354 107.054 95.5971 106.571C95.8588 106.089 95.9972 105.549 96 105V88.0333C91.3432 87.2461 87.1151 84.8364 84.0646 81.2307C81.0142 77.6251 79.3381 73.0562 79.3334 68.3333Z" fill="#FF931F"/>
<path d="M76 84.9999C76 84.1159 75.6488 83.268 75.0237 82.6429C74.3986 82.0178 73.5507 81.6666 72.6667 81.6666H56C55.116 81.6666 54.2681 82.0178 53.643 82.6429C53.0179 83.268 52.6667 84.1159 52.6667 84.9999C52.6667 85.884 53.0179 86.7318 53.643 87.3569C54.2681 87.9821 55.116 88.3333 56 88.3333H72.6667C73.5507 88.3333 74.3986 87.9821 75.0237 87.3569C75.6488 86.7318 76 85.884 76 84.9999ZM69.3334 71.6666C69.3334 70.7825 68.9822 69.9347 68.357 69.3096C67.7319 68.6844 66.8841 68.3333 66 68.3333H56C55.116 68.3333 54.2681 68.6844 53.643 69.3096C53.0179 69.9347 52.6667 70.7825 52.6667 71.6666C52.6667 72.5506 53.0179 73.3985 53.643 74.0236C54.2681 74.6487 55.116 74.9999 56 74.9999H66C66.8841 74.9999 67.7319 74.6487 68.357 74.0236C68.9822 73.3985 69.3334 72.5506 69.3334 71.6666Z" fill="#EF6400"/>
<path d="M107.509 78.7071C108.727 77.1845 109.373 75.2828 109.333 73.3333C109.333 71.1232 108.455 69.0035 106.893 67.4407C105.33 65.8779 103.21 65 101 65H97.6667C97.2246 65 96.8007 64.8244 96.4882 64.5118C96.1756 64.1992 96 63.7753 96 63.3333C96 62.8913 96.1756 62.4673 96.4882 62.1548C96.8007 61.8422 97.2246 61.6666 97.6667 61.6666H106C106.884 61.6666 107.732 61.3154 108.357 60.6903C108.982 60.0652 109.333 59.2173 109.333 58.3333C109.333 57.4492 108.982 56.6014 108.357 55.9763C107.732 55.3511 106.884 55 106 55H102.667C102.667 54.1159 102.315 53.2681 101.69 52.6429C101.065 52.0178 100.217 51.6666 99.3333 51.6666C98.4493 51.6666 97.6014 52.0178 96.9763 52.6429C96.3512 53.2681 96 54.1159 96 55V55.1666C93.9748 55.5779 92.1745 56.727 90.9489 58.3908C89.7232 60.0547 89.1595 62.1147 89.3672 64.1708C89.5748 66.2269 90.5391 68.1325 92.0728 69.5177C93.6064 70.9028 95.6001 71.6687 97.6667 71.6666H101C101.442 71.6666 101.866 71.8422 102.179 72.1548C102.491 72.4673 102.667 72.8913 102.667 73.3333C102.667 73.7753 102.491 74.1992 102.179 74.5118C101.866 74.8244 101.442 75 101 75H92.6667C91.7826 75 90.9348 75.3511 90.3096 75.9763C89.6845 76.6014 89.3333 77.4492 89.3333 78.3333C89.3333 79.2173 89.6845 80.0652 90.3096 80.6903C90.9348 81.3154 91.7826 81.6666 92.6667 81.6666H96C96 82.5507 96.3512 83.3985 96.9763 84.0236C97.6014 84.6488 98.4493 85 99.3333 85C100.217 85 101.065 84.6488 101.69 84.0236C102.315 83.3985 102.667 82.5507 102.667 81.6666C104.577 81.277 106.291 80.2298 107.509 78.7071Z" fill="#F43E40"/>
<path fill-rule="evenodd" clip-rule="evenodd" d="M74.2804 7.00035C74.3536 7.00012 74.4268 7 74.5 7C74.5732 7 74.6464 7.00012 74.7196 7.00035C76.3643 7.00559 77.6933 8.34311 77.688 9.98777C77.6828 11.6324 76.3453 12.9614 74.7006 12.9562C74.6338 12.956 74.5669 12.9559 74.5 12.9559C74.4331 12.9559 74.3662 12.956 74.2994 12.9562C72.6547 12.9614 71.3172 11.6324 71.312 9.98777C71.3067 8.34311 72.6357 7.00559 74.2804 7.00035ZM91.4109 12.145C91.9137 10.5791 93.5907 9.71732 95.1567 10.2202C95.2957 10.2648 95.4346 10.3099 95.5733 10.3554C97.1359 10.8685 97.9867 12.5512 97.4736 14.1138C96.9606 15.6764 95.2779 16.5272 93.7153 16.0141C93.589 15.9726 93.4624 15.9315 93.3357 15.8909C91.7698 15.388 90.908 13.711 91.4109 12.145ZM57.5891 12.145C58.092 13.711 57.2302 15.388 55.6643 15.8909C55.5375 15.9315 55.411 15.9726 55.2847 16.0141C53.7221 16.5272 52.0394 15.6764 51.5264 14.1138C51.0133 12.5512 51.8641 10.8685 53.4267 10.3554C53.5654 10.3099 53.7043 10.2648 53.8433 10.2202C55.4092 9.71733 57.0863 10.5791 57.5891 12.145ZM109.845 20.4293C110.808 19.0964 112.67 18.7969 114.003 19.7604C114.121 19.8457 114.239 19.9315 114.356 20.0176C115.683 20.9896 115.97 22.8531 114.998 24.1798C114.026 25.5064 112.163 25.7939 110.836 24.8218C110.729 24.7433 110.621 24.6651 110.514 24.5872C109.181 23.6237 108.881 21.7622 109.845 20.4293ZM39.1553 20.4293C40.1188 21.7622 39.8193 23.6238 38.4864 24.5872C38.3787 24.6651 38.2713 24.7433 38.1641 24.8218C36.8375 25.7939 34.974 25.5064 34.0019 24.1798C33.0298 22.8531 33.3173 20.9896 34.6439 20.0176C34.7614 19.9315 34.8792 19.8457 34.9973 19.7604C36.3302 18.7969 38.1918 19.0964 39.1553 20.4293ZM124.82 34.0019C126.147 33.0298 128.01 33.3173 128.982 34.6439C129.069 34.7614 129.154 34.8792 129.24 34.9973C130.203 36.3302 129.904 38.1918 128.571 39.1553C127.238 40.1188 125.376 39.8193 124.413 38.4864C124.335 38.3787 124.257 38.2713 124.178 38.1641C123.206 36.8375 123.494 34.974 124.82 34.0019ZM24.1798 34.0019C25.5064 34.974 25.7939 36.8375 24.8218 38.1641C24.7433 38.2713 24.6651 38.3787 24.5872 38.4864C23.6237 39.8193 21.7622 40.1188 20.4293 39.1553C19.0964 38.1918 18.7969 36.3302 19.7604 34.9973C19.8457 34.8792 19.9315 34.7614 20.0176 34.6439C20.9896 33.3173 22.8531 33.0298 24.1798 34.0019ZM134.886 51.5264C136.449 51.0133 138.131 51.8641 138.645 53.4267C138.69 53.5654 138.735 53.7043 138.78 53.8433C139.283 55.4092 138.421 57.0863 136.855 57.5891C135.289 58.092 133.612 57.2302 133.109 55.6643C133.068 55.5375 133.027 55.411 132.986 55.2847C132.473 53.7221 133.324 52.0394 134.886 51.5264ZM14.1138 51.5264C15.6764 52.0394 16.5272 53.7221 16.0141 55.2847C15.9726 55.411 15.9315 55.5376 15.8909 55.6643C15.388 57.2302 13.711 58.092 12.145 57.5891C10.5791 57.0863 9.71732 55.4093 10.2202 53.8433C10.2648 53.7043 10.3099 53.5654 10.3554 53.4267C10.8685 51.8641 12.5512 51.0133 14.1138 51.5264ZM139.012 71.312C140.657 71.3067 141.994 72.6357 142 74.2804C142 74.3536 142 74.4268 142 74.5C142 74.5732 142 74.6464 142 74.7196C141.994 76.3643 140.657 77.6933 139.012 77.688C137.368 77.6828 136.039 76.3453 136.044 74.7006C136.044 74.6338 136.044 74.5669 136.044 74.5C136.044 74.457 136.044 74.414 136.044 74.371C136.044 74.3472 136.044 74.3233 136.044 74.2994C136.039 72.6547 137.368 71.3172 139.012 71.312ZM9.98777 71.312C11.6324 71.3172 12.9614 72.6547 12.9562 74.2994C12.956 74.3662 12.9559 74.4331 12.9559 74.5C12.9559 74.5669 12.956 74.6338 12.9562 74.7006C12.9614 76.3453 11.6324 77.6828 9.98777 77.688C8.34311 77.6933 7.00559 76.3643 7.00035 74.7196C7.00012 74.6464 7 74.5732 7 74.5C7 74.4268 7.00012 74.3536 7.00035 74.2804C7.00559 72.6357 8.34311 71.3067 9.98777 71.312ZM136.855 91.4109C138.421 91.9137 139.283 93.5907 138.78 95.1567C138.735 95.2957 138.69 95.4346 138.645 95.5733C138.131 97.1359 136.449 97.9867 134.886 97.4736C133.324 96.9606 132.473 95.2779 132.986 93.7153C133.027 93.589 133.068 93.4624 133.109 93.3357C133.612 91.7698 135.289 90.908 136.855 91.4109ZM12.145 91.4109C13.711 90.908 15.388 91.7698 15.8909 93.3357C15.9315 93.4624 15.9726 93.589 16.0141 93.7153C16.5272 95.2779 15.6764 96.9606 14.1138 97.4736C12.5512 97.9867 10.8685 97.1359 10.3554 95.5733C10.3099 95.4346 10.2648 95.2957 10.2202 95.1567C9.71733 93.5908 10.5791 91.9137 12.145 91.4109ZM128.571 109.845C129.904 110.808 130.203 112.67 129.24 114.003C129.154 114.121 129.069 114.239 128.982 114.356C128.01 115.683 126.147 115.97 124.82 114.998C123.494 114.026 123.206 112.163 124.178 110.836C124.257 110.729 124.335 110.621 124.413 110.514C125.376 109.181 127.238 108.881 128.571 109.845ZM20.4293 109.845C21.7622 108.881 23.6238 109.181 24.5872 110.514C24.6651 110.621 24.7433 110.729 24.8218 110.836C25.7939 112.163 25.5064 114.026 24.1798 114.998C22.8531 115.97 20.9896 115.683 20.0176 114.356C19.9315 114.239 19.8457 114.121 19.7604 114.003C18.7969 112.67 19.0964 110.808 20.4293 109.845ZM114.998 124.82C115.97 126.147 115.683 128.01 114.356 128.982C114.239 129.069 114.121 129.154 114.003 129.24C112.67 130.203 110.808 129.904 109.845 128.571C108.881 127.238 109.181 125.376 110.514 124.413C110.621 124.335 110.729 124.257 110.836 124.178C112.163 123.206 114.026 123.494 114.998 124.82ZM34.0019 124.82C34.974 123.494 36.8375 123.206 38.1641 124.178C38.2713 124.257 38.3787 124.335 38.4864 124.413C39.8193 125.376 40.1188 127.238 39.1553 128.571C38.1918 129.904 36.3302 130.203 34.9973 129.24C34.8792 129.154 34.7614 129.069 34.6439 128.982C33.3173 128.01 33.0298 126.147 34.0019 124.82ZM51.5264 134.886C52.0394 133.324 53.7221 132.473 55.2847 132.986C55.411 133.027 55.5376 133.068 55.6643 133.109C57.2302 133.612 58.092 135.289 57.5891 136.855C57.0863 138.421 55.4093 139.283 53.8433 138.78C53.7043 138.735 53.5654 138.69 53.4267 138.645C51.8641 138.131 51.0133 136.449 51.5264 134.886ZM97.4736 134.886C97.9867 136.449 97.1359 138.131 95.5733 138.645C95.4346 138.69 95.2957 138.735 95.1567 138.78C93.5908 139.283 91.9137 138.421 91.4109 136.855C90.908 135.289 91.7698 133.612 93.3357 133.109C93.4624 133.068 93.589 133.027 93.7153 132.986C95.2779 132.473 96.9606 133.324 97.4736 134.886ZM71.312 139.012C71.3172 137.368 72.6547 136.039 74.2994 136.044C74.3662 136.044 74.4331 136.044 74.5 136.044C74.541 136.044 74.582 136.044 74.623 136.044C74.6489 136.044 74.6748 136.044 74.7006 136.044C76.3453 136.039 77.6828 137.368 77.688 139.012C77.6933 140.657 76.3643 141.994 74.7196 142C74.6464 142 74.5732 142 74.5 142C74.4268 142 74.3536 142 74.2804 142C72.6357 141.994 71.3067 140.657 71.312 139.012Z" fill="#2E2E2E" fill-opacity="0.1"/>
</svg>
