<svg width="149" height="149" viewBox="0 0 149 149" fill="none" xmlns="http://www.w3.org/2000/svg">
<circle cx="74.5" cy="74.5" r="74.5" fill="white"/>
<path d="M105.767 44C104.969 43.3817 104.042 42.9524 103.055 42.7446C102.067 42.5367 101.046 42.5557 100.067 42.8L64.2 51.6667C63.4604 51.8492 62.8057 52.2795 62.3447 52.886C61.8838 53.4925 61.6445 54.2386 61.6667 55V81.6667C61.6445 82.4281 61.8838 83.1742 62.3447 83.7807C62.8057 84.3872 63.4604 84.8175 64.2 85L100.067 93.9667C100.59 94.0979 101.127 94.165 101.667 94.1667C103.149 94.1571 104.588 93.6657 105.767 92.7667C106.581 92.132 107.236 91.3168 107.682 90.3855C108.127 89.4542 108.35 88.4322 108.333 87.4V49.2667C108.335 48.2513 108.104 47.249 107.66 46.3363C107.215 45.4236 106.567 44.6245 105.767 44Z" fill="#FF931F"/>
<path d="M65 51.6666H58.3334C55.0274 51.6672 51.7963 52.651 49.0509 54.4928C46.3056 56.3346 44.17 58.9513 42.9157 62.0101C41.6615 65.0689 41.3453 68.4316 42.0072 71.6706C42.6692 74.9096 44.2795 77.8786 46.6334 80.2L51.2 102.967C51.5048 104.501 52.3397 105.88 53.5585 106.861C54.7773 107.842 56.3024 108.363 57.8667 108.333H61.6667C63.4348 108.333 65.1305 107.631 66.3807 106.381C67.631 105.13 68.3334 103.435 68.3334 101.667V55C68.3334 54.1159 67.9822 53.2681 67.357 52.6429C66.7319 52.0178 65.8841 51.6666 65 51.6666Z" fill="#F43E40"/>
<path d="M96 49C96 45.6863 98.6863 43 102 43C105.314 43 108 45.6863 108 49V88C108 91.3137 105.314 94 102 94C98.6863 94 96 91.3137 96 88V49Z" fill="#EF6400"/>
<path fill-rule="evenodd" clip-rule="evenodd" d="M74.2804 7.00035C74.3536 7.00012 74.4268 7 74.5 7C74.5732 7 74.6464 7.00012 74.7196 7.00035C76.3643 7.00559 77.6933 8.34311 77.688 9.98777C77.6828 11.6324 76.3453 12.9614 74.7006 12.9562C74.6338 12.956 74.5669 12.9559 74.5 12.9559C74.4331 12.9559 74.3662 12.956 74.2994 12.9562C72.6547 12.9614 71.3172 11.6324 71.312 9.98777C71.3067 8.34311 72.6357 7.00559 74.2804 7.00035ZM91.4109 12.145C91.9137 10.5791 93.5907 9.71732 95.1567 10.2202C95.2957 10.2648 95.4346 10.3099 95.5733 10.3554C97.1359 10.8685 97.9867 12.5512 97.4736 14.1138C96.9606 15.6764 95.2779 16.5272 93.7153 16.0141C93.589 15.9726 93.4624 15.9315 93.3357 15.8909C91.7698 15.388 90.908 13.711 91.4109 12.145ZM57.5891 12.145C58.092 13.711 57.2302 15.388 55.6643 15.8909C55.5375 15.9315 55.411 15.9726 55.2847 16.0141C53.7221 16.5272 52.0394 15.6764 51.5264 14.1138C51.0133 12.5512 51.8641 10.8685 53.4267 10.3554C53.5654 10.3099 53.7043 10.2648 53.8433 10.2202C55.4092 9.71733 57.0863 10.5791 57.5891 12.145ZM109.845 20.4293C110.808 19.0964 112.67 18.7969 114.003 19.7604C114.121 19.8457 114.239 19.9315 114.356 20.0176C115.683 20.9896 115.97 22.8531 114.998 24.1798C114.026 25.5064 112.163 25.7939 110.836 24.8218C110.729 24.7433 110.621 24.6651 110.514 24.5872C109.181 23.6237 108.881 21.7622 109.845 20.4293ZM39.1553 20.4293C40.1188 21.7622 39.8193 23.6238 38.4864 24.5872C38.3787 24.6651 38.2713 24.7433 38.1641 24.8218C36.8375 25.7939 34.974 25.5064 34.0019 24.1798C33.0298 22.8531 33.3173 20.9896 34.6439 20.0176C34.7614 19.9315 34.8792 19.8457 34.9973 19.7604C36.3302 18.7969 38.1918 19.0964 39.1553 20.4293ZM124.82 34.0019C126.147 33.0298 128.01 33.3173 128.982 34.6439C129.069 34.7614 129.154 34.8792 129.24 34.9973C130.203 36.3302 129.904 38.1918 128.571 39.1553C127.238 40.1188 125.376 39.8193 124.413 38.4864C124.335 38.3787 124.257 38.2713 124.178 38.1641C123.206 36.8375 123.494 34.974 124.82 34.0019ZM24.1798 34.0019C25.5064 34.974 25.7939 36.8375 24.8218 38.1641C24.7433 38.2713 24.6651 38.3787 24.5872 38.4864C23.6237 39.8193 21.7622 40.1188 20.4293 39.1553C19.0964 38.1918 18.7969 36.3302 19.7604 34.9973C19.8457 34.8792 19.9315 34.7614 20.0176 34.6439C20.9896 33.3173 22.8531 33.0298 24.1798 34.0019ZM134.886 51.5264C136.449 51.0133 138.131 51.8641 138.645 53.4267C138.69 53.5654 138.735 53.7043 138.78 53.8433C139.283 55.4092 138.421 57.0863 136.855 57.5891C135.289 58.092 133.612 57.2302 133.109 55.6643C133.068 55.5375 133.027 55.411 132.986 55.2847C132.473 53.7221 133.324 52.0394 134.886 51.5264ZM14.1138 51.5264C15.6764 52.0394 16.5272 53.7221 16.0141 55.2847C15.9726 55.411 15.9315 55.5376 15.8909 55.6643C15.388 57.2302 13.711 58.092 12.145 57.5891C10.5791 57.0863 9.71732 55.4093 10.2202 53.8433C10.2648 53.7043 10.3099 53.5654 10.3554 53.4267C10.8685 51.8641 12.5512 51.0133 14.1138 51.5264ZM139.012 71.312C140.657 71.3067 141.994 72.6357 142 74.2804C142 74.3536 142 74.4268 142 74.5C142 74.5732 142 74.6464 142 74.7196C141.994 76.3643 140.657 77.6933 139.012 77.688C137.368 77.6828 136.039 76.3453 136.044 74.7006C136.044 74.6338 136.044 74.5669 136.044 74.5C136.044 74.457 136.044 74.414 136.044 74.371C136.044 74.3472 136.044 74.3233 136.044 74.2994C136.039 72.6547 137.368 71.3172 139.012 71.312ZM9.98777 71.312C11.6324 71.3172 12.9614 72.6547 12.9562 74.2994C12.956 74.3662 12.9559 74.4331 12.9559 74.5C12.9559 74.5669 12.956 74.6338 12.9562 74.7006C12.9614 76.3453 11.6324 77.6828 9.98777 77.688C8.34311 77.6933 7.00559 76.3643 7.00035 74.7196C7.00012 74.6464 7 74.5732 7 74.5C7 74.4268 7.00012 74.3536 7.00035 74.2804C7.00559 72.6357 8.34311 71.3067 9.98777 71.312ZM136.855 91.4109C138.421 91.9137 139.283 93.5907 138.78 95.1567C138.735 95.2957 138.69 95.4346 138.645 95.5733C138.131 97.1359 136.449 97.9867 134.886 97.4736C133.324 96.9606 132.473 95.2779 132.986 93.7153C133.027 93.589 133.068 93.4624 133.109 93.3357C133.612 91.7698 135.289 90.908 136.855 91.4109ZM12.145 91.4109C13.711 90.908 15.388 91.7698 15.8909 93.3357C15.9315 93.4624 15.9726 93.589 16.0141 93.7153C16.5272 95.2779 15.6764 96.9606 14.1138 97.4736C12.5512 97.9867 10.8685 97.1359 10.3554 95.5733C10.3099 95.4346 10.2648 95.2957 10.2202 95.1567C9.71733 93.5908 10.5791 91.9137 12.145 91.4109ZM128.571 109.845C129.904 110.808 130.203 112.67 129.24 114.003C129.154 114.121 129.069 114.239 128.982 114.356C128.01 115.683 126.147 115.97 124.82 114.998C123.494 114.026 123.206 112.163 124.178 110.836C124.257 110.729 124.335 110.621 124.413 110.514C125.376 109.181 127.238 108.881 128.571 109.845ZM20.4293 109.845C21.7622 108.881 23.6238 109.181 24.5872 110.514C24.6651 110.621 24.7433 110.729 24.8218 110.836C25.7939 112.163 25.5064 114.026 24.1798 114.998C22.8531 115.97 20.9896 115.683 20.0176 114.356C19.9315 114.239 19.8457 114.121 19.7604 114.003C18.7969 112.67 19.0964 110.808 20.4293 109.845ZM114.998 124.82C115.97 126.147 115.683 128.01 114.356 128.982C114.239 129.069 114.121 129.154 114.003 129.24C112.67 130.203 110.808 129.904 109.845 128.571C108.881 127.238 109.181 125.376 110.514 124.413C110.621 124.335 110.729 124.257 110.836 124.178C112.163 123.206 114.026 123.494 114.998 124.82ZM34.0019 124.82C34.974 123.494 36.8375 123.206 38.1641 124.178C38.2713 124.257 38.3787 124.335 38.4864 124.413C39.8193 125.376 40.1188 127.238 39.1553 128.571C38.1918 129.904 36.3302 130.203 34.9973 129.24C34.8792 129.154 34.7614 129.069 34.6439 128.982C33.3173 128.01 33.0298 126.147 34.0019 124.82ZM51.5264 134.886C52.0394 133.324 53.7221 132.473 55.2847 132.986C55.411 133.027 55.5376 133.068 55.6643 133.109C57.2302 133.612 58.092 135.289 57.5891 136.855C57.0863 138.421 55.4093 139.283 53.8433 138.78C53.7043 138.735 53.5654 138.69 53.4267 138.645C51.8641 138.131 51.0133 136.449 51.5264 134.886ZM97.4736 134.886C97.9867 136.449 97.1359 138.131 95.5733 138.645C95.4346 138.69 95.2957 138.735 95.1567 138.78C93.5908 139.283 91.9137 138.421 91.4109 136.855C90.908 135.289 91.7698 133.612 93.3357 133.109C93.4624 133.068 93.589 133.027 93.7153 132.986C95.2779 132.473 96.9606 133.324 97.4736 134.886ZM71.312 139.012C71.3172 137.368 72.6547 136.039 74.2994 136.044C74.3662 136.044 74.4331 136.044 74.5 136.044C74.541 136.044 74.582 136.044 74.623 136.044C74.6489 136.044 74.6748 136.044 74.7006 136.044C76.3453 136.039 77.6828 137.368 77.688 139.012C77.6933 140.657 76.3643 141.994 74.7196 142C74.6464 142 74.5732 142 74.5 142C74.4268 142 74.3536 142 74.2804 142C72.6357 141.994 71.3067 140.657 71.312 139.012Z" fill="#2E2E2E" fill-opacity="0.1"/>
</svg>
