<svg width="190" height="38" viewBox="0 0 190 38" fill="none" xmlns="http://www.w3.org/2000/svg">
<g clip-path="url(#clip0_48_446)">
<path d="M11.4759 15.9679L18.8677 8.58857L26.2634 15.9718L30.5644 11.6778L18.8677 0L7.1748 11.6739L11.4759 15.9679Z" fill="#2E2E2E" fill-opacity="0.15"/>
<path d="M8.43771 18.9993L4.13672 14.7054L-0.164479 18.9995L4.13651 23.2934L8.43771 18.9993Z" fill="#2E2E2E" fill-opacity="0.15"/>
<path d="M11.4753 22.0321L18.8671 29.4114L26.2625 22.0285L30.566 26.3201L30.5639 26.3225L18.8671 38L7.17398 26.3264L7.16797 26.3204L11.4753 22.0321Z" fill="#2E2E2E" fill-opacity="0.15"/>
<path d="M33.5982 23.2955L37.8994 19.0013L33.5984 14.7074L29.2972 19.0016L33.5982 23.2955Z" fill="#2E2E2E" fill-opacity="0.15"/>
<path d="M23.2303 18.9978H23.2321L18.8676 14.6404L15.6422 17.8606H15.6419L15.2715 18.2306L14.507 18.9939L14.501 18.9999L14.507 19.0062L18.8676 23.3596L23.2321 19.0023L23.2342 18.9999L23.2303 18.9978Z" fill="#2E2E2E" fill-opacity="0.15"/>
<path d="M44.6045 9.2077H53.9591C56.2808 9.2077 58.0365 9.80256 59.2264 10.9923C60.1472 11.9137 60.6074 13.0557 60.6074 14.418V14.4756C60.6074 15.0513 60.5362 15.56 60.3928 16.0012C60.2497 16.443 60.0585 16.8407 59.8195 17.1957C59.5811 17.5511 59.3039 17.8629 58.9889 18.1312C58.6735 18.4001 58.3347 18.6306 57.9718 18.8221C59.1389 19.2639 60.0576 19.8633 60.7274 20.6214C61.3969 21.3799 61.7321 22.4306 61.7321 23.7737V23.831C61.7321 24.7524 61.5547 25.5583 61.1997 26.2495C60.8446 26.9401 60.336 27.516 59.6737 27.9768C59.0114 28.4375 58.215 28.7826 57.2843 29.0131C56.3536 29.2433 55.3221 29.3583 54.1903 29.3583H44.6045V9.2077ZM53.0238 17.3542C54.0045 17.3542 54.7831 17.1867 55.3594 16.8506C55.936 16.5147 56.2243 15.9724 56.2243 15.2241V15.1665C56.2243 14.4951 55.9742 13.9819 55.4745 13.6265C54.9746 13.2715 54.2537 13.0938 53.3121 13.0938H48.9293V17.3542H53.0238ZM54.2062 25.4725C55.1865 25.4725 55.9549 25.2954 56.5129 24.94C57.0703 24.585 57.3492 24.033 57.3492 23.2845V23.2272C57.3492 22.5555 57.0895 22.023 56.5706 21.6293C56.0514 21.2364 55.2154 21.0395 54.0619 21.0395H48.9293V25.4728L54.2062 25.4725Z" fill="#2E2E2E" fill-opacity="0.15"/>
<path d="M67.3027 9.2077H71.7436V29.3589H67.3027V9.2077Z" fill="#2E2E2E" fill-opacity="0.15"/>
<path d="M78.4697 9.2077H82.5637L92.0217 21.6152V9.2077H96.4045V29.3589H92.6274L82.8523 16.5486V29.3589H78.4697V9.2077Z" fill="#2E2E2E" fill-opacity="0.15"/>
<path d="M109.848 9.06403H113.943L122.593 29.3589H117.951L116.105 24.8396H107.57L105.725 29.3589H101.197L109.848 9.06403ZM114.52 20.924L111.838 14.3896L109.157 20.924H114.52Z" fill="#2E2E2E" fill-opacity="0.15"/>
<path d="M127.387 9.2077H131.482L140.939 21.6152V9.2077H145.322V29.3589H141.545L131.77 16.5486V29.3589H127.387V9.2077Z" fill="#2E2E2E" fill-opacity="0.15"/>
<path d="M161.303 29.7041C159.822 29.7041 158.448 29.4351 157.179 28.8982C155.91 28.3613 154.815 27.6269 153.892 26.6958C152.969 25.7651 152.248 24.6663 151.73 23.3998C151.211 22.1329 150.951 20.7799 150.951 19.3405V19.2832C150.951 17.8438 151.211 16.4959 151.73 15.2386C152.248 13.9817 152.969 12.8781 153.892 11.9282C154.815 10.9782 155.92 10.2294 157.208 9.68257C158.495 9.13573 159.919 8.8623 161.476 8.8623C162.417 8.8623 163.277 8.93944 164.056 9.09251C164.834 9.24647 165.541 9.45717 166.175 9.72578C166.81 9.9947 167.396 10.3209 167.935 10.7045C168.472 11.0887 168.972 11.5107 169.434 11.9714L166.608 15.2242C165.819 14.5144 165.017 13.9573 164.2 13.5546C163.383 13.1518 162.465 12.9501 161.447 12.9501C160.601 12.9501 159.817 13.1134 159.097 13.4396C158.376 13.7659 157.756 14.2167 157.237 14.7923C156.718 15.368 156.314 16.0352 156.025 16.793C155.738 17.5514 155.594 18.3621 155.594 19.2256V19.2829C155.594 20.1464 155.738 20.9624 156.025 21.7296C156.314 22.4976 156.712 23.169 157.223 23.7446C157.732 24.3203 158.347 24.7765 159.067 25.1123C159.789 25.4485 160.582 25.616 161.447 25.616C162.6 25.616 163.575 25.405 164.373 24.9827C165.171 24.561 165.964 23.9851 166.752 23.2554L169.578 26.1055C169.059 26.6622 168.52 27.1613 167.963 27.6022C167.406 28.044 166.795 28.4228 166.132 28.7397C165.469 29.0561 164.743 29.2965 163.955 29.4592C163.167 29.6221 162.283 29.7041 161.303 29.7041Z" fill="#2E2E2E" fill-opacity="0.15"/>
<path d="M174.805 9.2077H190V13.1517H179.188V17.2395H188.703V21.1833H179.188V25.4151H190.145V29.3589H174.805V9.2077Z" fill="#2E2E2E" fill-opacity="0.15"/>
</g>
<defs>
<clipPath id="clip0_48_446">
<rect width="190" height="38" fill="white"/>
</clipPath>
</defs>
</svg>
