<svg width="165" height="38" viewBox="0 0 165 38" fill="none" xmlns="http://www.w3.org/2000/svg">
<g clip-path="url(#clip0_48_460)">
<path d="M130.485 18.9826C130.485 18.0134 130.485 17.1017 130.454 16.2598C130.432 15.4656 130.354 14.6739 130.218 13.8909C130.091 13.176 129.868 12.4816 129.553 11.8271C129.221 11.1522 128.777 10.5381 128.24 10.0107C127.479 9.23179 126.573 8.60835 125.573 8.17524C124.491 7.73765 123.332 7.52073 122.165 7.53725C120.994 7.52214 119.831 7.73897 118.744 8.17524C117.738 8.60243 116.826 9.22316 116.06 10.002C115.525 10.5291 115.082 11.1433 114.753 11.8184C114.441 12.4731 114.221 13.1675 114.098 13.8822C113.966 14.6654 113.89 15.4571 113.871 16.2511C113.85 17.093 113.84 18.0047 113.845 18.9739C113.85 19.943 113.845 20.8477 113.871 21.6949C113.89 22.4889 113.966 23.2806 114.098 24.0638C114.221 24.7784 114.441 25.4729 114.753 26.1276C115.084 26.8019 115.526 27.4159 116.06 27.944C116.825 28.7234 117.737 29.3432 118.744 29.7673C119.83 30.2064 120.993 30.4245 122.165 30.4087C123.333 30.4259 124.492 30.2077 125.573 29.7673C126.573 29.3399 127.479 28.7204 128.24 27.944C128.776 27.4156 129.22 26.8017 129.553 26.1276C129.868 25.473 130.091 24.7787 130.218 24.0638C130.352 23.283 130.43 22.4937 130.45 21.7018C130.477 20.8547 130.489 19.9483 130.482 18.9808L130.485 18.9826ZM126.086 18.9826C126.086 20.0563 126.07 20.9506 126.034 21.6617C126.013 22.2459 125.955 22.8282 125.859 23.4049C125.794 23.7891 125.676 24.1626 125.51 24.5152C125.375 24.7994 125.199 25.062 124.986 25.2944C124.659 25.669 124.252 25.9666 123.796 26.166C123.282 26.3854 122.729 26.4969 122.17 26.4937C121.609 26.4961 121.053 26.3847 120.536 26.166C120.069 25.9703 119.651 25.6725 119.314 25.2944C119.101 25.0631 118.924 24.8003 118.791 24.5152C118.629 24.1623 118.517 23.7886 118.459 23.4049C118.366 22.8279 118.308 22.2458 118.284 21.6617C118.253 20.9506 118.237 20.0575 118.237 18.9826C118.237 17.9088 118.253 17.0129 118.284 16.3017C118.308 15.7177 118.366 15.1356 118.459 14.5585C118.517 14.1748 118.629 13.8011 118.791 13.4482C118.925 13.1634 119.101 12.9006 119.314 12.669C119.652 12.2914 120.069 11.9937 120.536 11.7974C121.052 11.5763 121.609 11.4647 122.17 11.4697C122.729 11.4639 123.283 11.5756 123.796 11.7974C124.252 11.9974 124.658 12.2949 124.986 12.669C125.198 12.9017 125.375 13.1642 125.51 13.4482C125.676 13.8008 125.794 14.1743 125.859 14.5585C125.955 15.1352 126.013 15.7175 126.034 16.3017C126.072 17.0111 126.086 17.9071 126.086 18.9826Z" fill="#2E2E2E" fill-opacity="0.15"/>
<path d="M165.539 8.11942C165.537 7.90745 165.365 7.73608 165.153 7.73419H161.524C161.311 7.73515 161.139 7.90706 161.138 8.11942V21.5066L152.287 7.84226C152.228 7.74988 152.175 7.73419 152.045 7.73419H148.679C148.467 7.73701 148.296 7.90784 148.293 8.11942V29.8422C148.296 30.0535 148.467 30.2238 148.679 30.2257H152.306C152.518 30.2247 152.689 30.0536 152.69 29.8422V16.4202L161.543 30.1158C161.604 30.2082 161.653 30.2239 161.786 30.2239H165.15C165.362 30.223 165.534 30.0521 165.535 29.8404L165.539 8.11942Z" fill="#2E2E2E" fill-opacity="0.15"/>
<path d="M141.211 8.11942C141.21 7.90706 141.038 7.73515 140.825 7.73419H137.199C136.987 7.73515 136.814 7.90706 136.813 8.11942V29.8404C136.814 30.0528 136.987 30.2247 137.199 30.2257H140.825C141.038 30.2247 141.21 30.0528 141.211 29.8404V8.11942Z" fill="#2E2E2E" fill-opacity="0.15"/>
<path d="M97.805 18.9826C97.805 17.9018 97.8172 17.0024 97.8486 16.286C97.87 15.7018 97.9283 15.1196 98.0232 14.5428C98.3584 12.608 99.8422 11.4662 101.736 11.4662C102.972 11.4767 104.093 11.9334 104.809 12.9723C105.133 13.4573 105.369 13.9954 105.507 14.562C105.518 14.6217 105.572 14.6634 105.633 14.6579H109.901C109.962 14.6579 109.985 14.6161 109.974 14.5568C109.508 11.9195 108.099 9.55056 105.61 8.37744C104.387 7.81181 103.051 7.52881 101.703 7.54945C99.2999 7.54945 97.2754 8.37105 95.6298 10.0142C94.6903 10.9285 94.049 12.1047 93.7898 13.3889C93.5384 14.6532 93.4116 16.5172 93.4092 18.9808C93.4069 21.4444 93.5338 23.3078 93.7898 24.571C94.0468 25.8569 94.6862 27.0354 95.6246 27.9527C97.269 29.5947 99.2935 30.4157 101.698 30.4157C103.046 30.4361 104.381 30.1537 105.605 29.5895C108.094 28.4163 109.503 26.0474 109.969 23.4101C109.98 23.3491 109.957 23.309 109.896 23.309H105.626C105.565 23.3027 105.51 23.3447 105.5 23.4049C105.362 23.9708 105.126 24.5083 104.802 24.9928C104.086 26.0387 102.965 26.4902 101.729 26.4989C99.8352 26.4989 98.3514 25.3589 98.0162 23.424C97.9214 22.8472 97.8631 22.265 97.8416 21.6809C97.8172 20.961 97.805 20.0598 97.805 18.9826Z" fill="#2E2E2E" fill-opacity="0.15"/>
<path d="M52.7236 8.11942C52.7227 7.90706 52.5505 7.73515 52.3378 7.73419H48.712C48.4993 7.73515 48.3271 7.90706 48.3262 8.11942V29.8422C48.3281 30.0539 48.5 30.2247 48.712 30.2259H52.3378C52.5498 30.2247 52.7217 30.0539 52.7236 29.8422V23.4658L55.6337 19.9918L61.6111 30.1106C61.6571 30.1852 61.7399 30.2292 61.8275 30.2259H66.2337C66.4362 30.2259 66.4729 30.1002 66.3716 29.9276L58.5456 16.6799L65.7257 8.07933C65.8706 7.90502 65.8095 7.73942 65.5826 7.73942H60.7662C60.7076 7.73598 60.6511 7.76218 60.616 7.80915L52.7236 17.2603V8.11942Z" fill="#2E2E2E" fill-opacity="0.15"/>
<path d="M79.1402 26.4989C77.0995 26.4989 75.249 24.6128 75.249 22.3607V8.11942C75.2481 7.90706 75.0759 7.73515 74.8632 7.73419H71.2374C71.0247 7.73515 70.8525 7.90706 70.8516 8.11942V22.3049C70.8516 27.2641 74.5665 30.4157 79.1402 30.4157C83.714 30.4157 87.4289 27.2641 87.4289 22.3049V8.11942C87.427 7.90745 87.2554 7.73608 87.0431 7.73419H83.4155C83.2035 7.7361 83.0324 7.90774 83.0314 8.11942V22.3607C83.0314 24.6111 81.1792 26.4989 79.1402 26.4989Z" fill="#2E2E2E" fill-opacity="0.15"/>
<path fill-rule="evenodd" clip-rule="evenodd" d="M11.8793 18.9826L23.1356 30.2239L30.2407 23.1294C31.5112 21.9872 33.4549 22.038 34.6638 23.2451C35.8726 24.4522 35.9235 26.393 34.7796 27.6615L25.4033 37.0256C24.1439 38.2624 22.1239 38.2624 20.8645 37.0256L7.33691 23.5147V31.5452C7.33691 33.3175 5.89801 34.7543 4.12304 34.7543C2.34808 34.7543 0.90918 33.3175 0.90918 31.5452V6.40944C0.90918 4.63711 2.34808 3.20035 4.12304 3.20035C5.89801 3.20035 7.33691 4.63711 7.33691 6.40944V14.44L20.8627 0.932557C22.1218 -0.305156 24.1425 -0.305156 25.4016 0.932557L34.7848 10.2948C35.9288 11.5634 35.8779 13.5042 34.669 14.7113C33.4601 15.9184 31.5164 15.9692 30.246 14.827L23.1409 7.73247L11.8793 18.9826ZM23.1409 15.77C21.8394 15.7693 20.6657 16.5516 20.1672 17.752C19.6687 18.9524 19.9435 20.3344 20.8635 21.2536C21.7835 22.1727 23.1675 22.4479 24.37 21.9507C25.5724 21.4536 26.3565 20.2821 26.3565 18.9826C26.357 18.1305 26.0184 17.3132 25.4154 16.7104C24.8123 16.1076 23.9942 15.7687 23.1409 15.7682V15.77Z" fill="#2E2E2E" fill-opacity="0.15"/>
</g>
<defs>
<clipPath id="clip0_48_460">
<rect width="164.091" height="38" fill="white" transform="translate(0.90918)"/>
</clipPath>
</defs>
</svg>
