<svg width="180" height="38" viewBox="0 0 180 38" fill="none" xmlns="http://www.w3.org/2000/svg">
<g clip-path="url(#clip0_48_473)">
<path d="M61.2626 26.841L47.8775 3.62985C44.9425 -1.20523 37.7962 -1.26194 34.9604 3.82836L20.923 27.9612C18.2999 32.3851 21.5469 37.9433 26.7932 37.9433H54.9387C60.2275 37.9433 64.1977 32.2433 61.2626 26.841Z" fill="#2E2E2E" fill-opacity="0.15"/>
<path d="M41.9649 28.6418L41.1425 27.1955C40.3768 25.8627 38.6753 22.9702 38.6753 22.9702L27.3462 3.31793C24.4253 -1.04924 17.4775 -1.41789 14.5425 4.09778L1.37008 26.8836C-1.35231 31.6761 1.88053 37.9008 7.8074 37.9433H35.7969H47.7358H54.8395C47.5798 38 45.2544 34.2426 41.9649 28.6418Z" fill="#2E2E2E" fill-opacity="0.15"/>
<path d="M41.9649 28.6418L41.1425 27.1956C40.3769 25.8627 38.6754 22.9702 38.6754 22.9702L31.288 10.1523L20.8664 28.018C18.2433 32.4418 21.4903 38 26.7366 38H35.7403H47.6791H54.8254C47.5231 37.9433 45.2545 34.2426 41.9649 28.6418Z" fill="url(#paint0_linear_48_473)" fill-opacity="0.15"/>
<path d="M104.863 32.8182V7.77277H125.591V9.35649C125.591 10.6122 124.588 11.619 123.338 11.619H110.034V18.3498H123.338V22.196H110.034V28.9268H123.338C124.577 28.9268 125.591 29.9336 125.591 31.1892V32.773L104.863 32.8182Z" fill="#2E2E2E" fill-opacity="0.15"/>
<path d="M154.909 7.77277H150.082C149.179 7.77277 148.376 8.15635 147.808 8.87838L141.977 16.313L136.147 8.93479C135.578 8.21275 134.775 7.82917 133.872 7.82917H129.045L138.856 20.2955L129.045 32.7618H133.872C134.775 32.7618 135.578 32.3782 136.147 31.6562L141.977 24.2779L147.852 31.7126C148.421 32.3782 149.224 32.8182 150.127 32.8182H154.954L145.143 20.3519L154.909 7.77277Z" fill="#2E2E2E" fill-opacity="0.15"/>
<path d="M88.5513 30.2277L95.3616 18.3045V32.8182H100.546V7.78408H97.3268C96.3216 7.78408 95.3616 8.31576 94.876 9.23205L86.7217 24.1304L78.5675 9.22074C78.0818 8.30444 77.1218 7.77277 76.1167 7.77277H72.9092V32.8182H78.0931V18.3045L84.9034 30.2277H88.5513Z" fill="#2E2E2E" fill-opacity="0.15"/>
<path d="M168.754 32.8171C161.651 32.9085 155.863 27.1879 155.818 19.9145C155.818 15.9295 157 12.6297 159.231 10.3574C161.461 8.11945 164.684 6.90912 168.52 6.90912C173.025 6.90912 176.572 8.50767 179.137 11.6134L177.531 13.0179C176.538 13.8857 175.066 13.9428 173.973 13.1206C172.546 12.0017 170.75 11.465 168.71 11.465C163.691 11.465 160.703 14.5708 160.703 19.8117C160.703 25.0984 163.781 28.3526 168.71 28.3526C170.795 28.3526 172.546 27.7703 173.973 26.7084C175.022 25.8862 176.482 25.9319 177.531 26.8111L179.137 28.2156C176.572 31.2642 173.159 32.8171 168.754 32.8171Z" fill="#2E2E2E" fill-opacity="0.15"/>
</g>
<defs>
<linearGradient id="paint0_linear_48_473" x1="17.7992" y1="19.9381" x2="48.2879" y2="31.908" gradientUnits="userSpaceOnUse">
<stop stop-color="#2E2E2E" stop-opacity="0"/>
<stop offset="1" stop-color="#2E2E2E"/>
</linearGradient>
<clipPath id="clip0_48_473">
<rect width="179.636" height="38" fill="white" transform="translate(0.363281)"/>
</clipPath>
</defs>
</svg>
