<svg width="177" height="38" viewBox="0 0 177 38" fill="none" xmlns="http://www.w3.org/2000/svg">
<g clip-path="url(#clip0_48_469)">
<path fill-rule="evenodd" clip-rule="evenodd" d="M98.1025 15.4444C97.1779 12.2603 98.7026 9.61926 101.956 8.77057C102.889 8.52704 107.114 8.63692 107.837 8.92364C108.103 9.02869 108.219 9.43196 108.221 10.2607C108.223 10.9134 108.292 11.7061 108.374 12.0222C108.498 12.5013 108.426 12.5956 107.937 12.5879C107.496 12.5808 107.229 12.3128 106.856 11.5019C106.26 10.2068 105.539 9.79482 103.858 9.78998C101.712 9.7836 100.143 11.2793 100.398 13.0866C100.565 14.2626 101.699 15.4198 104.246 17.0106C106.669 18.5238 108.084 19.7683 108.647 20.8832C110.154 23.864 108.867 27.0539 105.51 28.6612C103.787 29.4861 100.898 29.5714 98.8676 28.8573L97.5672 28.3999V26.2486C97.5672 24.3002 97.612 24.0969 98.041 24.0969C98.3998 24.0969 98.5548 24.3425 98.6806 25.1117C98.994 27.0244 100.398 28.1855 102.397 28.1855C104.356 28.1855 105.725 27.0775 106.25 25.0684C106.473 24.2125 106.434 23.897 105.991 22.9528C105.46 21.8208 104.546 21.0696 101.44 19.2147C99.7172 18.1852 98.4986 16.8088 98.1025 15.4444ZM37.2248 10.0417C36.8011 10.0417 36.6357 9.89832 36.6357 9.53058C36.6357 9.04376 36.8011 9.01948 40.1216 9.01948C43.2036 9.01948 43.598 9.06752 43.5273 9.43372C43.4831 9.66167 43.0572 9.9778 42.5804 10.1365L41.7133 10.425L41.6394 16.9415C41.5898 21.2898 41.6595 23.7982 41.8486 24.4801C42.4109 26.5083 44.126 27.6746 46.5459 27.6746C48.2306 27.6746 49.2147 27.2668 50.4511 26.0556C51.781 24.7536 51.9931 23.5165 51.9889 17.0867C51.9848 10.7445 51.8781 10.2211 50.5626 10.0895C49.964 10.0294 49.7634 9.88501 49.7634 9.51447C49.7634 9.05243 49.9609 9.01948 52.7356 9.01948C55.5427 9.01948 55.7078 9.04785 55.7078 9.53058C55.7078 9.84542 55.5414 10.0432 55.2743 10.0455C54.1272 10.056 54.1061 10.169 53.9517 17.1234C53.7916 24.3454 53.6419 25.2005 52.2283 26.9696C51.8207 27.48 50.8484 28.221 50.068 28.6165C48.7961 29.261 48.3915 29.335 46.1718 29.3308C44.1256 29.3264 43.4796 29.2241 42.4565 28.7419C40.963 28.0379 39.9917 27.1269 39.2756 25.7579C38.7758 24.8022 38.7331 24.2851 38.6174 17.8103C38.4848 10.399 38.4206 10.0417 37.2248 10.0417ZM60.4023 10.0417C59.836 10.0417 59.6709 9.92617 59.6709 9.53058C59.6709 9.05144 59.8291 9.02077 62.2096 9.04045L64.7485 9.0614L65.9632 10.5098C66.6309 11.3064 68.8079 13.7983 70.8004 16.047C72.7932 18.2959 75.0809 20.912 75.8842 21.8607C76.6876 22.8096 77.4438 23.5857 77.5646 23.5857C77.6888 23.5857 77.7507 20.9056 77.7064 17.4301L77.6282 11.2744L76.9332 10.6581C76.551 10.3189 75.9662 10.0417 75.633 10.0417C75.1899 10.0417 75.0277 9.90265 75.0277 9.52342C75.0277 9.02432 75.1541 9.00772 78.4332 9.07621C81.2216 9.13447 81.839 9.21498 81.839 9.5201C81.839 9.73758 81.4942 9.9658 81.011 10.0678C80.5558 10.1639 80.0541 10.3754 79.8964 10.538C79.693 10.7478 79.5894 13.4605 79.539 19.8928L79.4679 28.9522H78.7501C78.1321 28.9522 77.3964 28.2321 73.4635 23.7773C70.9506 20.931 68.0175 17.5483 66.9454 16.2602C65.8732 14.9719 64.9125 13.9081 64.8104 13.8964C64.5228 13.8631 64.5924 25.3727 64.8864 26.4652C65.1157 27.3165 65.2734 27.4631 66.2475 27.7321C67.032 27.9485 67.3493 28.1681 67.3493 28.4942C67.3493 28.9129 67.0502 28.9522 63.8816 28.9522C60.6561 28.9522 60.414 28.9188 60.414 28.4731C60.414 28.1468 60.6473 27.9459 61.1458 27.843C62.6583 27.531 62.7586 27.0357 62.8435 19.4646C62.891 15.2242 62.8213 12.2573 62.659 11.6361C62.374 10.5436 61.6636 10.0417 60.4023 10.0417ZM86.3741 10.0417C85.8434 10.0417 85.6783 9.9203 85.6783 9.53058C85.6783 9.04224 85.8434 9.01948 89.3936 9.01948C92.9436 9.01948 93.109 9.04224 93.109 9.53058C93.109 9.90548 92.9436 10.0417 92.4896 10.0417C92.1492 10.0417 91.643 10.2763 91.3651 10.563C90.8745 11.0693 90.8618 11.321 90.9317 19.1448C90.9998 26.7824 91.0289 27.2243 91.4842 27.5677C91.7488 27.767 92.2224 27.93 92.5369 27.93C92.9436 27.93 93.109 28.0774 93.109 28.4412C93.109 28.9295 92.9436 28.9522 89.3936 28.9522C85.9279 28.9522 85.6783 28.92 85.6783 28.4739C85.6783 28.1141 85.9214 27.9552 86.6595 27.8334C88.1252 27.5917 88.2001 27.0966 88.1087 18.2622C88.0357 11.1873 88.0043 10.7462 87.5505 10.404C87.2859 10.2047 86.7566 10.0417 86.3741 10.0417ZM112.29 10.0417C111.952 10.0417 111.694 9.84721 111.614 9.53058C111.489 9.03636 111.606 9.01948 115.176 9.01948C118.703 9.01948 118.868 9.04224 118.868 9.53058C118.868 9.92335 118.703 10.0417 118.156 10.0417C116.596 10.0417 116.631 10.334 118.991 17.0171C120.192 20.419 121.359 23.6506 121.583 24.1982L121.99 25.1942L123.882 19.9817C126.109 13.8461 126.399 12.7114 126.02 11.5923C125.757 10.8124 124.732 10.0417 123.958 10.0417C123.74 10.0417 123.575 9.82192 123.575 9.53058C123.575 9.04146 123.74 9.01948 127.414 9.01948C131.088 9.01948 131.253 9.04146 131.253 9.53058C131.253 9.89424 131.088 10.0417 130.681 10.0417C129.64 10.0417 129.181 10.6146 129.33 11.7278C129.484 12.8737 133.744 25.1892 133.923 25.0049C134.214 24.7052 138.931 11.4475 138.931 10.9307C138.931 10.3115 138.511 10.0417 137.549 10.0417C137.115 10.0417 136.95 9.90088 136.95 9.53058C136.95 9.04785 137.115 9.01948 139.922 9.01948C142.443 9.01948 142.894 9.07982 142.894 9.41611C142.894 9.63436 142.586 9.92387 142.208 10.0596C141.359 10.3649 141.146 10.7135 140.081 13.537C139.613 14.7769 138.149 18.6575 136.828 22.16C135.506 25.6629 134.368 28.6816 134.299 28.8682C134.229 29.0551 133.819 29.2078 133.388 29.2078H132.604L130.825 24.4162C129.846 21.7811 128.69 18.6591 128.256 17.4785C127.512 15.4555 127.449 15.3676 127.169 15.945C127.006 16.2824 125.83 19.41 124.556 22.8955L122.241 29.2328L121.377 29.1565L120.513 29.0801L117.217 20.1558C115.375 15.1699 113.682 10.9688 113.379 10.6366C113.081 10.3092 112.591 10.0417 112.29 10.0417ZM161.816 10.1501C161.775 10.053 161.775 9.70412 161.775 9.70412C161.775 9.70412 161.766 9.57828 161.817 9.51116C161.867 9.44425 161.885 9.44247 162.068 9.42454L162.069 9.42436C162.738 9.35851 164.08 9.24767 165.2 9.19709C165.302 9.19245 165.416 9.18709 165.54 9.18128L165.543 9.18116L165.544 9.18108C166.776 9.12318 168.983 9.04571 170.498 9.12413C173.406 9.27458 175.475 10.73 176.18 13.1352C176.885 15.5402 176.512 17.7978 175.551 19.2349C174.59 20.6719 172.975 21.9093 170.289 21.8287C168.072 21.7623 167.479 21.3325 167.005 20.9891C166.905 20.9165 166.81 20.8477 166.706 20.7872V23.8543C166.73 25.9461 166.747 26.9508 166.903 27.3227C167.114 27.8233 167.59 28.1318 168.519 28.3682C168.519 28.3682 168.939 28.4702 169.047 28.5789C169.155 28.6875 169.155 28.9289 169.155 28.9289C169.155 28.9289 169.177 29.1547 169.09 29.2697C169.003 29.3848 168.835 29.3617 168.835 29.3617L164.724 29.3274L162.245 29.3207C162.245 29.3207 161.985 29.3723 161.888 29.264C161.79 29.1555 161.799 28.9295 161.799 28.9295C161.799 28.9295 161.821 28.6862 161.935 28.5773C162.048 28.4682 162.471 28.3464 162.471 28.3464C163.427 28.0685 163.842 27.7745 164.059 27.2207C164.233 26.7742 164.234 25.9463 164.233 19.1899C164.231 12.7825 164.222 11.5873 164.08 11.2435C163.87 10.7347 163.344 10.5999 162.595 10.4079C162.447 10.3699 162.289 10.3295 162.124 10.2836C162.124 10.2836 161.858 10.2471 161.816 10.1501ZM173.787 15.3783C173.787 16.429 173.769 18.0739 172.689 19.1254C171.609 20.1769 169.481 20.4647 168.038 20.1719C167.582 20.0797 167.322 19.9375 167.122 19.8278L167.102 19.8169L166.732 19.6153L166.711 15.9238C166.697 13.6108 166.721 12.1039 166.773 11.8884C166.821 10.6688 168.559 10.5171 169.408 10.5623C173.04 10.5623 173.681 13.7308 173.787 15.3783ZM150.411 9.16261C150.411 9.16261 150.234 9.23311 149.965 9.33867L148.995 9.8573L148.297 11.6625C147.913 12.6553 147.21 14.4778 146.735 15.7126C145.871 17.9615 145.3 19.439 144.699 20.9812C144.523 21.4348 143.989 22.8161 143.514 24.0509C143.038 25.2854 142.563 26.4605 142.458 26.662C142.44 26.6955 142.422 26.7316 142.402 26.7697C142.137 27.287 141.675 28.1855 140.859 28.3214C140.859 28.3214 140.411 28.367 140.245 28.5368C140.079 28.7068 140.095 28.8456 140.095 28.8456V29.0597C140.095 29.0597 140.11 29.1634 140.204 29.215C140.298 29.2667 140.425 29.2697 140.425 29.2697L143.408 29.2346H146.492C146.492 29.2346 146.71 29.261 146.794 29.1888C146.878 29.1166 146.901 29.0095 146.901 29.0095V28.7841C146.901 28.7841 146.858 28.5398 146.736 28.4444C146.614 28.3492 146.156 28.2839 146.156 28.2839C144.922 28.1159 144.71 27.1493 144.862 26.2802C144.937 25.8531 145.433 24.2734 145.991 22.683L146.185 22.1334L149.415 22.1078C151.192 22.0937 152.726 22.1033 152.824 22.129C152.964 22.1657 153.161 22.5785 153.737 24.0487C154.611 26.2762 154.68 26.5475 154.487 26.9643C154.475 26.9897 154.463 27.0176 154.449 27.0478C154.268 27.4508 153.915 28.2339 153.028 28.3137C153.028 28.3137 152.557 28.3305 152.439 28.4763C152.322 28.6223 152.348 28.7901 152.348 28.7901V29.013C152.348 29.013 152.379 29.1438 152.439 29.1955C152.5 29.2473 152.602 29.2342 152.602 29.2342L155.535 29.2124L159.657 29.2122C159.657 29.2122 159.818 29.23 159.862 29.1658C159.906 29.1013 159.916 29.0255 159.916 29.0255V28.7294C159.916 28.7294 159.898 28.5719 159.818 28.485C159.739 28.3984 159.204 28.3067 159.204 28.3067C158.522 28.1927 158.182 27.6091 157.928 27.1745C157.864 27.0636 157.805 26.9625 157.747 26.8814C157.63 26.7157 157.211 25.8081 156.882 24.9351C156.554 24.0622 155.814 22.0902 155.237 20.5531C154.66 19.0161 153.855 16.8719 153.448 15.7885C153.04 14.7049 152.267 12.6433 151.728 11.207C151.64 10.9712 151.561 10.7595 151.49 10.5699C151.129 9.60538 150.983 9.2153 150.943 9.16261C150.813 8.99156 150.411 9.16261 150.411 9.16261ZM150.219 15.032C150.089 14.7045 149.86 14.117 149.71 13.7265C149.438 13.0166 149.335 12.853 149.251 12.9997C149.226 13.0425 149.055 13.5277 148.87 14.0779C147.675 17.6403 147.133 19.2444 147.025 19.5467C146.957 19.7367 146.901 19.9325 146.901 19.9819C146.901 20.0386 147.873 20.0717 149.539 20.0717C150.99 20.0717 152.177 20.0531 152.177 20.0303C152.177 20.0075 152.048 19.6675 151.89 19.2744C151.732 18.8812 151.344 17.9 151.029 17.0937C150.714 16.2874 150.349 15.3597 150.219 15.032Z" fill="#2E2E2E" fill-opacity="0.15"/>
<path d="M9.59791 12.1933C8.92341 11.2472 4.75478 5.39977 0.95812 0.745302C0.623777 0.335409 0.358863 0 0.369447 0C0.418989 0 11.6068 12.412 12.4118 13.3601L12.6341 13.6219L12.6147 14.029C12.5892 14.5661 12.4227 14.9229 12.0249 15.2931C11.5664 15.72 11.0085 15.9489 10.1324 16.0697C9.59498 16.144 9.3995 16.2258 9.18234 16.4675C8.97414 16.6991 8.89453 16.9877 8.83705 17.7197C8.74805 18.8528 8.61648 19.3317 8.08557 20.4557C7.57263 21.5416 7.46853 21.952 7.55826 22.5335C7.66765 23.2424 8.06367 23.7578 8.99089 24.3981C9.69853 24.8867 10.0196 25.2018 10.196 25.581C10.3043 25.8139 10.3184 25.8986 10.3163 26.3034C10.3131 26.9224 10.2146 27.1717 9.79509 27.6235C9.11724 28.3532 7.91199 28.9486 6.42768 29.2872C5.80744 29.4286 5.78006 29.4285 5.78006 29.2836C5.78006 29.1015 5.54959 28.6362 5.14932 28.0101C4.68552 27.2845 4.5041 26.9216 4.33028 26.3722C4.13175 25.7447 4.07568 25.3207 4.10447 24.6642C4.1317 24.0434 4.19891 23.7681 4.44328 23.2764C4.63731 22.886 4.76312 22.7085 5.53203 21.7398C6.8456 20.0852 7.31958 19.1183 7.48815 17.7496C7.6385 16.5287 7.8468 15.9388 8.31275 15.4137C8.59225 15.0987 8.65408 14.9784 8.65408 14.7496C8.65408 14.6371 7.75337 12.8784 6.43662 10.4986C4.33959 6.70868 4.33855 6.7067 4.39971 6.76505C4.42617 6.79027 5.39596 8.29692 6.55477 10.1132C8.06929 12.4868 9.18152 14.1184 9.34407 14.2741C9.57403 14.4945 9.88986 14.6308 10.1702 14.6308C10.418 14.6308 10.6664 14.5853 10.9072 14.447C11.2057 14.2756 11.0572 14.089 10.557 13.4601L10.5568 13.4599C10.3315 13.1767 10.0348 12.8037 9.67546 12.302L9.59799 12.1934L9.59791 12.1933Z" fill="#2E2E2E" fill-opacity="0.15"/>
<path d="M11.5053 7.56227C11.3363 7.58851 11.3514 7.59511 11.7106 7.65138C13.0188 7.85636 14.0408 8.38022 15.081 9.3791C15.5387 9.81871 15.9989 10.3646 16.7433 11.3512C18.4196 13.5726 19.1308 14.1915 20.5421 14.6562C21.3714 14.9293 22.2077 15.0568 23.6856 15.1355C25.3218 15.2226 25.9398 15.3555 26.5241 15.746C26.8483 15.9627 27.1013 16.2314 27.3534 16.6259L27.4997 16.8552L27.4692 16.603C27.3517 15.6355 26.6675 14.2763 25.7967 13.2796L25.6379 13.0979L25.5577 13.463C25.3559 14.3823 24.9205 15.0429 24.5159 15.0434C24.3182 15.0437 24.1185 14.9162 24.0469 14.744C23.9573 14.5281 23.9648 14.4481 24.0981 14.1959C24.3433 13.7323 24.4038 13.1117 24.2828 12.302C24.248 12.0679 24.1962 11.8486 24.1682 11.8145C24.08 11.7076 23.3739 11.2916 22.9259 11.0826C21.2978 10.3229 19.3512 10.076 17.4378 10.3866L16.9835 10.4604L16.6661 10.1033C15.471 8.75928 14.3514 8.00251 13.121 7.70711C12.594 7.58052 11.8292 7.51195 11.5053 7.56227Z" fill="#2E2E2E" fill-opacity="0.15"/>
<path d="M24.806 8.35884C24.6275 8.75708 24.5387 9.19317 24.5015 9.8543C24.4776 10.2808 24.4537 10.4258 24.4044 10.4449C24.3308 10.4733 24.2309 10.4427 23.6251 10.2074C23.2179 10.0491 22.206 9.75083 22.1765 9.78038C22.1689 9.78817 22.3806 9.89251 22.6469 10.0123C22.9134 10.1321 23.3466 10.3586 23.6093 10.5156C24.6469 11.1355 24.8239 11.4974 24.8253 13.0027C24.8259 13.7518 24.8166 13.8513 24.7244 14.0777C24.6011 14.3809 24.6226 14.4383 24.759 14.1696C25.011 13.673 25.1154 13.1762 25.1304 12.4024C25.1401 11.9058 25.1548 11.8008 25.2243 11.7309C25.2997 11.655 25.3179 11.654 25.4403 11.7176C25.6227 11.8124 26.4485 12.4759 26.8076 12.8162L27.1013 13.0944L26.8076 12.7051C26.6461 12.491 26.2006 11.9923 25.8176 11.5969C25.001 10.7539 24.9364 10.6413 24.8231 9.86091C24.7336 9.24586 24.755 8.71723 24.8847 8.33072C24.9325 8.18854 24.9632 8.07218 24.9529 8.07218C24.9428 8.07218 24.8766 8.20121 24.806 8.35884Z" fill="#2E2E2E" fill-opacity="0.15"/>
<path d="M12.4082 12.4293C11.6791 11.4154 11.228 9.86083 11.3256 8.69871L11.3558 8.33907L11.5218 8.36967C11.8335 8.42709 12.3708 8.62912 12.6225 8.78351C13.313 9.20712 13.612 9.76483 13.9161 11.197C14.0052 11.6164 14.1221 12.0911 14.1759 12.2518C14.2625 12.5105 14.5896 13.1147 14.8556 13.5072C15.0472 13.7898 14.92 13.9237 14.4964 13.8851C13.8496 13.8261 12.9734 13.2153 12.4082 12.4293Z" fill="#2E2E2E" fill-opacity="0.15"/>
<path d="M19.0096 15.3573C19.0096 17.3869 20.2097 18.5898 23.6172 19.9755C25.8863 20.8984 26.8144 21.3756 27.5052 21.9752C28.1128 22.5027 28.4746 23.2066 28.5096 23.9297C28.5161 24.0646 28.5412 24.1637 28.5669 24.1553C28.6592 24.1251 29.0075 23.3379 29.1217 22.901C29.2662 22.348 29.3185 21.2987 29.2293 20.7391C28.9225 18.8133 27.6357 17.3996 25.556 16.7029C24.9016 16.4836 24.1923 16.3337 22.9319 16.1478C20.7899 15.8322 20.0161 15.5931 19.3251 15.0334C19.1764 14.9129 19.0447 14.8143 19.0322 14.8143C19.0198 14.8143 19.0096 15.0587 19.0096 15.3573Z" fill="#2E2E2E" fill-opacity="0.15"/>
<path d="M21.225 20.5512C21.1824 20.2945 21.1083 19.9669 21.0604 19.823L20.9735 19.5613L21.135 19.7443C21.3586 19.9978 21.5351 20.3219 21.6848 20.7539C21.7991 21.0834 21.8119 21.1814 21.8109 21.717C21.8102 22.2427 21.7959 22.3529 21.6905 22.6496C21.524 23.1173 21.3176 23.449 20.9713 23.8051C20.3489 24.4449 19.5485 24.7993 18.3938 24.9462C18.193 24.9717 17.608 25.0148 17.0936 25.0417C15.7974 25.1098 14.9443 25.2505 14.1777 25.5224C14.0675 25.5615 13.9691 25.5852 13.9591 25.5751C13.9281 25.5439 14.45 25.2298 14.8811 25.02C15.489 24.7242 16.0941 24.5627 17.4498 24.3347C18.1196 24.2221 18.8112 24.0854 18.9868 24.031C20.6453 23.5174 21.4979 22.1918 21.225 20.5512Z" fill="#2E2E2E" fill-opacity="0.15"/>
<path d="M22.4783 20.536C22.2304 21.4211 22.3342 22.3701 22.7871 23.3532C23.0143 23.8467 23.2409 24.2193 24.1649 25.619C24.9597 26.8229 25.3533 27.5353 25.5465 28.119C25.8617 29.0724 25.8142 29.929 25.3972 30.8096C25.2987 31.0178 25.2325 31.1877 25.2501 31.1874C25.2678 31.1869 25.4309 31.1052 25.6125 31.0058C26.8523 30.3262 27.7215 29.1618 28.0955 27.6794C28.2141 27.2093 28.2608 26.0857 28.181 25.6188C28.0404 24.7945 27.7481 24.1186 27.2758 23.5252C26.7365 22.8473 25.9434 22.2542 24.5523 21.4882C23.4377 20.8743 23.0192 20.6354 22.8107 20.4936C22.7057 20.4223 22.599 20.3639 22.5733 20.3639C22.5475 20.3639 22.5049 20.4413 22.4783 20.536Z" fill="#2E2E2E" fill-opacity="0.15"/>
<path d="M9.98839 28.6571C11.2529 27.5787 12.8262 26.8126 14.2593 26.5775C14.8769 26.476 15.9058 26.5162 16.4778 26.6641C17.3946 26.9011 18.2146 27.4319 18.6411 28.0643C19.058 28.6824 19.2368 29.2211 19.423 30.4193C19.4964 30.8921 19.5762 31.3668 19.6005 31.4743C19.7403 32.0953 20.0123 32.5918 20.3495 32.841C20.885 33.237 21.8071 33.2616 22.7142 32.9042C22.8683 32.8436 23.0019 32.8016 23.0113 32.8109C23.0442 32.844 22.5874 33.1529 22.2652 33.3156C21.8315 33.5342 21.4868 33.6188 21.0286 33.6188C20.1978 33.6188 19.5082 33.1919 18.9324 32.3215C18.8192 32.1502 18.5646 31.6371 18.3667 31.1812C17.759 29.7812 17.459 29.3547 16.7535 28.8879C16.1394 28.4818 15.3475 28.4091 14.7517 28.7041C13.9692 29.0917 13.7508 30.1019 14.3113 30.742C14.5341 30.9963 14.9495 31.2157 15.2892 31.2585C15.9246 31.3383 16.4707 30.85 16.4707 30.2019C16.4707 29.7811 16.3106 29.541 15.9075 29.3572C15.357 29.1064 14.7652 29.3997 14.768 29.922C14.7693 30.1448 14.8653 30.2847 15.0864 30.3858C15.2282 30.4505 15.2315 30.4557 15.1159 30.4314C14.6107 30.3256 14.4924 29.7105 14.8985 29.3021C15.3861 28.8119 16.3945 29.0282 16.7406 29.6975C16.8861 29.9785 16.9031 30.5382 16.7763 30.8763C16.4924 31.6328 15.6648 32.0305 14.8252 31.8141C14.2536 31.6667 14.0209 31.5071 13.3317 30.7901C12.1341 29.5441 11.6692 29.3026 9.94277 29.0304L9.61193 28.9782L9.98839 28.6571Z" fill="#2E2E2E" fill-opacity="0.15"/>
<path d="M13.187 16.2833C12.7757 16.4109 12.3759 16.8513 12.2521 17.313C12.1766 17.5946 12.2195 18.0886 12.3326 18.2413C12.5153 18.4876 12.692 18.5525 13.1704 18.5492C14.107 18.5426 14.9213 18.1368 15.0159 17.6296C15.0935 17.2137 14.7359 16.6375 14.2433 16.3845C13.9892 16.254 13.4486 16.2023 13.187 16.2833Z" fill="#2E2E2E" fill-opacity="0.15"/>
</g>
<defs>
<clipPath id="clip0_48_469">
<rect width="176.182" height="38" fill="white" transform="translate(0.363281)"/>
</clipPath>
</defs>
</svg>
