<svg width="40" height="40" viewBox="0 0 40 40" fill="none" xmlns="http://www.w3.org/2000/svg">
<path d="M0 19.9995C0 10.5714 0 5.85738 2.92893 2.92844C5.85786 -0.000488281 10.5719 -0.000488281 20 -0.000488281C29.4281 -0.000488281 34.1421 -0.000488281 37.0711 2.92844C40 5.85738 40 10.5714 40 19.9995C40 29.4276 40 34.1416 37.0711 37.0706C34.1421 39.9995 29.4281 39.9995 20 39.9995C10.5719 39.9995 5.85786 39.9995 2.92893 37.0706C0 34.1416 0 29.4276 0 19.9995Z" fill="#FEFDFC"/>
<g clip-path="url(#clip0_13_114)">
<path d="M19.9454 25.9688L12.5781 21.621L19.9409 32.0003L27.3119 21.621L19.9409 25.9688H19.9454ZM20.0549 7.99951L12.6906 20.2223L20.0549 24.5775L27.4221 20.2268L20.0549 7.99951Z" fill="#4D78E9"/>
</g>
<defs>
<clipPath id="clip0_13_114">
<rect width="24" height="24" fill="white" transform="translate(8 7.99951)"/>
</clipPath>
</defs>
</svg>
