<svg width="40" height="40" viewBox="0 0 40 40" fill="none" xmlns="http://www.w3.org/2000/svg">
<path d="M0 19.9995C0 10.5714 0 5.85738 2.92893 2.92844C5.85786 -0.000488281 10.5719 -0.000488281 20 -0.000488281V-0.000488281C29.4281 -0.000488281 34.1421 -0.000488281 37.0711 2.92844C40 5.85738 40 10.5714 40 19.9995V19.9995C40 29.4276 40 34.1416 37.0711 37.0706C34.1421 39.9995 29.4281 39.9995 20 39.9995V39.9995C10.5719 39.9995 5.85786 39.9995 2.92893 37.0706C0 34.1416 0 29.4276 0 19.9995V19.9995Z" fill="#FEFDFC"/>
<g clip-path="url(#clip0_13_122)">
<path d="M14.663 14.1549C14.1029 13.367 10.6416 8.49684 7.48905 4.62025C7.21143 4.27886 6.99147 3.99951 7.00025 3.99951C7.04139 3.99951 16.331 14.3371 16.9994 15.1267L17.184 15.3448L17.1679 15.6838C17.1467 16.1311 17.0085 16.4283 16.6782 16.7367C16.2974 17.0922 15.8342 17.2829 15.1067 17.3835C14.6605 17.4453 14.4982 17.5135 14.3179 17.7147C14.145 17.9077 14.0789 18.1481 14.0312 18.7577C13.9573 19.7014 13.848 20.1003 13.4072 21.0364C12.9813 21.9408 12.8949 22.2826 12.9694 22.767C13.0602 23.3574 13.389 23.7866 14.1589 24.3199C14.7465 24.7268 15.0131 24.9893 15.1595 25.3051C15.2495 25.4991 15.2612 25.5696 15.2595 25.9068C15.2568 26.4223 15.175 26.63 14.8267 27.0062C14.2638 27.614 13.2631 28.1098 12.0306 28.3919C11.5156 28.5097 11.4929 28.5096 11.4929 28.3889C11.4929 28.2372 11.3015 27.8497 10.9691 27.3283C10.584 26.7239 10.4334 26.4216 10.2891 25.964C10.1242 25.4414 10.0777 25.0883 10.1016 24.5416C10.1242 24.0245 10.18 23.7952 10.3829 23.3857C10.544 23.0605 10.6485 22.9127 11.2869 22.1059C12.3776 20.7279 12.7712 19.9225 12.9112 18.7826C13.036 17.7658 13.209 17.2744 13.5958 16.8371C13.8279 16.5748 13.8793 16.4746 13.8793 16.284C13.8793 16.1903 13.1314 14.7256 12.038 12.7435C10.2968 9.58696 10.2959 9.58531 10.3467 9.6339C10.3687 9.65491 11.1739 10.9098 12.1361 12.4224C13.3937 14.3994 14.3172 15.7583 14.4522 15.888C14.6431 16.0715 14.9054 16.1851 15.1381 16.1851C15.3439 16.1851 15.5502 16.1471 15.7501 16.032C15.9979 15.8892 15.8747 15.7338 15.4593 15.21L15.4592 15.2099C15.2721 14.974 15.0258 14.6633 14.7274 14.2454L14.663 14.155L14.663 14.1549Z" fill="#F43EC1"/>
<path d="M16.2467 10.2979C16.1064 10.3197 16.1189 10.3252 16.4172 10.3721C17.5035 10.5428 18.3521 10.9791 19.2157 11.8111C19.5958 12.1772 19.9779 12.6319 20.596 13.4536C21.9879 15.3037 22.5785 15.8191 23.7503 16.2062C24.4389 16.4337 25.1333 16.5399 26.3605 16.6054C27.7191 16.6779 28.2322 16.7886 28.7173 17.1139C28.9866 17.2943 29.1967 17.5181 29.406 17.8467L29.5274 18.0377L29.5021 17.8276C29.4045 17.0218 28.8364 15.8898 28.1133 15.0596L27.9815 14.9083L27.915 15.2124C27.7473 15.978 27.3858 16.5283 27.0499 16.5287C26.8857 16.5289 26.7199 16.4228 26.6605 16.2793C26.5861 16.0995 26.5922 16.0329 26.7029 15.8228C26.9066 15.4367 26.9568 14.9198 26.8564 14.2454C26.8274 14.0505 26.7845 13.8678 26.7612 13.8394C26.688 13.7504 26.1016 13.4039 25.7297 13.2298C24.3778 12.5971 22.7615 12.3915 21.1727 12.6502L20.7955 12.7116L20.5319 12.4142C19.5396 11.2948 18.61 10.6646 17.5883 10.4185C17.1507 10.3131 16.5157 10.256 16.2467 10.2979Z" fill="#F43EC1"/>
<path d="M27.2907 10.9613C27.1426 11.293 27.0688 11.6562 27.0379 12.2068C27.0181 12.562 26.9982 12.6828 26.9573 12.6987C26.8962 12.7224 26.8132 12.6969 26.3102 12.5009C25.9721 12.3691 25.1319 12.1207 25.1074 12.1453C25.1011 12.1518 25.2769 12.2387 25.498 12.3384C25.7193 12.4382 26.079 12.6269 26.2971 12.7576C27.1586 13.2739 27.3056 13.5753 27.3068 14.829C27.3073 15.453 27.2995 15.5358 27.223 15.7244C27.1206 15.9769 27.1385 16.0247 27.2517 15.8009C27.461 15.3873 27.5476 14.9736 27.5601 14.329C27.5681 13.9155 27.5804 13.828 27.6381 13.7698C27.7007 13.7066 27.7158 13.7057 27.8174 13.7587C27.9689 13.8377 28.6546 14.3903 28.9528 14.6737L29.1967 14.9054L28.9528 14.5812C28.8187 14.4029 28.4487 13.9875 28.1307 13.6582C27.4527 12.9561 27.3991 12.8623 27.3049 12.2123C27.2307 11.7001 27.2484 11.2598 27.3561 10.9379C27.3958 10.8195 27.4213 10.7226 27.4127 10.7226C27.4043 10.7226 27.3494 10.83 27.2907 10.9613Z" fill="#F43EC1"/>
<path d="M16.9965 14.3515C16.391 13.507 16.0165 12.2123 16.0975 11.2444L16.1226 10.9449L16.2604 10.9703C16.5192 11.0182 16.9654 11.1864 17.1744 11.315C17.7477 11.6678 17.996 12.1323 18.2485 13.3251C18.3225 13.6745 18.4195 14.0698 18.4642 14.2037C18.5361 14.4191 18.8078 14.9224 19.0286 15.2492C19.1877 15.4846 19.082 15.5961 18.7304 15.564C18.1933 15.5148 17.4658 15.0061 16.9965 14.3515Z" fill="#F43EC1"/>
<path d="M22.4778 16.7902C22.4778 18.4805 23.4743 19.4823 26.3037 20.6365C28.1878 21.4051 28.9584 21.8026 29.532 22.302C30.0365 22.7413 30.3369 23.3276 30.3659 23.9298C30.3713 24.0422 30.3922 24.1247 30.4135 24.1177C30.4902 24.0925 30.7794 23.4369 30.8742 23.073C30.9942 22.6124 31.0376 21.7385 30.9636 21.2725C30.7088 19.6685 29.6404 18.4911 27.9135 17.9108C27.3701 17.7282 26.7812 17.6033 25.7347 17.4485C23.956 17.1857 23.3135 16.9865 22.7398 16.5203C22.6163 16.42 22.507 16.3379 22.4966 16.3379C22.4863 16.3379 22.4778 16.5414 22.4778 16.7902Z" fill="#F43EC1"/>
<path d="M24.3173 21.1159C24.2819 20.9022 24.2204 20.6293 24.1807 20.5095L24.1085 20.2915L24.2426 20.4439C24.4283 20.6551 24.5748 20.925 24.6991 21.2847C24.794 21.5592 24.8047 21.6408 24.8039 22.0869C24.8032 22.5247 24.7914 22.6165 24.7038 22.8636C24.5656 23.2532 24.3942 23.5295 24.1067 23.826C23.5899 24.3589 22.9253 24.654 21.9665 24.7764C21.7998 24.7976 21.314 24.8335 20.8869 24.8559C19.8106 24.9126 19.1022 25.0299 18.4657 25.2563C18.3742 25.2889 18.2925 25.3086 18.2842 25.3002C18.2584 25.2742 18.6918 25.0126 19.0498 24.8379C19.5545 24.5915 20.0569 24.457 21.1827 24.2671C21.7388 24.1734 22.313 24.0594 22.4588 24.0142C23.836 23.5864 24.5439 22.4824 24.3173 21.1159Z" fill="#F43EC1"/>
<path d="M25.358 21.1033C25.1521 21.8404 25.2384 22.6309 25.6144 23.4497C25.803 23.8607 25.9912 24.171 26.7584 25.3367C27.4184 26.3395 27.7452 26.9328 27.9056 27.419C28.1674 28.213 28.1279 28.9264 27.7816 29.6599C27.6999 29.8333 27.6449 29.9748 27.6595 29.9745C27.6742 29.9741 27.8097 29.9061 27.9604 29.8232C28.9899 29.2573 29.7116 28.2875 30.0222 27.0528C30.1206 26.6613 30.1594 25.7255 30.0931 25.3366C29.9764 24.6501 29.7337 24.0871 29.3415 23.5929C28.8937 23.0283 28.2352 22.5344 27.0801 21.8964C26.1546 21.3851 25.8071 21.1861 25.634 21.0679C25.5468 21.0086 25.4582 20.9599 25.4369 20.9599C25.4155 20.9599 25.3801 21.0244 25.358 21.1033Z" fill="#F43EC1"/>
<path d="M14.9872 27.8671C16.0371 26.9689 17.3435 26.3309 18.5335 26.1351C19.0463 26.0506 19.9007 26.0841 20.3756 26.2072C21.1368 26.4046 21.8177 26.8467 22.1718 27.3734C22.518 27.8882 22.6664 28.3368 22.821 29.3348C22.882 29.7286 22.9483 30.1239 22.9684 30.2135C23.0845 30.7306 23.3104 31.1442 23.5904 31.3518C24.035 31.6816 24.8007 31.702 25.5539 31.4044C25.6818 31.3539 25.7928 31.3189 25.8005 31.3267C25.8279 31.3543 25.4486 31.6115 25.181 31.747C24.821 31.9291 24.5347 31.9995 24.1543 31.9995C23.4645 31.9995 22.8918 31.644 22.4137 30.9191C22.3197 30.7764 22.1083 30.349 21.944 29.9694C21.4394 28.8034 21.1903 28.4481 20.6045 28.0593C20.0946 27.7211 19.437 27.6606 18.9423 27.9062C18.2926 28.2291 18.1113 29.0704 18.5767 29.6035C18.7616 29.8153 19.1066 29.9981 19.3886 30.0337C19.9163 30.1002 20.3697 29.6935 20.3697 29.1537C20.3697 28.8032 20.2367 28.6033 19.902 28.4502C19.4449 28.2413 18.9536 28.4855 18.9559 28.9206C18.9569 29.1061 19.0367 29.2227 19.2202 29.3068C19.338 29.3608 19.3407 29.3651 19.2447 29.3448C18.8253 29.2567 18.727 28.7444 19.0642 28.4043C19.4691 27.996 20.3064 28.1762 20.5938 28.7336C20.7146 28.9677 20.7287 29.4338 20.6234 29.7154C20.3877 30.3455 19.7005 30.6767 19.0034 30.4964C18.5287 30.3737 18.3355 30.2408 17.7632 29.6436C16.7689 28.6058 16.3829 28.4047 14.9493 28.178L14.6746 28.1345L14.9872 27.8671Z" fill="#F43EC1"/>
<path d="M17.6431 17.5614C17.3016 17.6677 16.9696 18.0344 16.8669 18.4189C16.8042 18.6535 16.8398 19.065 16.9336 19.1921C17.0854 19.3973 17.2321 19.4513 17.6293 19.4486C18.407 19.443 19.0831 19.1051 19.1617 18.6827C19.2262 18.3362 18.9292 17.8564 18.5202 17.6456C18.3092 17.537 17.8603 17.4939 17.6431 17.5614Z" fill="#F43EC1"/>
</g>
<defs>
<clipPath id="clip0_13_122">
<rect width="24" height="24" fill="white" transform="translate(8 7.99951)"/>
</clipPath>
</defs>
</svg>
