<svg width="40" height="40" viewBox="0 0 40 40" fill="none" xmlns="http://www.w3.org/2000/svg">
<path d="M0 19.9995C0 10.5714 0 5.85738 2.92893 2.92844C5.85786 -0.000488281 10.5719 -0.000488281 20 -0.000488281V-0.000488281C29.4281 -0.000488281 34.1421 -0.000488281 37.0711 2.92844C40 5.85738 40 10.5714 40 19.9995V19.9995C40 29.4276 40 34.1416 37.0711 37.0706C34.1421 39.9995 29.4281 39.9995 20 39.9995V39.9995C10.5719 39.9995 5.85786 39.9995 2.92893 37.0706C0 34.1416 0 29.4276 0 19.9995V19.9995Z" fill="#FEFDFC"/>
<path d="M29.4099 16.2595L28.5699 18.0795C28.4881 18.2512 28.3591 18.3961 28.1979 18.497C28.0367 18.598 27.8501 18.6509 27.6599 18.6495C27.515 18.6503 27.3717 18.6196 27.2399 18.5595L25.4199 17.7095C25.2388 17.617 25.0902 17.4715 24.994 17.2923C24.8977 17.1132 24.8584 16.9089 24.8812 16.7069C24.904 16.5048 24.9879 16.3145 25.1217 16.1613C25.2554 16.0081 25.4327 15.8994 25.6299 15.8495C25.4402 15.5517 25.2297 15.2676 24.9999 14.9995C24.2387 14.2519 23.3195 13.6846 22.3099 13.3395C22.1806 13.3026 22.06 13.24 21.9555 13.1555C21.8509 13.0709 21.7645 12.9661 21.7014 12.8474C21.6382 12.7287 21.5997 12.5984 21.5881 12.4645C21.5764 12.3305 21.5919 12.1955 21.6336 12.0677C21.6754 11.9399 21.7424 11.8218 21.8308 11.7204C21.9193 11.6191 22.0272 11.5367 22.1482 11.478C22.2692 11.4194 22.4008 11.3858 22.5351 11.3791C22.6694 11.3725 22.8037 11.3931 22.9299 11.4395C24.2395 11.8796 25.4303 12.6153 26.4099 13.5895C26.9129 14.0982 27.3527 14.6656 27.7199 15.2795C27.8638 15.0882 28.0715 14.9549 28.3054 14.9037C28.5393 14.8526 28.7837 14.887 28.9944 15.0008C29.205 15.1146 29.3678 15.3002 29.4532 15.5238C29.5387 15.7474 29.541 15.9943 29.4599 16.2195L29.4099 16.2595ZM17.7399 26.6195C16.734 26.2862 15.815 25.7327 15.0499 24.9995C14.8047 24.7484 14.5806 24.4775 14.3799 24.1895C14.5256 24.1575 14.6623 24.0933 14.7799 24.0016C14.8976 23.9099 14.9932 23.793 15.0599 23.6595C15.1726 23.4195 15.1853 23.1446 15.0953 22.8951C15.0053 22.6457 14.8199 22.4423 14.5799 22.3295L12.7599 21.4795C12.5164 21.3795 12.2433 21.3795 11.9999 21.4795C11.7498 21.5673 11.5448 21.7507 11.4299 21.9895L10.5899 23.8095C10.4772 24.0496 10.4645 24.3245 10.5545 24.5739C10.6445 24.8233 10.8299 25.0268 11.0699 25.1395C11.2055 25.199 11.3519 25.2296 11.4999 25.2295C11.6691 25.2271 11.8349 25.1818 11.9818 25.0979C12.1287 25.0139 12.2519 24.8941 12.3399 24.7495C12.7002 25.3654 13.137 25.9333 13.6399 26.4395C14.6195 27.4138 15.8102 28.1495 17.1199 28.5895C17.2204 28.6207 17.3247 28.6375 17.4299 28.6395C17.6675 28.639 17.8972 28.5539 18.0777 28.3994C18.2583 28.2449 18.3779 28.0312 18.4152 27.7965C18.4525 27.5619 18.4051 27.3216 18.2813 27.1187C18.1576 26.9159 17.9656 26.7637 17.7399 26.6895V26.6195Z" fill="#FF931F"/>
<path d="M30 24.9995C30 25.9884 29.7068 26.9551 29.1573 27.7774C28.6079 28.5996 27.827 29.2405 26.9134 29.6189C25.9998 29.9973 24.9945 30.0964 24.0245 29.9034C23.0546 29.7105 22.1637 29.2343 21.4645 28.535C20.7652 27.8358 20.289 26.9449 20.0961 25.975C19.9031 25.0051 20.0022 23.9997 20.3806 23.0861C20.759 22.1725 21.3999 21.3916 22.2221 20.8422C23.0444 20.2928 24.0111 19.9995 25 19.9995C26.3261 19.9995 27.5979 20.5263 28.5355 21.464C29.4732 22.4017 30 23.6734 30 24.9995ZM15 9.99951C14.0111 9.99951 13.0444 10.2928 12.2222 10.8422C11.3999 11.3916 10.759 12.1725 10.3806 13.0861C10.0022 13.9997 9.90315 15.0051 10.0961 15.975C10.289 16.9449 10.7652 17.8358 11.4645 18.535C12.1637 19.2343 13.0546 19.7105 14.0246 19.9034C14.9945 20.0964 15.9998 19.9973 16.9134 19.6189C17.827 19.2405 18.6079 18.5996 19.1573 17.7774C19.7068 16.9551 20 15.9884 20 14.9995C20 14.3429 19.8707 13.6927 19.6194 13.0861C19.3681 12.4795 18.9998 11.9283 18.5355 11.464C18.0712 10.9997 17.52 10.6314 16.9134 10.3801C16.3068 10.1288 15.6566 9.99951 15 9.99951Z" fill="#F43E40"/>
</svg>
