<svg width="40" height="40" viewBox="0 0 40 40" fill="none" xmlns="http://www.w3.org/2000/svg">
<path d="M0 19.9993C0 10.5712 0 5.85713 2.92893 2.9282C5.85786 -0.000732422 10.5719 -0.000732422 20 -0.000732422V-0.000732422C29.4281 -0.000732422 34.1421 -0.000732422 37.0711 2.9282C40 5.85713 40 10.5712 40 19.9993V19.9993C40 29.4274 40 34.1414 37.0711 37.0703C34.1421 39.9993 29.4281 39.9993 20 39.9993V39.9993C10.5719 39.9993 5.85786 39.9993 2.92893 37.0703C0 34.1414 0 29.4274 0 19.9993V19.9993Z" fill="#FEFDFC"/>
<path fill-rule="evenodd" clip-rule="evenodd" d="M29.1008 16.0028C29.0441 15.9992 28.9824 15.9993 28.9185 15.9993L28.9025 15.9993H26.394C24.3263 15.9993 22.5571 17.6268 22.5571 19.7493C22.5571 21.8717 24.3263 23.4993 26.394 23.4993H28.9025H28.9185C28.9824 23.4993 29.0441 23.4994 29.1008 23.4958C29.9407 23.4427 30.6834 22.7855 30.7459 21.8675C30.75 21.8073 30.7499 21.7424 30.7499 21.6823V21.666V17.8326V17.8163C30.7499 17.7562 30.75 17.6913 30.7459 17.6311C30.6834 16.7131 29.9407 16.0558 29.1008 16.0028ZM26.1716 20.7493C26.7039 20.7493 27.1354 20.3016 27.1354 19.7493C27.1354 19.197 26.7039 18.7493 26.1716 18.7493C25.6393 18.7493 25.2077 19.197 25.2077 19.7493C25.2077 20.3016 25.6393 20.7493 26.1716 20.7493Z" fill="#0DB8D7"/>
<path fill-rule="evenodd" clip-rule="evenodd" d="M28.9179 24.9993C29.067 24.9954 29.1799 25.1335 29.1394 25.2771C28.9387 25.9895 28.62 26.5968 28.1088 27.1081C27.3604 27.8564 26.4114 28.1885 25.239 28.3462C24.0998 28.4993 22.6442 28.4993 20.8064 28.4993H18.6936C16.8558 28.4993 15.4002 28.4993 14.261 28.3462C13.0886 28.1885 12.1396 27.8564 11.3912 27.1081C10.6429 26.3597 10.3108 25.4107 10.1531 24.2383C9.99997 23.0991 9.99998 21.6435 10 19.8057V19.6929C9.99998 17.8551 9.99997 16.3995 10.1531 15.2602C10.3108 14.0878 10.6429 13.1389 11.3912 12.3905C12.1396 11.6421 13.0886 11.31 14.261 11.1524C15.4002 10.9992 16.8558 10.9992 18.6936 10.9993H20.8064C22.6442 10.9992 24.0998 10.9992 25.239 11.1524C26.4114 11.31 27.3604 11.6421 28.1088 12.3905C28.62 12.9018 28.9386 13.509 29.1394 14.2214C29.1799 14.365 29.067 14.5031 28.9179 14.4993L26.394 14.4993C23.5574 14.4993 21.0571 16.7402 21.0571 19.7493C21.0571 22.7584 23.5574 24.9993 26.394 24.9993H28.9179ZM13.75 14.9993C13.3358 14.9993 13 15.3351 13 15.7493C13 16.1635 13.3358 16.4993 13.75 16.4993H17.75C18.1642 16.4993 18.5 16.1635 18.5 15.7493C18.5 15.3351 18.1642 14.9993 17.75 14.9993H13.75Z" fill="#0DB8D7"/>
</svg>
