<svg width="696" height="727" viewBox="0 0 696 727" fill="none" xmlns="http://www.w3.org/2000/svg">
<g opacity="0.05">
<path d="M359.686 25.369L357.415 27.8832C333.498 6.45192 302.44 -0.92098 265.107 5.96222C227.556 12.8863 197.603 31.706 189.319 37.3074C173.049 48.3104 147.799 68.5039 119.891 102.236C93.3641 134.298 70.915 170.759 53.1681 210.603C12.3209 302.509 -3.38729 403.15 7.68811 501.99C11.9232 539.949 21.6506 577.026 35.8204 609.208C50.8705 643.39 70.2503 671.253 93.4196 692.018C144.984 738.232 208.163 732.497 298.272 673.425C380.198 619.713 449.201 636.881 522.253 655.057L524.377 655.585C560.729 664.627 597.077 662.655 626.725 650.036C657.644 636.875 678.683 613.659 687.568 582.896C695.535 555.319 693.3 527.038 680.928 498.84C668.735 471.048 646.325 442.411 614.317 413.725C607.079 407.238 599.221 400.633 590.963 394.094C575.514 381.86 562.173 370.688 550.178 359.937C474.569 292.173 433.612 222.165 399.059 101.628C389.736 69.1048 375.729 44.2961 357.425 27.8918L359.686 25.369ZM359.676 25.3604C377.137 41.0045 392.079 65.0672 402.274 100.633C438.942 228.545 482.093 294.367 552.439 357.414C565.069 368.734 578.57 379.959 593.074 391.443C601.39 398.029 609.224 404.616 616.578 411.202C680.763 468.727 707.435 526.093 690.779 583.757C671.635 650.03 598.187 677.415 523.499 658.841C448.811 640.264 381.51 622.816 300.054 676.217C218.599 729.618 149.262 746.615 91.1586 694.541C42.6884 651.1 12.8198 578.236 4.36556 502.439C-6.73588 403.004 9.06569 301.768 50.1209 209.298C88.8429 122.36 144.856 63.3763 187.495 34.5442C220.083 12.5062 303.063 -25.3652 359.676 25.3604Z" fill="#FFFFB0"/>
<path d="M355.654 67.2471L353.383 69.7612C331.937 50.545 304.079 43.9336 270.584 50.1101C236.854 56.3289 209.947 73.2347 202.504 78.2678C187.881 88.1568 165.184 106.309 140.092 136.637C116.239 165.468 96.0521 198.254 80.091 234.088C43.3534 316.748 29.2258 407.264 39.1872 496.159C42.9931 530.291 51.7395 563.626 64.4794 592.561C78.007 623.281 95.4207 648.319 116.239 666.978C162.518 708.455 219.253 703.284 300.202 650.216C374.059 601.797 436.23 617.264 502.052 633.639L503.961 634.115C536.609 642.233 569.248 640.468 595.862 629.138C623.59 617.335 642.459 596.517 650.426 568.935C657.573 544.194 655.567 518.817 644.464 493.511C633.51 468.541 613.366 442.806 584.595 417.02C578.083 411.185 571.018 405.243 563.59 399.364C549.683 388.35 537.672 378.289 526.871 368.609C458.772 307.576 421.884 244.529 390.766 135.98C382.394 106.768 369.819 84.4915 353.393 69.7698L355.654 67.2471ZM355.644 67.2384C371.359 81.3185 384.806 102.975 393.982 134.984C426.983 250.103 465.821 309.344 529.132 366.086C540.499 376.274 552.648 386.376 565.702 396.714C573.187 402.64 580.238 408.568 586.856 414.498C644.621 466.269 668.627 517.898 653.635 569.797C636.407 629.442 570.304 654.089 503.084 637.37C435.865 620.652 375.294 604.949 301.984 653.009C228.675 701.069 166.272 716.368 113.978 669.5C70.3555 630.404 43.4723 564.826 35.8632 496.608C25.8743 407.117 40.0958 316.006 77.0432 232.782C111.894 154.539 162.305 101.455 200.682 75.5036C230.011 55.6689 304.692 21.5867 355.644 67.2384Z" fill="#FFFFB0"/>
<path d="M351.62 109.124L349.351 111.639C330.375 94.6366 305.717 88.7881 276.061 94.2576C246.152 99.7721 222.291 114.764 215.691 119.229C202.714 128.004 182.569 144.116 160.293 171.037C139.114 196.638 121.188 225.753 107.013 257.573C74.3867 330.987 61.8399 411.377 70.6862 490.329C77.8 554.111 102.721 609.37 139.06 641.939C180.05 678.676 230.345 674.071 302.132 627.008C367.921 583.879 423.259 597.646 481.849 612.223L483.547 612.645C512.49 619.844 541.418 618.279 565.002 608.241C589.539 597.797 606.234 579.376 613.284 554.974C619.611 533.066 617.834 510.595 608 488.181C598.283 466.033 580.41 443.199 554.873 420.312C549.091 415.13 542.814 409.855 536.219 404.633C523.849 394.838 513.166 385.892 503.56 377.283C442.972 322.981 410.156 266.892 382.475 170.332C375.051 144.431 363.909 124.687 349.359 111.646L351.62 109.124ZM351.612 109.116C365.581 121.631 377.534 140.883 385.691 169.336C415.024 271.664 449.545 324.323 505.821 374.76C515.926 383.816 526.726 392.794 538.329 401.984C544.983 407.252 551.251 412.521 557.134 417.79C608.482 463.81 629.819 509.703 616.494 555.834C601.178 608.853 542.422 630.761 482.67 615.9C422.92 601.04 369.078 587.081 303.915 629.8C238.75 672.523 183.281 686.12 136.799 644.462C98.0219 609.708 74.1256 551.416 67.3628 490.78C58.4829 411.232 71.1241 330.243 103.967 256.267C134.945 186.718 179.755 139.529 213.868 116.463C239.939 98.8329 306.322 68.5366 351.612 109.116Z" fill="#FFFFB0"/>
<path d="M347.588 151.001L345.319 153.518C309.134 121.096 255.099 142.456 228.876 160.187C215.078 169.519 167.452 205.812 133.938 281.057C105.419 345.225 94.4524 415.491 102.186 484.499C108.398 540.21 130.156 588.467 161.879 616.899C197.584 648.899 241.435 644.858 304.061 603.801C361.784 565.96 410.291 578.028 461.647 590.806L463.133 591.175C488.371 597.453 513.587 596.091 534.141 587.343C555.487 578.258 570.011 562.236 576.142 541.011C581.65 521.94 580.101 502.373 571.535 482.852C563.059 463.527 547.451 443.594 525.15 423.607C520.097 419.079 514.613 414.468 508.847 409.902C498.018 401.327 488.665 393.494 480.254 385.955C427.175 338.383 398.426 289.254 374.183 204.682C367.708 182.095 357.999 164.882 345.327 153.524L347.588 151.001ZM347.58 150.995C359.803 161.945 370.262 178.791 377.398 203.686C403.066 293.222 433.272 339.299 482.515 383.432C491.355 391.356 500.804 399.213 510.957 407.253C516.78 411.863 522.264 416.473 527.411 421.084C572.341 461.352 591.011 501.508 579.352 541.873C565.951 588.263 514.538 607.432 462.255 594.43C409.974 581.427 362.863 569.213 305.844 606.593C248.826 643.974 200.29 655.873 159.618 619.421C125.69 589.013 104.78 538.007 98.862 484.95C91.0918 415.345 102.153 344.48 130.891 279.75C157.996 218.894 197.205 177.607 227.053 157.423C249.864 141.996 307.951 115.487 347.58 150.995Z" fill="#FFFFB0"/>
<path d="M343.554 192.878L341.287 195.395C310.486 167.799 264.425 186.026 242.064 201.148C230.262 209.127 189.536 240.164 160.862 304.541C136.452 359.462 127.065 419.604 133.685 478.669C138.997 526.309 157.591 567.564 184.699 591.858C215.116 619.12 252.525 615.645 305.991 580.594C355.645 548.041 397.321 558.412 441.446 569.388L442.718 569.706C464.252 575.06 485.757 573.903 503.278 566.445C521.435 558.717 533.786 545.095 538.999 527.049C543.688 510.814 542.367 494.152 535.073 477.524C527.832 461.02 514.494 443.988 495.428 426.901C491.103 423.025 486.409 419.078 481.476 415.172C472.186 407.817 464.162 401.096 456.944 394.627C411.376 353.787 386.699 311.617 365.89 239.032C360.365 219.758 352.09 205.078 341.293 195.401L343.554 192.878ZM343.548 192.873C354.023 202.259 362.99 216.697 369.106 238.036C391.107 314.783 416.999 354.277 459.205 392.104C466.783 398.896 474.883 405.631 483.586 412.523C488.575 416.475 493.276 420.426 497.689 424.378C536.199 458.893 552.202 493.313 542.208 527.911C530.722 567.676 486.655 584.106 441.841 572.959C397.028 561.815 356.647 551.346 307.775 583.386C258.901 615.427 217.299 625.626 182.437 594.381C153.355 568.317 135.433 524.597 130.361 479.12C123.701 419.459 133.181 358.718 157.814 303.235C181.047 251.073 214.655 215.682 240.238 198.383C259.792 185.161 309.58 162.438 343.548 192.873Z" fill="#FFFFB0"/>
<path d="M339.52 234.755L337.255 237.273C311.839 214.501 273.748 229.597 255.247 242.107C245.447 248.735 211.617 274.518 187.784 328.025C167.485 373.702 159.679 423.718 165.183 472.84C169.596 512.406 185.026 546.66 207.518 566.818C232.65 589.342 263.616 586.433 307.922 557.387C349.506 530.124 384.352 538.792 421.243 547.972L422.305 548.234C459.822 557.567 493.278 542.784 501.856 513.088C509.652 486.098 497.827 458.983 465.705 430.194C462.11 426.972 458.207 423.691 454.104 420.441C446.354 414.306 439.658 408.698 433.635 403.299C395.579 369.192 374.971 333.98 357.599 273.384C353.023 257.421 346.181 245.273 337.259 237.278L339.52 234.755ZM339.516 234.751C348.246 242.573 355.717 254.604 360.814 272.387C379.148 336.342 400.724 369.254 435.896 400.777C442.212 406.438 448.962 412.049 456.215 417.792C460.373 421.086 464.29 424.379 467.966 427.671C500.06 456.435 513.395 485.117 505.067 513.949C495.495 547.086 458.77 560.778 421.427 551.491C384.083 542.203 350.432 533.478 309.706 560.178C268.976 586.879 234.309 595.378 205.257 569.341C181.022 547.62 166.088 511.188 161.86 473.289C156.309 423.572 164.21 372.954 184.737 326.719C204.099 283.251 232.104 253.76 253.425 239.342C269.719 228.324 311.209 209.387 339.516 234.751Z" fill="#FFFFB0"/>
<path d="M335.488 276.633L333.223 279.152C308.136 256.675 270.044 281.979 268.434 283.068C260.633 288.342 233.698 308.873 214.709 351.508C198.518 387.938 192.292 427.831 196.682 467.01C200.195 498.506 212.462 525.757 230.337 541.778C250.182 559.564 274.706 557.22 309.852 534.178C343.369 512.205 371.382 519.176 401.041 526.555L401.89 526.766C431.537 534.139 457.958 522.515 464.715 499.126C470.874 477.806 461.474 456.336 435.982 433.489C433.116 430.92 430.003 428.303 426.732 425.712C420.521 420.794 415.155 416.3 410.327 411.973C379.779 384.595 363.242 356.344 349.307 307.734C345.681 295.084 340.271 285.469 333.227 279.155L335.488 276.633ZM335.483 276.628C342.468 282.886 348.445 292.512 352.523 306.738C367.189 357.902 384.451 384.232 412.588 409.45C417.64 413.978 423.039 418.468 428.842 423.062C432.169 425.695 435.302 428.33 438.243 430.966C463.917 453.977 474.587 476.922 467.924 499.988C460.266 526.497 430.888 537.451 401.012 530.021C371.137 522.59 344.217 515.611 311.635 536.971C279.053 558.331 251.318 565.131 228.076 544.301C208.689 526.925 196.74 497.78 193.359 467.461C188.919 427.686 195.24 387.192 211.661 350.203C227.15 315.43 249.556 291.835 266.611 280.302C279.647 271.487 312.838 256.338 335.483 276.628Z" fill="#FFFFB0"/>
</g>
</svg>
