<svg width="191" height="38" viewBox="0 0 191 38" fill="none" xmlns="http://www.w3.org/2000/svg">
<g clip-path="url(#clip0_48_483)">
<path d="M11.6575 15.9679L19.0493 8.58857L26.445 15.9718L30.7461 11.6778L19.0493 0L7.35645 11.6739L11.6575 15.9679Z" fill="#F4BC34"/>
<path d="M8.61935 18.9993L4.31836 14.7054L0.017162 18.9995L4.31815 23.2934L8.61935 18.9993Z" fill="#F4BC34"/>
<path d="M11.657 22.0321L19.0488 29.4114L26.4442 22.0285L30.7477 26.3201L30.7455 26.3225L19.0488 38L7.35562 26.3264L7.34961 26.3204L11.657 22.0321Z" fill="#F4BC34"/>
<path d="M33.7799 23.2955L38.0811 19.0013L33.7801 14.7074L29.4789 19.0016L33.7799 23.2955Z" fill="#F4BC34"/>
<path d="M23.4119 18.9978H23.4137L19.0492 14.6404L15.8238 17.8606H15.8235L15.4531 18.2306L14.6886 18.9939L14.6826 18.9999L14.6886 19.0062L19.0492 23.3596L23.4137 19.0023L23.4158 18.9999L23.4119 18.9978Z" fill="#F4BC34"/>
<path d="M44.7861 9.2077H54.1407C56.4625 9.2077 58.2181 9.80256 59.408 10.9923C60.3288 11.9137 60.7891 13.0557 60.7891 14.418V14.4756C60.7891 15.0513 60.7178 15.56 60.5744 16.0012C60.4313 16.443 60.2401 16.8407 60.0011 17.1957C59.7627 17.5511 59.4856 17.8629 59.1705 18.1312C58.8551 18.4001 58.5163 18.6306 58.1535 18.8221C59.3205 19.2639 60.2392 19.8633 60.909 20.6214C61.5785 21.3799 61.9137 22.4306 61.9137 23.7737V23.831C61.9137 24.7524 61.7363 25.5583 61.3813 26.2495C61.0263 26.9401 60.5176 27.516 59.8553 27.9768C59.193 28.4375 58.3967 28.7826 57.466 29.0131C56.5352 29.2433 55.5038 29.3583 54.3719 29.3583H44.7861V9.2077ZM53.2055 17.3542C54.1861 17.3542 54.9647 17.1867 55.541 16.8506C56.1176 16.5147 56.4059 15.9724 56.4059 15.2241V15.1665C56.4059 14.4951 56.1558 13.9819 55.6562 13.6265C55.1562 13.2715 54.4353 13.0938 53.4938 13.0938H49.1109V17.3542H53.2055ZM54.3878 25.4725C55.3682 25.4725 56.1366 25.2954 56.6945 24.94C57.2519 24.585 57.5309 24.033 57.5309 23.2845V23.2272C57.5309 22.5555 57.2711 22.023 56.7523 21.6293C56.2331 21.2364 55.397 21.0395 54.2435 21.0395H49.1109V25.4728L54.3878 25.4725Z" fill="#F4BC34"/>
<path d="M67.4844 9.2077H71.9252V29.3589H67.4844V9.2077Z" fill="#F4BC34"/>
<path d="M78.6514 9.2077H82.7453L92.2033 21.6152V9.2077H96.5861V29.3589H92.8091L83.0339 16.5486V29.3589H78.6514V9.2077Z" fill="#F4BC34"/>
<path d="M110.03 9.06403H114.124L122.775 29.3589H118.133L116.287 24.8396H107.752L105.907 29.3589H101.379L110.03 9.06403ZM114.701 20.924L112.019 14.3896L109.338 20.924H114.701Z" fill="#F4BC34"/>
<path d="M127.568 9.2077H131.663L141.121 21.6152V9.2077H145.503V29.3589H141.726L131.951 16.5486V29.3589H127.568V9.2077Z" fill="#F4BC34"/>
<path d="M161.485 29.7041C160.004 29.7041 158.63 29.4351 157.361 28.8982C156.092 28.3613 154.996 27.6269 154.074 26.6958C153.151 25.7651 152.43 24.6663 151.911 23.3998C151.392 22.1329 151.133 20.7799 151.133 19.3405V19.2832C151.133 17.8438 151.392 16.4959 151.911 15.2386C152.43 13.9817 153.151 12.8781 154.074 11.9282C154.996 10.9782 156.102 10.2294 157.389 9.68257C158.677 9.13573 160.101 8.8623 161.657 8.8623C162.599 8.8623 163.459 8.93944 164.237 9.09251C165.016 9.24647 165.722 9.45717 166.357 9.72578C166.992 9.9947 167.577 10.3209 168.116 10.7045C168.654 11.0887 169.154 11.5107 169.615 11.9714L166.79 15.2242C166.001 14.5144 165.199 13.9573 164.382 13.5546C163.565 13.1518 162.647 12.9501 161.628 12.9501C160.782 12.9501 159.999 13.1134 159.279 13.4396C158.558 13.7659 157.937 14.2167 157.418 14.7923C156.9 15.368 156.496 16.0352 156.207 16.793C155.919 17.5514 155.775 18.3621 155.775 19.2256V19.2829C155.775 20.1464 155.919 20.9624 156.207 21.7296C156.496 22.4976 156.894 23.169 157.404 23.7446C157.913 24.3203 158.529 24.7765 159.249 25.1123C159.971 25.4485 160.763 25.616 161.628 25.616C162.782 25.616 163.757 25.405 164.555 24.9827C165.352 24.561 166.146 23.9851 166.934 23.2554L169.76 26.1055C169.24 26.6622 168.701 27.1613 168.145 27.6022C167.587 28.044 166.977 28.4228 166.314 28.7397C165.651 29.0561 164.924 29.2965 164.137 29.4592C163.348 29.6221 162.464 29.7041 161.485 29.7041Z" fill="#F4BC34"/>
<path d="M174.986 9.2077H190.182V13.1517H179.369V17.2395H188.885V21.1833H179.369V25.4151H190.327V29.3589H174.986V9.2077Z" fill="#F4BC34"/>
</g>
<defs>
<clipPath id="clip0_48_483">
<rect width="190" height="38" fill="white" transform="translate(0.181641)"/>
</clipPath>
</defs>
</svg>
