<svg width="177" height="38" viewBox="0 0 177 38" fill="none" xmlns="http://www.w3.org/2000/svg">
<g clip-path="url(#clip0_48_506)">
<path fill-rule="evenodd" clip-rule="evenodd" d="M97.7392 15.4444C96.8146 12.2603 98.3394 9.61926 101.593 8.77057C102.526 8.52704 106.75 8.63692 107.474 8.92364C107.74 9.02869 107.856 9.43196 107.858 10.2607C107.86 10.9134 107.929 11.7061 108.011 12.0222C108.135 12.5013 108.062 12.5956 107.574 12.5879C107.132 12.5808 106.865 12.3128 106.492 11.5019C105.897 10.2068 105.175 9.79482 103.495 9.78998C101.349 9.7836 99.7792 11.2793 100.035 13.0866C100.201 14.2626 101.336 15.4198 103.883 17.0106C106.306 18.5238 107.72 19.7683 108.284 20.8832C109.791 23.864 108.504 27.0539 105.147 28.6612C103.423 29.4861 100.535 29.5714 98.5043 28.8573L97.2039 28.3999V26.2486C97.2039 24.3002 97.2488 24.0969 97.6777 24.0969C98.0365 24.0969 98.1915 24.3425 98.3173 25.1117C98.6307 27.0244 100.035 28.1855 102.034 28.1855C103.993 28.1855 105.362 27.0775 105.886 25.0684C106.11 24.2125 106.071 23.897 105.628 22.9528C105.097 21.8208 104.183 21.0696 101.077 19.2147C99.3539 18.1852 98.1353 16.8088 97.7392 15.4444ZM36.8615 10.0417C36.4378 10.0417 36.2725 9.89832 36.2725 9.53058C36.2725 9.04376 36.4378 9.01948 39.7583 9.01948C42.8403 9.01948 43.2347 9.06752 43.1641 9.43372C43.1198 9.66167 42.6939 9.9778 42.2171 10.1365L41.3501 10.425L41.2761 16.9415C41.2265 21.2898 41.2962 23.7982 41.4853 24.4801C42.0476 26.5083 43.7627 27.6746 46.1826 27.6746C47.8673 27.6746 48.8514 27.2668 50.0878 26.0556C51.4177 24.7536 51.6298 23.5165 51.6256 17.0867C51.6216 10.7445 51.5149 10.2211 50.1993 10.0895C49.6007 10.0294 49.4001 9.88501 49.4001 9.51447C49.4001 9.05243 49.5976 9.01948 52.3723 9.01948C55.1794 9.01948 55.3446 9.04785 55.3446 9.53058C55.3446 9.84542 55.1781 10.0432 54.911 10.0455C53.7639 10.056 53.7428 10.169 53.5884 17.1234C53.4283 24.3454 53.2787 25.2005 51.8651 26.9696C51.4574 27.48 50.4852 28.221 49.7047 28.6165C48.4329 29.261 48.0282 29.335 45.8085 29.3308C43.7623 29.3264 43.1164 29.2241 42.0932 28.7419C40.5997 28.0379 39.6284 27.1269 38.9123 25.7579C38.4125 24.8022 38.3698 24.2851 38.2541 17.8103C38.1215 10.399 38.0573 10.0417 36.8615 10.0417ZM60.039 10.0417C59.4727 10.0417 59.3076 9.92617 59.3076 9.53058C59.3076 9.05144 59.4658 9.02077 61.8463 9.04045L64.3852 9.0614L65.6 10.5098C66.2676 11.3064 68.4446 13.7983 70.4372 16.047C72.4299 18.2959 74.7176 20.912 75.5209 21.8607C76.3243 22.8096 77.0805 23.5857 77.2014 23.5857C77.3255 23.5857 77.3874 20.9056 77.3431 17.4301L77.265 11.2744L76.5699 10.6581C76.1878 10.3189 75.6029 10.0417 75.2697 10.0417C74.8266 10.0417 74.6644 9.90265 74.6644 9.52342C74.6644 9.02432 74.7908 9.00772 78.0699 9.07621C80.8583 9.13447 81.4757 9.21498 81.4757 9.5201C81.4757 9.73758 81.1309 9.9658 80.6477 10.0678C80.1926 10.1639 79.6908 10.3754 79.5332 10.538C79.3297 10.7478 79.2261 13.4605 79.1757 19.8928L79.1046 28.9522H78.3868C77.7688 28.9522 77.0332 28.2321 73.1002 23.7773C70.5873 20.931 67.6542 17.5483 66.5822 16.2602C65.5099 14.9719 64.5492 13.9081 64.4471 13.8964C64.1595 13.8631 64.2291 25.3727 64.5231 26.4652C64.7525 27.3165 64.9101 27.4631 65.8843 27.7321C66.6687 27.9485 66.986 28.1681 66.986 28.4942C66.986 28.9129 66.6869 28.9522 63.5184 28.9522C60.2929 28.9522 60.0507 28.9188 60.0507 28.4731C60.0507 28.1468 60.284 27.9459 60.7825 27.843C62.295 27.531 62.3954 27.0357 62.4802 19.4646C62.5277 15.2242 62.458 12.2573 62.2957 11.6361C62.0107 10.5436 61.3003 10.0417 60.039 10.0417ZM86.0108 10.0417C85.4801 10.0417 85.315 9.9203 85.315 9.53058C85.315 9.04224 85.4801 9.01948 89.0303 9.01948C92.5803 9.01948 92.7457 9.04224 92.7457 9.53058C92.7457 9.90548 92.5803 10.0417 92.1263 10.0417C91.7859 10.0417 91.2798 10.2763 91.0018 10.563C90.5112 11.0693 90.4985 11.321 90.5685 19.1448C90.6365 26.7824 90.6656 27.2243 91.1209 27.5677C91.3855 27.767 91.8591 27.93 92.1736 27.93C92.5803 27.93 92.7457 28.0774 92.7457 28.4412C92.7457 28.9295 92.5803 28.9522 89.0303 28.9522C85.5646 28.9522 85.315 28.92 85.315 28.4739C85.315 28.1141 85.5581 27.9552 86.2962 27.8334C87.7619 27.5917 87.8368 27.0966 87.7455 18.2622C87.6725 11.1873 87.6411 10.7462 87.1872 10.404C86.9227 10.2047 86.3933 10.0417 86.0108 10.0417ZM111.927 10.0417C111.588 10.0417 111.331 9.84721 111.25 9.53058C111.125 9.03636 111.243 9.01948 114.813 9.01948C118.34 9.01948 118.505 9.04224 118.505 9.53058C118.505 9.92335 118.34 10.0417 117.792 10.0417C116.233 10.0417 116.268 10.334 118.628 17.0171C119.829 20.419 120.996 23.6506 121.22 24.1982L121.627 25.1942L123.519 19.9817C125.746 13.8461 126.035 12.7114 125.657 11.5923C125.394 10.8124 124.369 10.0417 123.595 10.0417C123.377 10.0417 123.211 9.82192 123.211 9.53058C123.211 9.04146 123.377 9.01948 127.051 9.01948C130.725 9.01948 130.89 9.04146 130.89 9.53058C130.89 9.89424 130.725 10.0417 130.318 10.0417C129.276 10.0417 128.817 10.6146 128.967 11.7278C129.121 12.8737 133.381 25.1892 133.56 25.0049C133.85 24.7052 138.568 11.4475 138.568 10.9307C138.568 10.3115 138.148 10.0417 137.185 10.0417C136.752 10.0417 136.586 9.90088 136.586 9.53058C136.586 9.04785 136.752 9.01948 139.559 9.01948C142.08 9.01948 142.531 9.07982 142.531 9.41611C142.531 9.63436 142.222 9.92387 141.845 10.0596C140.996 10.3649 140.782 10.7135 139.717 13.537C139.25 14.7769 137.786 18.6575 136.464 22.16C135.143 25.6629 134.005 28.6816 133.935 28.8682C133.866 29.0551 133.456 29.2078 133.025 29.2078H132.241L130.462 24.4162C129.483 21.7811 128.327 18.6591 127.893 17.4785C127.148 15.4555 127.086 15.3676 126.806 15.945C126.642 16.2824 125.467 19.41 124.193 22.8955L121.878 29.2328L121.014 29.1565L120.149 29.0801L116.853 20.1558C115.012 15.1699 113.319 10.9688 113.016 10.6366C112.718 10.3092 112.228 10.0417 111.927 10.0417ZM161.453 10.1501C161.412 10.053 161.412 9.70412 161.412 9.70412C161.412 9.70412 161.402 9.57828 161.453 9.51116C161.504 9.44425 161.522 9.44247 161.704 9.42454L161.706 9.42436C162.375 9.35851 163.717 9.24767 164.836 9.19709C164.939 9.19245 165.053 9.18709 165.177 9.18128L165.179 9.18116L165.181 9.18108C166.413 9.12318 168.619 9.04571 170.135 9.12413C173.043 9.27458 175.112 10.73 175.816 13.1352C176.521 15.5402 176.148 17.7978 175.188 19.2349C174.227 20.6719 172.611 21.9093 169.926 21.8287C167.709 21.7623 167.116 21.3325 166.642 20.9891C166.542 20.9165 166.447 20.8477 166.343 20.7872V23.8543C166.366 25.9461 166.383 26.9508 166.54 27.3227C166.751 27.8233 167.227 28.1318 168.155 28.3682C168.155 28.3682 168.575 28.4702 168.684 28.5789C168.792 28.6875 168.792 28.9289 168.792 28.9289C168.792 28.9289 168.814 29.1547 168.727 29.2697C168.64 29.3848 168.472 29.3617 168.472 29.3617L164.361 29.3274L161.882 29.3207C161.882 29.3207 161.622 29.3723 161.524 29.264C161.427 29.1555 161.436 28.9295 161.436 28.9295C161.436 28.9295 161.457 28.6862 161.571 28.5773C161.685 28.4682 162.108 28.3464 162.108 28.3464C163.064 28.0685 163.479 27.7745 163.695 27.2207C163.87 26.7742 163.871 25.9463 163.869 19.1899C163.868 12.7825 163.859 11.5873 163.717 11.2435C163.507 10.7347 162.981 10.5999 162.232 10.4079C162.084 10.3699 161.926 10.3295 161.761 10.2836C161.761 10.2836 161.495 10.2471 161.453 10.1501ZM173.424 15.3783C173.424 16.429 173.406 18.0739 172.325 19.1254C171.245 20.1769 169.118 20.4647 167.674 20.1719C167.219 20.0797 166.959 19.9375 166.758 19.8278L166.738 19.8169L166.369 19.6153L166.347 15.9238C166.334 13.6108 166.357 12.1039 166.41 11.8884C166.458 10.6688 168.195 10.5171 169.044 10.5623C172.676 10.5623 173.318 13.7308 173.424 15.3783ZM150.048 9.16261C150.048 9.16261 149.87 9.23311 149.601 9.33867L148.632 9.8573L147.933 11.6625C147.549 12.6553 146.847 14.4778 146.372 15.7126C145.508 17.9615 144.937 19.439 144.336 20.9812C144.159 21.4348 143.626 22.8161 143.15 24.0509C142.675 25.2854 142.2 26.4605 142.095 26.662C142.077 26.6955 142.059 26.7316 142.039 26.7697C141.773 27.287 141.311 28.1855 140.496 28.3214C140.496 28.3214 140.048 28.367 139.881 28.5368C139.715 28.7068 139.731 28.8456 139.731 28.8456V29.0597C139.731 29.0597 139.747 29.1634 139.841 29.215C139.935 29.2667 140.062 29.2697 140.062 29.2697L143.045 29.2346H146.128C146.128 29.2346 146.346 29.261 146.43 29.1888C146.514 29.1166 146.538 29.0095 146.538 29.0095V28.7841C146.538 28.7841 146.495 28.5398 146.373 28.4444C146.251 28.3492 145.793 28.2839 145.793 28.2839C144.559 28.1159 144.346 27.1493 144.499 26.2802C144.573 25.8531 145.069 24.2734 145.628 22.683L145.821 22.1334L149.052 22.1078C150.829 22.0937 152.363 22.1033 152.461 22.129C152.601 22.1657 152.797 22.5785 153.374 24.0487C154.247 26.2762 154.317 26.5475 154.124 26.9643C154.112 26.9897 154.099 27.0176 154.086 27.0478C153.904 27.4508 153.552 28.2339 152.664 28.3137C152.664 28.3137 152.193 28.3305 152.076 28.4763C151.959 28.6223 151.984 28.7901 151.984 28.7901V29.013C151.984 29.013 152.016 29.1438 152.076 29.1955C152.137 29.2473 152.239 29.2342 152.239 29.2342L155.171 29.2124L159.293 29.2122C159.293 29.2122 159.455 29.23 159.499 29.1658C159.543 29.1013 159.552 29.0255 159.552 29.0255V28.7294C159.552 28.7294 159.534 28.5719 159.455 28.485C159.376 28.3984 158.841 28.3067 158.841 28.3067C158.158 28.1927 157.818 27.6091 157.565 27.1745C157.501 27.0636 157.442 26.9625 157.384 26.8814C157.267 26.7157 156.847 25.8081 156.519 24.9351C156.191 24.0622 155.45 22.0902 154.873 20.5531C154.296 19.0161 153.491 16.8719 153.084 15.7885C152.677 14.7049 151.904 12.6433 151.365 11.207C151.277 10.9712 151.197 10.7595 151.127 10.5699C150.765 9.60538 150.62 9.2153 150.58 9.16261C150.45 8.99156 150.048 9.16261 150.048 9.16261ZM149.856 15.032C149.726 14.7045 149.497 14.117 149.347 13.7265C149.075 13.0166 148.972 12.853 148.887 12.9997C148.863 13.0425 148.692 13.5277 148.507 14.0779C147.312 17.6403 146.77 19.2444 146.662 19.5467C146.593 19.7367 146.538 19.9325 146.538 19.9819C146.538 20.0386 147.51 20.0717 149.176 20.0717C150.627 20.0717 151.814 20.0531 151.814 20.0303C151.814 20.0075 151.685 19.6675 151.527 19.2744C151.368 18.8812 150.981 17.9 150.666 17.0937C150.351 16.2874 149.986 15.3597 149.856 15.032Z" fill="#FF097D"/>
<path d="M9.23463 12.1933C8.56012 11.2472 4.3915 5.39977 0.594838 0.745302C0.260495 0.335409 -0.00441787 0 0.00616579 0C0.0557082 0 11.2435 12.412 12.0485 13.3601L12.2708 13.6219L12.2514 14.029C12.2259 14.5661 12.0594 14.9229 11.6616 15.2931C11.2031 15.72 10.6452 15.9489 9.76908 16.0697C9.2317 16.144 9.03622 16.2258 8.81906 16.4675C8.61086 16.6991 8.53125 16.9877 8.47377 17.7197C8.38477 18.8528 8.25319 19.3317 7.72229 20.4557C7.20935 21.5416 7.10525 21.952 7.19497 22.5335C7.30437 23.2424 7.70039 23.7578 8.62761 24.3981C9.33525 24.8867 9.65631 25.2018 9.83268 25.581C9.94101 25.8139 9.95512 25.8986 9.95302 26.3034C9.94983 26.9224 9.85133 27.1717 9.43181 27.6235C8.75396 28.3532 7.54871 28.9486 6.0644 29.2872C5.44416 29.4286 5.41678 29.4285 5.41678 29.2836C5.41678 29.1015 5.18631 28.6362 4.78604 28.0101C4.32224 27.2845 4.14082 26.9216 3.967 26.3722C3.76847 25.7447 3.7124 25.3207 3.74119 24.6642C3.76842 24.0434 3.83563 23.7681 4.08 23.2764C4.27403 22.886 4.39984 22.7085 5.16875 21.7398C6.48232 20.0852 6.9563 19.1183 7.12487 17.7496C7.27522 16.5287 7.48352 15.9388 7.94946 15.4137C8.22897 15.0987 8.2908 14.9784 8.2908 14.7496C8.2908 14.6371 7.39009 12.8784 6.07334 10.4986C3.97631 6.70868 3.97527 6.7067 4.03643 6.76505C4.06289 6.79027 5.03268 8.29692 6.19149 10.1132C7.70601 12.4868 8.81824 14.1184 8.98079 14.2741C9.21075 14.4945 9.52658 14.6308 9.8069 14.6308C10.0547 14.6308 10.3031 14.5853 10.5439 14.447C10.8424 14.2756 10.6939 14.089 10.1937 13.4601L10.1936 13.4599C9.96823 13.1767 9.67154 12.8037 9.31218 12.302L9.2347 12.1934L9.23463 12.1933Z" fill="#FF097D"/>
<path d="M11.142 7.56227C10.973 7.58851 10.9881 7.59511 11.3473 7.65138C12.6555 7.85636 13.6776 8.38022 14.7177 9.3791C15.1754 9.81871 15.6356 10.3646 16.3801 11.3512C18.0563 13.5726 18.7676 14.1915 20.1788 14.6562C21.0081 14.9293 21.8444 15.0568 23.3223 15.1355C24.9585 15.2226 25.5765 15.3555 26.1608 15.746C26.485 15.9627 26.7381 16.2314 26.9901 16.6259L27.1364 16.8552L27.1059 16.603C26.9884 15.6355 26.3042 14.2763 25.4334 13.2796L25.2746 13.0979L25.1945 13.463C24.9926 14.3823 24.5572 15.0429 24.1526 15.0434C23.9549 15.0437 23.7552 14.9162 23.6836 14.744C23.594 14.5281 23.6015 14.4481 23.7348 14.1959C23.9801 13.7323 24.0405 13.1117 23.9196 12.302C23.8847 12.0679 23.833 11.8486 23.8049 11.8145C23.7167 11.7076 23.0106 11.2916 22.5627 11.0826C20.9345 10.3229 18.988 10.076 17.0745 10.3866L16.6202 10.4604L16.3028 10.1033C15.1077 8.75928 13.9881 8.00251 12.7577 7.70711C12.2307 7.58052 11.4659 7.51195 11.142 7.56227Z" fill="#FF097D"/>
<path d="M24.4427 8.35884C24.2643 8.75708 24.1754 9.19317 24.1382 9.8543C24.1143 10.2808 24.0904 10.4258 24.0412 10.4449C23.9675 10.4733 23.8676 10.4427 23.2619 10.2074C22.8546 10.0491 21.8427 9.75083 21.8133 9.78038C21.8057 9.78817 22.0173 9.89251 22.2837 10.0123C22.5501 10.1321 22.9833 10.3586 23.246 10.5156C24.2836 11.1355 24.4606 11.4974 24.462 13.0027C24.4626 13.7518 24.4533 13.8513 24.3612 14.0777C24.2378 14.3809 24.2593 14.4383 24.3957 14.1696C24.6477 13.673 24.7521 13.1762 24.7671 12.4024C24.7768 11.9058 24.7915 11.8008 24.861 11.7309C24.9364 11.655 24.9546 11.654 25.077 11.7176C25.2594 11.8124 26.0853 12.4759 26.4444 12.8162L26.7381 13.0944L26.4444 12.7051C26.2829 12.491 25.8373 11.9923 25.4543 11.5969C24.6378 10.7539 24.5732 10.6413 24.4598 9.86091C24.3703 9.24586 24.3917 8.71723 24.5214 8.33072C24.5692 8.18854 24.5999 8.07218 24.5896 8.07218C24.5795 8.07218 24.5133 8.20121 24.4427 8.35884Z" fill="#FF097D"/>
<path d="M12.0449 12.4293C11.3158 11.4154 10.8647 9.86083 10.9623 8.69871L10.9926 8.33907L11.1585 8.36967C11.4702 8.42709 12.0076 8.62912 12.2592 8.78351C12.9497 9.20712 13.2487 9.76483 13.5528 11.197C13.6419 11.6164 13.7588 12.0911 13.8126 12.2518C13.8992 12.5105 14.2264 13.1147 14.4924 13.5072C14.684 13.7898 14.5567 13.9237 14.1332 13.8851C13.4863 13.8261 12.6101 13.2153 12.0449 12.4293Z" fill="#FF097D"/>
<path d="M18.6463 15.3573C18.6463 17.3869 19.8464 18.5898 23.2539 19.9755C25.523 20.8984 26.4512 21.3756 27.142 21.9752C27.7495 22.5027 28.1113 23.2066 28.1463 23.9297C28.1528 24.0646 28.1779 24.1637 28.2036 24.1553C28.2959 24.1251 28.6442 23.3379 28.7584 22.901C28.903 22.348 28.9552 21.2987 28.8661 20.7391C28.5592 18.8133 27.2724 17.3996 25.1927 16.7029C24.5383 16.4836 23.829 16.3337 22.5687 16.1478C20.4266 15.8322 19.6528 15.5931 18.9618 15.0334C18.8132 14.9129 18.6814 14.8143 18.6689 14.8143C18.6566 14.8143 18.6463 15.0587 18.6463 15.3573Z" fill="#FF097D"/>
<path d="M20.8617 20.5512C20.8191 20.2945 20.745 19.9669 20.6972 19.823L20.6102 19.5613L20.7717 19.7443C20.9953 19.9978 21.1719 20.3219 21.3215 20.7539C21.4358 21.0834 21.4486 21.1814 21.4477 21.717C21.4469 22.2427 21.4326 22.3529 21.3272 22.6496C21.1608 23.1173 20.9543 23.449 20.608 23.8051C19.9856 24.4449 19.1852 24.7993 18.0305 24.9462C17.8297 24.9717 17.2447 25.0148 16.7303 25.0417C15.4341 25.1098 14.581 25.2505 13.8144 25.5224C13.7042 25.5615 13.6058 25.5852 13.5958 25.5751C13.5648 25.5439 14.0867 25.2298 14.5178 25.02C15.1257 24.7242 15.7308 24.5627 17.0865 24.3347C17.7563 24.2221 18.4479 24.0854 18.6235 24.031C20.282 23.5174 21.1346 22.1918 20.8617 20.5512Z" fill="#FF097D"/>
<path d="M22.115 20.536C21.8671 21.4211 21.971 22.3701 22.4238 23.3532C22.651 23.8467 22.8776 24.2193 23.8016 25.619C24.5964 26.8229 24.9901 27.5353 25.1832 28.119C25.4985 29.0724 25.451 29.929 25.0339 30.8096C24.9354 31.0178 24.8693 31.1877 24.8868 31.1874C24.9046 31.1869 25.0676 31.1052 25.2492 31.0058C26.489 30.3262 27.3582 29.1618 27.7322 27.6794C27.8508 27.2093 27.8975 26.0857 27.8177 25.6188C27.6771 24.7945 27.3849 24.1186 26.9125 23.5252C26.3733 22.8473 25.5802 22.2542 24.1891 21.4882C23.0744 20.8743 22.6559 20.6354 22.4474 20.4936C22.3424 20.4223 22.2357 20.3639 22.21 20.3639C22.1842 20.3639 22.1416 20.4413 22.115 20.536Z" fill="#FF097D"/>
<path d="M9.62511 28.6571C10.8896 27.5787 12.4629 26.8126 13.896 26.5775C14.5137 26.476 15.5426 26.5162 16.1145 26.6641C17.0313 26.9011 17.8513 27.4319 18.2778 28.0643C18.6947 28.6824 18.8735 29.2211 19.0597 30.4193C19.1332 30.8921 19.2129 31.3668 19.2372 31.4743C19.377 32.0953 19.649 32.5918 19.9862 32.841C20.5217 33.237 21.4439 33.2616 22.351 32.9042C22.505 32.8436 22.6387 32.8016 22.648 32.8109C22.6809 32.844 22.2241 33.1529 21.9019 33.3156C21.4683 33.5342 21.1236 33.6188 20.6653 33.6188C19.8346 33.6188 19.1449 33.1919 18.5692 32.3215C18.456 32.1502 18.2014 31.6371 18.0034 31.1812C17.3958 29.7812 17.0957 29.3547 16.3902 28.8879C15.7761 28.4818 14.9842 28.4091 14.3884 28.7041C13.6059 29.0917 13.3876 30.1019 13.948 30.742C14.1708 30.9963 14.5862 31.2157 14.9259 31.2585C15.5614 31.3383 16.1074 30.85 16.1074 30.2019C16.1074 29.7811 15.9473 29.541 15.5442 29.3572C14.9937 29.1064 14.4019 29.3997 14.4048 29.922C14.406 30.1448 14.502 30.2847 14.7231 30.3858C14.8649 30.4505 14.8682 30.4557 14.7526 30.4314C14.2474 30.3256 14.1291 29.7105 14.5352 29.3021C15.0229 28.8119 16.0312 29.0282 16.3774 29.6975C16.5229 29.9785 16.5398 30.5382 16.413 30.8763C16.1291 31.6328 15.3015 32.0305 14.4619 31.8141C13.8903 31.6667 13.6576 31.5071 12.9684 30.7901C11.7709 29.5441 11.306 29.3026 9.57949 29.0304L9.24865 28.9782L9.62511 28.6571Z" fill="#FF097D"/>
<path d="M12.8237 16.2833C12.4124 16.4109 12.0126 16.8513 11.8889 17.313C11.8134 17.5946 11.8562 18.0886 11.9693 18.2413C12.152 18.4876 12.3287 18.5525 12.8071 18.5492C13.7438 18.5426 14.558 18.1368 14.6527 17.6296C14.7303 17.2137 14.3727 16.6375 13.8801 16.3845C13.6259 16.254 13.0853 16.2023 12.8237 16.2833Z" fill="#FF097D"/>
</g>
<defs>
<clipPath id="clip0_48_506">
<rect width="176.182" height="38" fill="white"/>
</clipPath>
</defs>
</svg>
